<?xml version="1.0" encoding="UTF-8"?><svg id="a" xmlns="http://www.w3.org/2000/svg" viewBox="0 0 270.31 69.53"><defs><style>.b{fill:#010101;}.c{fill:#202020;}.d{fill:#373737;}.e{fill:#393939;}.f{fill:#5d5d5d;}.g{fill:none;stroke:#000;stroke-width:.5px;}</style></defs><g><path class="b" d="M18.46,63.17v1.08H1.43v-1.08h1.41c1.64,0,2.83-.48,3.57-1.44,.47-.62,.7-2.13,.7-4.51V31.56c0-2.01-.13-3.34-.38-3.98-.2-.49-.6-.91-1.2-1.26-.86-.47-1.76-.7-2.7-.7H1.43v-1.08H18.46v1.08h-1.44c-1.62,0-2.8,.48-3.54,1.44-.49,.63-.73,2.13-.73,4.51v25.66c0,2.01,.13,3.34,.38,3.98,.2,.49,.61,.91,1.23,1.26,.84,.47,1.73,.7,2.67,.7h1.44Z"/><path class="b" d="M54.32,53.27l.97,.21-3.4,10.78H21.12v-1.08h1.49c1.68,0,2.88-.55,3.6-1.64,.41-.62,.62-2.07,.62-4.34V31.56c0-2.48-.27-4.03-.82-4.66-.76-.86-1.89-1.29-3.4-1.29h-1.49v-1.08h17.99v1.08c-2.11-.02-3.59,.18-4.44,.59s-1.43,.93-1.74,1.55c-.31,.63-.47,2.12-.47,4.48v24.96c0,1.62,.16,2.73,.47,3.34,.23,.41,.6,.71,1.08,.91,.49,.2,2.01,.29,4.57,.29h2.9c3.05,0,5.19-.22,6.42-.67,1.23-.45,2.35-1.25,3.37-2.39s2.03-2.94,3.05-5.41Z"/><path class="b" d="M89.47,53.27l.97,.21-3.4,10.78h-30.76v-1.08h1.49c1.68,0,2.88-.55,3.6-1.64,.41-.62,.62-2.07,.62-4.34V31.56c0-2.48-.27-4.03-.82-4.66-.76-.86-1.89-1.29-3.4-1.29h-1.49v-1.08h17.99v1.08c-2.11-.02-3.59,.18-4.44,.59s-1.43,.93-1.74,1.55c-.31,.63-.47,2.12-.47,4.48v24.96c0,1.62,.16,2.73,.47,3.34,.23,.41,.6,.71,1.08,.91,.49,.2,2.01,.29,4.57,.29h2.9c3.05,0,5.19-.22,6.42-.67,1.23-.45,2.35-1.25,3.37-2.39s2.03-2.94,3.05-5.41Z"/><path class="b" d="M161.77,26.7v15.62h7.24c1.66,0,2.88-.37,3.65-1.1s1.28-2.18,1.54-4.35h1.08v13.45h-1.08c-.02-1.54-.22-2.68-.6-3.4-.38-.72-.91-1.26-1.58-1.63-.67-.36-1.67-.54-3-.54h-7.24v12.48c0,2.01,.13,3.34,.38,3.98,.2,.49,.61,.91,1.23,1.26,.86,.47,1.76,.7,2.7,.7h1.44v1.08h-17.05v-1.08h1.41c1.64,0,2.83-.48,3.57-1.44,.47-.62,.7-2.13,.7-4.51V31.56c0-2.01-.13-3.34-.38-3.98-.2-.49-.6-.91-1.2-1.26-.84-.47-1.74-.7-2.7-.7h-1.41v-1.08h29.56l.38,8.73h-1.03c-.51-1.86-1.1-3.22-1.77-4.09-.67-.87-1.5-1.5-2.49-1.89-.99-.39-2.51-.59-4.58-.59h-8.76Z"/><path class="b" d="M201.91,50.96h-15.38l-2.7,6.27c-.66,1.54-1,2.7-1,3.46,0,.61,.29,1.14,.86,1.6,.58,.46,1.82,.76,3.74,.89v1.08h-12.51v-1.08c1.66-.29,2.73-.67,3.22-1.14,1-.94,2.1-2.84,3.31-5.71l13.97-32.7h1.03l13.83,33.05c1.11,2.66,2.12,4.38,3.03,5.17s2.17,1.24,3.79,1.33v1.08h-15.67v-1.08c1.58-.08,2.65-.34,3.21-.79,.56-.45,.83-1,.83-1.64,0-.86-.39-2.22-1.17-4.07l-2.4-5.71Zm-.82-2.17l-6.74-16.05-6.91,16.05h13.65Z"/><path class="b" d="M242.34,64.26l-15.35-33.43v26.54c0,2.44,.26,3.97,.79,4.57,.72,.82,1.87,1.23,3.43,1.23h1.41v1.08h-13.83v-1.08h1.41c1.68,0,2.87-.51,3.57-1.52,.43-.62,.64-2.05,.64-4.28V31.42c0-1.76-.2-3.03-.59-3.81-.27-.57-.78-1.04-1.51-1.42s-1.91-.57-3.53-.57v-1.08h11.25l14.41,31.08,14.18-31.08h11.25v1.08h-1.38c-1.7,0-2.9,.51-3.6,1.52-.43,.63-.64,2.05-.64,4.28v25.96c0,2.44,.27,3.97,.82,4.57,.72,.82,1.87,1.23,3.43,1.23h1.38v1.08h-16.88v-1.08h1.41c1.7,0,2.89-.51,3.57-1.52,.43-.62,.64-2.05,.64-4.28V30.83l-15.32,33.43h-.97Z"/></g><g><path d="M143.13,25.28c-.69-.49-.86-.82-.61-1.43,.81-1.97-.89-2.51-1.96-3.24-1.07-.72-2.18-.8-3.34,.34-1.74,1.71-3.27,3.58-4.89,5.39-1.73,1.95-3.32,4.46-6.64,3.66-.56,.3-.77-.29-1.11-.45-.2,.52-.06,1.02,.06,1.52-.18,1.85-1.86,2.9-2.41,4.56-.39,1.15-1.44,1.99-1.61,3.26-.06,.1-.09,.22-.12,.33-.54,2.25-.76,2.35-2.74,1.54,1.9,.5,3.65,2.04,5.99,2.37,1.23,.17,2.42,1.25,2.87,2.61,.24,.72,.82,1.13,1.14,1.74-.71,3.69,.66,7.29,.49,10.98-.06,1.33-.49,2.64-.13,4.03,.47,1.77,1.64,2.49,3.28,2.69,1.29,.15,3.01,.51,2.93,1.71-.08,1.12-1.95,.75-3.05,.86-1.35,.13-2.7,0-4.06,.34-1.65,.41-3.41-1.03-3.51-2.91-.09-1.63-.83-3.06-1.03-4.64-.14-1.16-1.52-1.47-2.68-.43-2.12,1.9-4.79,2.48-7.29,3.48-.86,.34-2.22,.53-2.23,1.49,0,1.06,1.45,.94,2.25,1.36,.73,.38,2.19,.16,1.98,1.3-.16,.9-1.45,.41-2.22,.41-2.55,0-4.94-.49-6.74-2.54-1.22-1.38-1.16-3.08,.46-3.89,2.7-1.35,5.21-3.06,7.78-4.59,1.5-.9,3.1-2.02,4.49-3.26,.53-.47,.55-1.02,.16-1.59-1.4-2.07-2.93-3.9-5.24-5.19-1.5-.84-3.41-1.69-3.88-3.78-.12-.54-.63-.44-1.03-.48-1.54-.14-3.09-.21-4.61-.45-3.35-.52-5.9-3.49-6.34-7.79-.09-.86-.36-1.62-.67-2.38-.37-.92-.97-1.67-2.11-1.61-1.21,.06-1.98,.76-2.35,1.87-.18,.55-.16,1.18-.35,1.73-.16,.48-.33,1.12-.99,1.09-.62-.03-.85-.61-1.02-1.11-.53-1.58,.57-4.18,2.12-5.1,1.94-1.16,3.56-.93,5.17,.53,1.95,1.76,2.25,4.23,2.89,6.52,.85,3.01,5.39,5.65,8.31,4.45,1.04-.42,1.55-1.77,1.46-2.92-.08-.99-.04-1.91,.38-2.76,1.67-3.36,1.13-7.21,2.67-10.85-1.39,.16-2.45,.26-3.45,.8-1.98,1.08-3.77-.26-4.2-2.41-.75-3.76-.13-7.41,.24-11.09,.23-2.29,1.04-4.5,1.06-6.83,0-.63,.41-1.59-.46-1.83-.78-.22-1.16,.65-1.6,1.2-.65,.83-.94,1.92-1.88,2.56-.46,.31-.88,1.2-1.39,.66-.36-.37-.84-1.11-.65-1.84,.56-2.16,1.78-3.95,3.68-5.06,1.7-1,5.14,1.72,4.94,3.76-.21,2.17-.66,4.36-.56,6.52,.1,2.1,.4,4.2,.42,6.33,.01,.88,.76,1.14,1.32,.41,1.18-1.56,2.91-2.57,4.04-4.18,.54-.78,1.32-1.5,2.25-1.68,1.59-.31,2.36-1.43,3.11-2.64,.36-.58,.83-.98,1.47-1.22,2.4-.92,6.52-.03,7.79,1.62,.83,1.08,.75,2.42,1.28,3.59,.7,1.55-.79,2.22-1.62,3.18-.51,.59-.64,1.51-1.38,2-1.21,2.42-3.85,2.38-5.87,3.41,2.05,1.53,2.21,1.52,4.29-.09,.96-.74,1.64-.28,1.84,.68,.34,1.6,1.23,1.8,2.56,1.31,2.23-1.75,4.47-3.49,6.68-5.26,.67-.54,1.34-.37,2.01-.08,1.75,.76,3.38,1.74,4.9,2.88"/><path class="e" d="M130.31,23.2c-.39,.46-.97,.37-1.47,.53-.91,.3-.94-.46-1.21-.93-.25-.45-.26-1.05-.96-1.3-.4,.6-.05,1.47-.77,2.01-.94,.7-1.18-.33-1.71-.55-.31,.27-.13,.58-.18,.86-.09,.53-.14,1.21-.84,1.14-.64-.06-.77-.58-.55-1.22,.27-.8-.38-1.04-.93-1.24-.58-.22-1.2-.35-2-.57,2-2.74,5.36-2.54,7.81-4.05,.22,1.25,.48,2.5,.66,3.76,.19,1.29,.81,1.92,2.16,1.55Z"/><path class="f" d="M127.77,47.47c-.65,.12-1.06,.14-1.32-.74-.73-2.48-1.79-2.98-4.29-3.37-2.52-.39-4.67-1.79-6.92-3.68,1.05,.15,1.82,.12,2.46,.39,1.45,.61,2.34,.15,2.92-1.2-.38,2.09,.62,3.02,2.58,3.66,2.33,.75,4.14,2.28,4.57,4.93Z"/><path class="d" d="M124.65,31.07c-1.51-.84-.72-2.28-.83-3.45-.04-.48,.72-.49,1.17-.47,.73,.03,.62,.56,.5,1.02-.16,.64-.25,1.26,.2,1.83l-1.04,1.07Z"/><path class="c" d="M119.75,25.51c0-.48-.03-1.16,.4-1.09,.93,.15,.79,1.16,1.01,1.83,.1,.29-.1,.9-.42,.83-.8-.18-.93-.93-.99-1.57Z"/></g><line class="g" y1="69.28" x2="100.31" y2="69.28"/><line class="g" x1="140.74" y1="69.28" x2="270.31" y2="69.28"/><line class="g" y1="18.7" x2="98.53" y2="18.7"/><line class="g" x1="149.28" y1="18.7" x2="270.31" y2="18.7"/></svg>