<?xml version="1.0" encoding="UTF-8"?><svg id="a" xmlns="http://www.w3.org/2000/svg" viewBox="0 0 400.71 87.01"><defs><style>.b{fill:#010101;}</style></defs><path class="b" d="M0,85.68V0H35.04c8.96,0,15.52,1.78,19.68,5.34,4.16,3.56,6.32,9.1,6.48,16.62,.16,5.76-1.36,10.54-4.56,14.34-3.2,3.8-7.8,6.38-13.8,7.74v.24c3.6,.48,6.52,1.34,8.76,2.58,2.24,1.24,3.96,2.86,5.16,4.86,1.2,2,2,4.36,2.4,7.08,.4,2.72,.6,5.8,.6,9.24,0,1.2,.04,2.7,.12,4.5,.08,1.8,.2,3.58,.36,5.34,.16,1.76,.36,3.36,.6,4.8,.24,1.44,.56,2.44,.96,3h-2.64c-.4-.88-.72-2.06-.96-3.54-.24-1.48-.42-3.06-.54-4.74-.12-1.68-.2-3.38-.24-5.1-.04-1.72-.06-3.26-.06-4.62,0-3.52-.26-6.66-.78-9.42-.52-2.76-1.58-5.08-3.18-6.96-1.6-1.88-3.88-3.32-6.84-4.32-2.96-1-6.92-1.5-11.88-1.5H2.4v40.2H0ZM34.44,43.08c3.2,0,6.26-.4,9.18-1.2,2.92-.8,5.5-2.08,7.74-3.84,2.24-1.76,4.04-3.98,5.4-6.66,1.36-2.68,2.04-5.9,2.04-9.66-.08-6.08-1.92-10.82-5.52-14.22-3.6-3.4-9.48-5.1-17.64-5.1H2.4V43.08H34.44Z"/><path class="b" d="M69,42.66c1.2-3.88,2.98-7.3,5.34-10.26,2.36-2.96,5.26-5.34,8.7-7.14,3.44-1.8,7.44-2.7,12-2.7s8.44,.9,11.88,2.7c3.44,1.8,6.34,4.18,8.7,7.14,2.36,2.96,4.14,6.38,5.34,10.26,1.2,3.88,1.8,7.94,1.8,12.18s-.6,8.3-1.8,12.18c-1.2,3.88-2.98,7.3-5.34,10.26-2.36,2.96-5.26,5.32-8.7,7.08-3.44,1.76-7.44,2.64-12,2.64s-8.44-.88-11.88-2.64c-3.44-1.76-6.34-4.12-8.7-7.08-2.36-2.96-4.14-6.38-5.34-10.26-1.2-3.88-1.8-7.94-1.8-12.18s.6-8.3,1.8-12.18Zm2.22,23.46c1.08,3.6,2.7,6.78,4.86,9.54,2.16,2.76,4.82,4.96,7.98,6.6,3.16,1.64,6.82,2.46,10.98,2.46s7.7-.82,10.86-2.46c3.16-1.64,5.82-3.84,7.98-6.6,2.16-2.76,3.78-5.94,4.86-9.54,1.08-3.6,1.62-7.36,1.62-11.28s-.54-7.56-1.62-11.16c-1.08-3.6-2.7-6.78-4.86-9.54-2.16-2.76-4.82-4.98-7.98-6.66-3.16-1.68-6.78-2.52-10.86-2.52s-7.82,.84-10.98,2.52c-3.16,1.68-5.82,3.9-7.98,6.66-2.16,2.76-3.78,5.94-4.86,9.54-1.08,3.6-1.62,7.32-1.62,11.16s.54,7.68,1.62,11.28Z"/><path class="b" d="M171.6,24l-22.56,29.76,24.72,31.92h-3l-23.28-30.12-23.16,30.12h-2.88l24.6-31.92-22.44-29.76h3.12l20.76,27.96,21.24-27.96h2.88Z"/><path class="b" d="M180.24,34.98c1.04-2.52,2.54-4.7,4.5-6.54,1.96-1.84,4.36-3.28,7.2-4.32,2.84-1.04,6.18-1.56,10.02-1.56,2.72,0,5.3,.28,7.74,.84,2.44,.56,4.58,1.54,6.42,2.94,1.84,1.4,3.32,3.22,4.44,5.46,1.12,2.24,1.72,5.04,1.8,8.4v39.24c0,1.2,.24,2.08,.72,2.64,.48,.56,1.12,.94,1.92,1.14,.8,.2,1.66,.28,2.58,.24,.92-.04,1.78-.1,2.58-.18v2.4h-3.6c-1.76,0-3.3-.42-4.62-1.26-1.32-.84-1.98-2.42-1.98-4.74v-8.04h-.24c-.64,2-1.66,3.92-3.06,5.76-1.4,1.84-3.16,3.48-5.28,4.92-2.12,1.44-4.54,2.58-7.26,3.42-2.72,.84-5.68,1.26-8.88,1.26-6.24,0-11.24-1.38-15-4.14-3.76-2.76-5.64-6.9-5.64-12.42,0-3.84,.62-6.92,1.86-9.24,1.24-2.32,2.86-4.14,4.86-5.46,2-1.32,4.28-2.24,6.84-2.76,2.56-.52,5.12-.86,7.68-1.02,4.24-.24,7.88-.46,10.92-.66,3.04-.2,5.54-.6,7.5-1.2,1.96-.6,3.4-1.52,4.32-2.76,.92-1.24,1.38-3.02,1.38-5.34,0-1.84-.16-3.76-.48-5.76-.32-2-1.1-3.84-2.34-5.52-1.24-1.68-3.06-3.06-5.46-4.14s-5.64-1.62-9.72-1.62c-6.48,0-11.52,1.58-15.12,4.74-3.6,3.16-5.6,7.62-6,13.38h-2.4c.16-2.88,.76-5.58,1.8-8.1Zm39.48,14.46c-.8,1.12-2.04,1.98-3.72,2.58-1.68,.6-3.6,1.06-5.76,1.38-2.16,.32-4.5,.52-7.02,.6-2.52,.08-4.98,.2-7.38,.36-2.4,.16-4.74,.46-7.02,.9-2.28,.44-4.3,1.24-6.06,2.4-1.76,1.16-3.16,2.76-4.2,4.8-1.04,2.04-1.56,4.7-1.56,7.98,0,1.76,.3,3.5,.9,5.22,.6,1.72,1.62,3.24,3.06,4.56,1.44,1.32,3.3,2.4,5.58,3.24,2.28,.84,5.1,1.26,8.46,1.26,4,0,7.56-.68,10.68-2.04,3.12-1.36,5.74-3.14,7.86-5.34,2.12-2.2,3.72-4.74,4.8-7.62s1.62-5.84,1.62-8.88v-11.4h-.24Z"/><path class="b" d="M238.68,24v15.24h.24c.56-2.4,1.46-4.6,2.7-6.6,1.24-2,2.8-3.76,4.68-5.28,1.88-1.52,4.06-2.7,6.54-3.54,2.48-.84,5.24-1.26,8.28-1.26,3.2,0,6.14,.48,8.82,1.44,2.68,.96,5,2.38,6.96,4.26,1.96,1.88,3.48,4.2,4.56,6.96,1.08,2.76,1.62,5.94,1.62,9.54v40.92h-2.4V45.12c0-3.6-.52-6.66-1.56-9.18-1.04-2.52-2.46-4.6-4.26-6.24-1.8-1.64-3.88-2.84-6.24-3.6-2.36-.76-4.86-1.14-7.5-1.14-3.68,0-6.92,.7-9.72,2.1-2.8,1.4-5.14,3.28-7.02,5.64-1.88,2.36-3.3,5.1-4.26,8.22-.96,3.12-1.44,6.4-1.44,9.84v34.92h-2.4V24h2.4Z"/><path class="b" d="M295.68,24v15.24h.24c.56-2.4,1.46-4.6,2.7-6.6,1.24-2,2.8-3.76,4.68-5.28,1.88-1.52,4.06-2.7,6.54-3.54,2.48-.84,5.24-1.26,8.28-1.26,3.2,0,6.14,.48,8.82,1.44,2.68,.96,5,2.38,6.96,4.26,1.96,1.88,3.48,4.2,4.56,6.96,1.08,2.76,1.62,5.94,1.62,9.54v40.92h-2.4V45.12c0-3.6-.52-6.66-1.56-9.18-1.04-2.52-2.46-4.6-4.26-6.24-1.8-1.64-3.88-2.84-6.24-3.6-2.36-.76-4.86-1.14-7.5-1.14-3.68,0-6.92,.7-9.72,2.1-2.8,1.4-5.14,3.28-7.02,5.64-1.88,2.36-3.3,5.1-4.26,8.22-.96,3.12-1.44,6.4-1.44,9.84v34.92h-2.4V24h2.4Z"/><path class="b" d="M350.58,66.9c.92,3.56,2.34,6.66,4.26,9.3,1.92,2.64,4.4,4.72,7.44,6.24,3.04,1.52,6.76,2.28,11.16,2.28,6.48,0,11.86-1.7,16.14-5.1,4.28-3.4,6.94-8.5,7.98-15.3h2.4c-.88,7.2-3.72,12.78-8.52,16.74s-10.72,5.94-17.76,5.94c-4.8,.08-8.9-.68-12.3-2.28-3.4-1.6-6.18-3.86-8.34-6.78-2.16-2.92-3.76-6.36-4.8-10.32-1.04-3.96-1.56-8.22-1.56-12.78,0-5.12,.76-9.68,2.28-13.68,1.52-4,3.52-7.38,6-10.14,2.48-2.76,5.36-4.86,8.64-6.3,3.28-1.44,6.64-2.16,10.08-2.16,4.8,0,8.94,.92,12.42,2.76,3.48,1.84,6.32,4.28,8.52,7.32,2.2,3.04,3.8,6.52,4.8,10.44,1,3.92,1.42,8,1.26,12.24h-51.6c.08,4.16,.58,8.02,1.5,11.58Zm46.14-24.72c-1.04-3.4-2.58-6.38-4.62-8.94-2.04-2.56-4.58-4.58-7.62-6.06-3.04-1.48-6.56-2.22-10.56-2.22-3.36,0-6.5,.64-9.42,1.92-2.92,1.28-5.48,3.14-7.68,5.58-2.2,2.44-3.98,5.38-5.34,8.82-1.36,3.44-2.16,7.32-2.4,11.64h49.2c0-3.76-.52-7.34-1.56-10.74Z"/></svg>