<?xml version="1.0" encoding="UTF-8"?><svg id="a" xmlns="http://www.w3.org/2000/svg" viewBox="0 0 574.41 75.63"><defs><style>.b{fill:#010101;}</style></defs><path class="b" d="M48.58,8.15c-.91,.03-2.04,.15-3.39,.37-1.35,.21-2.5,.48-3.44,.81-1.11,.39-1.86,1.04-2.25,1.95-.39,.91-.59,1.9-.59,2.98V55.32c0,2.15-.43,4.43-1.29,6.84-.86,2.41-2.12,4.56-3.78,6.45-1.92,2.21-4.21,3.94-6.86,5.18-2.65,1.24-5.69,1.86-9.11,1.86-5.31,0-9.61-1.49-12.92-4.47-3.3-2.98-4.96-6.99-4.96-12.04,0-2.21,.57-4.17,1.71-5.88,1.14-1.71,2.8-2.56,4.98-2.56,1.95,0,3.52,.55,4.71,1.64,1.19,1.09,1.78,2.53,1.78,4.32,0,1.04-.21,2.08-.63,3.12-.42,1.04-.9,1.97-1.42,2.78-.49,.75-1.04,1.63-1.66,2.64-.62,1.01-1.06,1.92-1.32,2.73,.68,1.07,1.75,2.02,3.2,2.83,1.45,.81,3.39,1.22,5.83,1.22s4.32-.54,5.83-1.64c1.51-1.09,2.64-2.55,3.39-4.37,.72-1.69,1.23-3.78,1.54-6.25,.31-2.47,.46-5.24,.46-8.3V14.75c0-1.14-.19-2.09-.56-2.86-.37-.76-1.15-1.44-2.32-2.03-1.01-.52-2.27-.92-3.78-1.2-1.51-.28-2.76-.45-3.74-.51v-3.47h30.57v3.47Z"/><path class="b" d="M95.5,49.41c0,3.39-.54,6.71-1.61,9.99-1.08,3.27-2.61,6.05-4.59,8.33-2.25,2.6-4.86,4.54-7.82,5.81-2.97,1.27-6.29,1.9-9.97,1.9-3.06,0-5.98-.58-8.75-1.73s-5.23-2.84-7.38-5.05c-2.12-2.18-3.8-4.84-5.06-7.98-1.25-3.14-1.88-6.67-1.88-10.57,0-7.52,2.19-13.67,6.57-18.46,4.38-4.79,10.13-7.18,17.23-7.18s12.31,2.27,16.69,6.81c4.38,4.54,6.57,10.59,6.57,18.14Zm-10.11,.1c0-2.44-.25-5.02-.73-7.74-.49-2.72-1.22-5.02-2.2-6.91-1.04-2.02-2.41-3.64-4.11-4.86-1.7-1.22-3.77-1.83-6.21-1.83s-4.66,.62-6.43,1.86c-1.78,1.24-3.22,2.93-4.33,5.08-1.04,1.99-1.78,4.25-2.2,6.79-.42,2.54-.64,5-.64,7.37,0,3.12,.25,6.01,.76,8.67,.51,2.65,1.31,5.02,2.42,7.1,1.11,2.08,2.5,3.72,4.18,4.91,1.68,1.19,3.76,1.78,6.24,1.78,4.08,0,7.31-1.97,9.69-5.91,2.38-3.94,3.57-9.38,3.57-16.31Z"/><path class="b" d="M143.71,62.65c-2.02,3.84-4.72,6.9-8.11,9.18-3.39,2.28-7.28,3.42-11.67,3.42-3.87,0-7.27-.68-10.18-2.05-2.91-1.37-5.31-3.22-7.2-5.57-1.89-2.34-3.3-5.08-4.22-8.2s-1.39-6.43-1.39-9.91c0-3.12,.5-6.19,1.49-9.2,.99-3.01,2.45-5.72,4.37-8.13,1.86-2.31,4.16-4.17,6.91-5.59,2.75-1.42,5.83-2.12,9.25-2.12s6.53,.55,9.03,1.66c2.51,1.11,4.54,2.62,6.1,4.54,1.5,1.82,2.61,3.97,3.34,6.45,.73,2.47,1.1,5.16,1.1,8.06v3.22h-31.88c0,3.17,.3,6.04,.9,8.61,.6,2.58,1.55,4.84,2.86,6.8,1.27,1.89,2.93,3.39,4.98,4.48,2.05,1.09,4.49,1.64,7.32,1.64s5.4-.68,7.5-2.04c2.1-1.36,4.13-3.8,6.08-7.34l3.42,2.1Zm-10.79-18.36c0-1.82-.15-3.76-.46-5.84-.31-2.08-.81-3.81-1.49-5.21-.75-1.49-1.77-2.71-3.08-3.65-1.3-.94-2.98-1.41-5.03-1.41-3.42,0-6.26,1.42-8.52,4.26-2.26,2.84-3.49,6.79-3.69,11.85h22.27Z"/><path class="b" d="M217.78,42.19c1.46,1.63,2.55,3.41,3.25,5.35,.7,1.94,1.05,4.19,1.05,6.76,0,6.12-2.26,11.17-6.79,15.14-4.52,3.97-10.14,5.96-16.85,5.96-3.09,0-6.19-.48-9.28-1.44-3.09-.96-5.76-2.12-8.01-3.49l-2.1,3.56h-3.91l-.68-23.73h3.96c.81,2.93,1.77,5.58,2.86,7.93,1.09,2.36,2.53,4.57,4.32,6.62,1.69,1.92,3.67,3.45,5.93,4.59,2.26,1.14,4.89,1.71,7.89,1.71,2.25,0,4.21-.29,5.88-.88,1.68-.59,3.04-1.42,4.08-2.49,1.04-1.08,1.81-2.34,2.32-3.79,.5-1.45,.76-3.12,.76-5.01,0-2.77-.78-5.35-2.34-7.75s-3.89-4.21-6.98-5.45c-2.12-.84-4.54-1.77-7.28-2.79-2.73-1.02-5.09-1.99-7.08-2.89-3.91-1.76-6.94-4.06-9.11-6.91-2.17-2.85-3.25-6.57-3.25-11.15,0-2.64,.54-5.09,1.61-7.37,1.07-2.28,2.6-4.31,4.59-6.1,1.89-1.69,4.12-3.02,6.69-3.98,2.57-.96,5.26-1.44,8.06-1.44,3.19,0,6.05,.49,8.57,1.46,2.52,.98,4.83,2.12,6.91,3.42l2-3.32h3.91l.39,23h-3.96c-.72-2.64-1.52-5.16-2.42-7.57-.9-2.41-2.06-4.59-3.49-6.54-1.4-1.89-3.11-3.39-5.13-4.52-2.02-1.12-4.49-1.68-7.42-1.68-3.09,0-5.73,.99-7.91,2.98-2.18,1.99-3.27,4.41-3.27,7.28s.7,5.48,2.1,7.45c1.4,1.97,3.43,3.59,6.1,4.86,2.38,1.14,4.71,2.12,7.01,2.95s4.52,1.72,6.67,2.66c1.95,.85,3.83,1.81,5.64,2.88s3.38,2.33,4.71,3.76Z"/><path class="b" d="M249.38,75.24c-6.97,0-12.42-2.31-16.36-6.93-3.94-4.62-5.91-10.82-5.91-18.6,0-3.38,.53-6.55,1.59-9.5,1.06-2.95,2.6-5.62,4.61-8.03,1.92-2.31,4.33-4.17,7.23-5.59,2.9-1.42,6.05-2.12,9.47-2.12,4.72,0,8.56,1.13,11.52,3.39,2.96,2.26,4.44,5.35,4.44,9.25,0,1.63-.39,3.07-1.17,4.32-.78,1.25-2.07,1.88-3.86,1.88-1.92,0-3.41-.49-4.47-1.46-1.06-.97-1.59-2.06-1.59-3.26,0-1.46,.2-2.96,.59-4.5s.62-2.67,.68-3.38c-.58-1.01-1.45-1.68-2.61-2.02-1.15-.34-2.39-.51-3.73-.51-1.56,0-3.04,.33-4.46,1-1.41,.67-2.78,1.9-4.12,3.69-1.2,1.63-2.18,3.83-2.92,6.59-.75,2.77-1.12,6.07-1.12,9.91,0,6.05,1.34,11,4.02,14.82,2.68,3.83,6.2,5.74,10.55,5.74,3.15,0,5.79-.77,7.92-2.31,2.13-1.54,4.1-3.85,5.92-6.92l3.12,2.05c-2.15,3.84-4.98,6.88-8.5,9.13s-7.15,3.37-10.89,3.37Z"/><path class="b" d="M294.29,73.97h-23.24v-3.22c.75-.06,1.52-.13,2.32-.2,.8-.06,1.49-.19,2.08-.39,.91-.29,1.59-.8,2.03-1.54,.44-.73,.66-1.68,.66-2.85v-29.7c0-1.04-.24-1.99-.71-2.85-.47-.86-1.13-1.58-1.98-2.17-.62-.39-1.51-.72-2.69-1s-2.25-.45-3.22-.51v-3.22l16.99-1.07,.68,.68v39.26c0,1.14,.22,2.08,.65,2.83,.44,.75,1.12,1.3,2.06,1.66,.71,.29,1.41,.53,2.08,.71,.68,.18,1.44,.3,2.28,.37v3.22Zm-6.1-67.72c0,1.86-.61,3.48-1.83,4.86-1.22,1.38-2.73,2.08-4.52,2.08-1.66,0-3.1-.66-4.32-1.98s-1.83-2.82-1.83-4.52c0-1.79,.61-3.35,1.83-4.69,1.22-1.33,2.66-2,4.32-2,1.86,0,3.38,.63,4.57,1.88,1.19,1.25,1.78,2.71,1.78,4.37Z"/><path class="b" d="M343.74,73.1c-1.53,.55-2.87,1-4.03,1.34-1.16,.34-2.47,.51-3.93,.51-2.54,0-4.57-.59-6.08-1.78-1.51-1.19-2.48-2.92-2.91-5.2h-.29c-2.12,2.34-4.39,4.13-6.81,5.37-2.43,1.24-5.35,1.86-8.76,1.86-3.61,0-6.58-1.11-8.91-3.32-2.33-2.21-3.49-5.11-3.49-8.69,0-1.86,.26-3.52,.78-4.98,.52-1.46,1.3-2.78,2.34-3.96,.81-.98,1.89-1.85,3.22-2.61,1.33-.76,2.59-1.38,3.76-1.83,1.46-.55,4.43-1.58,8.91-3.08,4.48-1.5,7.5-2.67,9.06-3.52v-4.83c0-.42-.09-1.24-.27-2.44-.18-1.2-.56-2.34-1.15-3.42-.65-1.2-1.57-2.25-2.76-3.15-1.19-.89-2.87-1.34-5.05-1.34-1.5,0-2.89,.25-4.17,.76-1.29,.5-2.19,1.03-2.71,1.59,0,.65,.15,1.61,.46,2.88,.31,1.27,.46,2.44,.46,3.52,0,1.14-.51,2.18-1.54,3.12-1.03,.94-2.45,1.42-4.27,1.42-1.63,0-2.82-.58-3.59-1.73-.76-1.16-1.15-2.45-1.15-3.88s.53-2.93,1.59-4.3,2.43-2.59,4.13-3.66c1.46-.91,3.24-1.68,5.32-2.32s4.12-.95,6.1-.95c2.73,0,5.12,.19,7.15,.56,2.03,.38,3.88,1.18,5.54,2.42,1.66,1.21,2.92,2.84,3.78,4.91,.86,2.07,1.29,4.73,1.29,7.98,0,4.66-.05,8.78-.15,12.38-.1,3.6-.15,7.53-.15,11.79,0,1.27,.22,2.28,.66,3.03,.44,.75,1.11,1.38,2.03,1.9,.49,.29,1.26,.46,2.32,.49,1.06,.03,2.14,.05,3.25,.05v3.12Zm-17.04-25.78c-2.77,.82-5.19,1.62-7.28,2.4-2.08,.78-4.02,1.76-5.81,2.94-1.63,1.11-2.91,2.42-3.86,3.94-.94,1.52-1.42,3.32-1.42,5.41,0,2.71,.71,4.7,2.12,5.97s3.21,1.91,5.4,1.91c2.31,0,4.35-.56,6.1-1.69,1.76-1.12,3.24-2.45,4.44-3.99l.29-16.88Z"/><path class="b" d="M384.87,32.03c0,1.66-.41,3.13-1.22,4.42-.81,1.29-2.07,1.93-3.76,1.93-1.82,0-3.21-.47-4.17-1.42-.96-.94-1.44-1.99-1.44-3.12,0-.72,.06-1.37,.17-1.95,.11-.59,.22-1.17,.32-1.76-1.53,0-3.32,.62-5.37,1.86-2.05,1.24-3.79,3-5.22,5.27v28.03c0,1.14,.22,2.07,.66,2.78,.44,.72,1.13,1.25,2.08,1.61,.81,.33,1.86,.57,3.15,.73,1.29,.16,2.4,.28,3.34,.34v3.22h-25.39v-3.22c.75-.06,1.52-.13,2.32-.2,.8-.06,1.49-.19,2.08-.39,.91-.29,1.59-.8,2.03-1.54,.44-.73,.66-1.68,.66-2.85v-29.7c0-1.01-.24-2-.71-2.97-.47-.97-1.13-1.75-1.98-2.34-.62-.39-1.35-.67-2.2-.85-.85-.18-1.76-.3-2.73-.37v-3.22l16.02-1.07,.68,.68v6.79h.24c2.02-2.64,4.26-4.64,6.74-6.01,2.47-1.37,4.74-2.05,6.79-2.05s3.72,.67,5,2c1.29,1.33,1.93,3.12,1.93,5.37Z"/><path class="b" d="M425.99,32.03c0,1.66-.41,3.13-1.22,4.42-.81,1.29-2.07,1.93-3.76,1.93-1.82,0-3.21-.47-4.17-1.42-.96-.94-1.44-1.99-1.44-3.12,0-.72,.06-1.37,.17-1.95,.11-.59,.22-1.17,.32-1.76-1.53,0-3.32,.62-5.37,1.86-2.05,1.24-3.79,3-5.22,5.27v28.03c0,1.14,.22,2.07,.66,2.78,.44,.72,1.13,1.25,2.08,1.61,.81,.33,1.86,.57,3.15,.73,1.29,.16,2.4,.28,3.34,.34v3.22h-25.39v-3.22c.75-.06,1.52-.13,2.32-.2,.8-.06,1.49-.19,2.08-.39,.91-.29,1.59-.8,2.03-1.54,.44-.73,.66-1.68,.66-2.85v-29.7c0-1.01-.24-2-.71-2.97-.47-.97-1.13-1.75-1.98-2.34-.62-.39-1.35-.67-2.2-.85-.85-.18-1.76-.3-2.73-.37v-3.22l16.02-1.07,.68,.68v6.79h.24c2.02-2.64,4.26-4.64,6.74-6.01,2.47-1.37,4.74-2.05,6.79-2.05s3.72,.67,5,2c1.29,1.33,1.93,3.12,1.93,5.37Z"/><path class="b" d="M474.13,49.41c0,3.39-.54,6.71-1.61,9.99s-2.61,6.05-4.59,8.33c-2.25,2.6-4.86,4.54-7.82,5.81-2.97,1.27-6.29,1.9-9.97,1.9-3.06,0-5.98-.58-8.75-1.73s-5.23-2.84-7.38-5.05c-2.12-2.18-3.8-4.84-5.06-7.98-1.25-3.14-1.88-6.67-1.88-10.57,0-7.52,2.19-13.67,6.57-18.46s10.13-7.18,17.23-7.18,12.31,2.27,16.69,6.81c4.38,4.54,6.57,10.59,6.57,18.14Zm-10.11,.1c0-2.44-.25-5.02-.73-7.74-.49-2.72-1.22-5.02-2.2-6.91-1.04-2.02-2.41-3.64-4.11-4.86-1.7-1.22-3.77-1.83-6.21-1.83s-4.66,.62-6.43,1.86c-1.78,1.24-3.22,2.93-4.33,5.08-1.04,1.99-1.78,4.25-2.2,6.79-.42,2.54-.64,5-.64,7.37,0,3.12,.25,6.01,.76,8.67,.5,2.65,1.31,5.02,2.42,7.1,1.11,2.08,2.5,3.72,4.18,4.91,1.68,1.19,3.76,1.78,6.24,1.78,4.08,0,7.3-1.97,9.69-5.91,2.38-3.94,3.57-9.38,3.57-16.31Z"/><path class="b" d="M529.54,73.97h-23.54v-3.22c.75-.06,1.57-.13,2.47-.2,.89-.06,1.64-.2,2.22-.39,.91-.29,1.59-.81,2.03-1.54s.66-1.68,.66-2.86v-24.76c0-3.42-.81-6.05-2.42-7.91s-3.58-2.78-5.9-2.78c-1.73,0-3.31,.27-4.75,.81s-2.71,1.2-3.82,1.98c-1.08,.75-1.93,1.55-2.57,2.42-.64,.86-1.1,1.55-1.39,2.08v27.69c0,1.11,.23,2.02,.68,2.73,.46,.72,1.14,1.27,2.05,1.66,.68,.33,1.42,.57,2.22,.73,.8,.16,1.62,.28,2.47,.34v3.22h-23.58v-3.22c.75-.06,1.52-.13,2.32-.2,.8-.06,1.49-.19,2.08-.39,.91-.29,1.59-.8,2.03-1.54,.44-.73,.66-1.68,.66-2.85v-29.7c0-1.11-.24-2.12-.71-3.05-.47-.93-1.13-1.68-1.98-2.27-.62-.39-1.35-.67-2.2-.85-.85-.18-1.76-.3-2.73-.37v-3.22l16.02-1.07,.68,.68v6.79h.24c.78-.78,1.76-1.72,2.93-2.81,1.17-1.09,2.28-1.98,3.32-2.66,1.2-.78,2.64-1.43,4.3-1.95,1.66-.52,3.53-.78,5.62-.78,4.62,0,8.05,1.44,10.28,4.32,2.23,2.88,3.34,6.71,3.34,11.5v25.05c0,1.14,.2,2.06,.59,2.76,.39,.7,1.06,1.25,2,1.64,.78,.33,1.46,.55,2.03,.68,.57,.13,1.36,.23,2.37,.29v3.22Z"/><path class="b" d="M574.41,62.65c-2.02,3.84-4.72,6.9-8.11,9.18-3.39,2.28-7.28,3.42-11.67,3.42-3.87,0-7.27-.68-10.18-2.05-2.91-1.37-5.31-3.22-7.2-5.57-1.89-2.34-3.3-5.08-4.22-8.2s-1.39-6.43-1.39-9.91c0-3.12,.5-6.19,1.49-9.2,.99-3.01,2.45-5.72,4.37-8.13,1.86-2.31,4.16-4.17,6.91-5.59,2.75-1.42,5.83-2.12,9.25-2.12s6.53,.55,9.03,1.66c2.51,1.11,4.54,2.62,6.1,4.54,1.5,1.82,2.61,3.97,3.34,6.45,.73,2.47,1.1,5.16,1.1,8.06v3.22h-31.88c0,3.17,.3,6.04,.9,8.61,.6,2.58,1.55,4.84,2.86,6.8,1.27,1.89,2.93,3.39,4.98,4.48,2.05,1.09,4.49,1.64,7.32,1.64s5.4-.68,7.5-2.04c2.1-1.36,4.13-3.8,6.08-7.34l3.42,2.1Zm-10.79-18.36c0-1.82-.16-3.76-.46-5.84-.31-2.08-.81-3.81-1.49-5.21-.75-1.49-1.77-2.71-3.08-3.65-1.3-.94-2.98-1.41-5.03-1.41-3.42,0-6.26,1.42-8.52,4.26-2.26,2.84-3.49,6.79-3.69,11.85h22.27Z"/></svg>