<?xml version="1.0" encoding="UTF-8"?><svg id="a" xmlns="http://www.w3.org/2000/svg" viewBox="0 0 396.66 70.91"><defs><style>.b{fill:#231f20;}</style></defs><g><g><path class="b" d="M34.85,11.39c1.05,.63,1.63,1.16,1.72,1.58l.18,.18c.66,1.08,1.12,2.41,1.41,4.01l.18,.18-.18,.18v.18l.7,.88v.18l-.18,.14,.18,.18v.18l-.18,.18v.18c.21,0,.5,.47,.88,1.41l-.18,.53,.35,.35-.53,1.76v1.72c1.15,1.27,1.72,3.95,1.72,8.05,.23,0,.35,.28,.35,.84v.7l-.18,.18,.7,2.11v1.55c.35,0,.53,.12,.53,.35v1.41c.07,.7,.25,1.05,.53,1.05l-.35,2.07v.18l.88,2.46c0,1.05,.53,2.33,1.58,3.83,.47,.3,.75,.77,.84,1.41h.18c3.49-.42,5.24-.83,5.24-1.23l.53,.35c1.17-.82,3.91-2.16,8.23-4.01,0-.35,.57-.53,1.72-.53,.23-.49,.82-.9,1.76-1.23,0-.35,.23-.53,.7-.53,0-.23,.47-.35,1.41-.35l.35-.35h1.9c1.59-.91,2.59-1.37,2.99-1.37h.67c1.41,.49,2.11,1.12,2.11,1.9-.7,1.85-1.81,3.26-3.3,4.22l-3.16,1.37-.53-.18c0,.35-.75,.65-2.25,.88-.52,.73-1.97,1.31-4.36,1.76-.94,.82-2.11,1.45-3.52,1.9-.91,.68-1.37,1.32-1.37,1.93l.35,.35c0,2.77-1.05,4.91-3.16,6.43l-.53,1.93,.53,.18v.18l-.35,.7,.18,.84-.53,.35h-.53c-1.24-1.27-2.05-1.9-2.43-1.9-.45,.07-.97,.64-1.58,1.72h-.53l-.18-.18h-.18c0,.35-.28,.53-.84,.53l-1.41-1.23h-.88l-.35,1.23,.18,.7c-.19,0-.42,1-.7,2.99h-.35v-.88c.05-.59,.16-.88,.35-.88l-.18-.18v-.7l.18-.18v-.18l-.35-.35v-.35l.35-.53v-.18c-.61-.61-1.02-1.3-1.23-2.07l-.18-.88h-.32l.18-.88h-.18c-.47,0-.82-.87-1.05-2.6l-.18-.18v-.18l.18-.88-.35-.35v-1.02l.7-2.46-2.29-6.79c-.3,0-.54-1-.7-2.99-.52,0-.97-.93-1.37-2.78l-.35-.35,.18-.88v-.7l.18-3.83c-.23,0-.47-.47-.7-1.41l.18-1.72c-.35-4.31-.76-6.47-1.23-6.47v-1.05l-.35-1.93v-1.2l.7-.88c-.59-.26-.88-.84-.88-1.76v-.88l.53-1.37-.53-.18,.18-.88v-.35l.18-4.71,1.41-.53Z"/><path class="b" d="M78.84,17.19l.74,.14h7.03c.73,0,2.12,.34,4.18,1.02,.68,0,2.03,.95,4.04,2.85,.56,1.69,1.04,2.8,1.44,3.34v1.58c.56,.63,.84,1.78,.84,3.45,.26,0,.55,1.05,.88,3.16,.28,0,.42,.09,.42,.28v.28l.14,2.04-.56,1.12,.28,.46v1.16c0,.19-.39,.52-1.16,.98l-.56,2.74,.42,.7v.6l-1.02,1.3v1.72c-.56,1.38-1.04,2.3-1.44,2.74l.18,.56c-.3,.38-.55,1.14-.74,2.29-.23,0-.72,.82-1.44,2.46-1.31,1.31-2.12,2.46-2.43,3.45l-1.9,1.02-.42-.14c0,.38-.57,.7-1.72,.98v.28c.37,0,.56,.09,.56,.28v.18c-.4,.66-1.02,.98-1.86,.98h-.56c-.73-.66-1.45-.98-2.18-.98h-.84l-2-.6c-.49-.28-.74-.56-.74-.84h-.84l-2.18-1.44c-1.03-.61-1.79-1.52-2.29-2.74-.45-.19-.69-.37-.74-.56l.14-.14v-.14c-.3,0-1.41-1.21-3.3-3.62l-.56-.42,.14-.14c-.8-1.64-1.46-3.47-2-5.48l-.14-.14-1.44-3.16c0-.4-.34-1.02-1.02-1.86v-.56l.32-.28-.32-.6c.49-1.71,.74-2.95,.74-3.73v-.74l.42-.42-.14-.14v-.14l.98-3.02c.23-.16,.43-.55,.6-1.16,.54,0,1.11-1.05,1.72-3.16l3.3-4.32c.49-.75,1.41-1.32,2.74-1.72,.66-.68,2.09-1.21,4.29-1.58v-.14Zm6.79,8.47c-.52,1.82-1,3.06-1.37,3.06h0l-.37,.68v.14l-2.14,1.16c0,.26-.25,.5-.74,.74l-3.43-.72c-.4,.28-.93,.42-1.58,.42v-.14l-1.58,.28-.32-.7c-.66,0-.98,.42-.98,1.27-.35,0-.69,1.44-1.02,4.32-.16,0-.26,.91-.28,2.74,.44,2.86,.93,4.64,1.44,5.34,.37,.4,.66,1.07,.84,2,.33,0,.53,.28,.6,.84,.89,0,1.85,.91,2.88,2.74,1.45,1.45,2.93,2.46,4.43,3.02h.6l2.43-.84,.46,.14c0-.16,.28-.41,.84-.74,0-.21,.62-.93,1.86-2.14v-.14l-.14-.42h.14l1.58-1.62v-1.27l.32-.46-.32-.42v-.28c.68-1.41,1.02-2.27,1.02-2.6l-.14-1.86,.42-1.02v-7.77l-.28-.42,.14-.14v-.14c-.19,0-.28-.25-.28-.74-.28-.05-.62-.76-1.02-2.14l-2.88-2.18-.14,.14h-.14l-.84-.14Z"/><path class="b" d="M108.32,17.19l.74,.14h7.03c.73,0,2.12,.34,4.18,1.02,.68,0,2.03,.95,4.04,2.85,.56,1.69,1.04,2.8,1.44,3.34v1.58c.56,.63,.84,1.78,.84,3.45,.26,0,.55,1.05,.88,3.16,.28,0,.42,.09,.42,.28v.28l.14,2.04-.56,1.12,.28,.46v1.16c0,.19-.39,.52-1.16,.98l-.56,2.74,.42,.7v.6l-1.02,1.3v1.72c-.56,1.38-1.04,2.3-1.44,2.74l.18,.56c-.3,.38-.55,1.14-.74,2.29-.23,0-.72,.82-1.44,2.46-1.31,1.31-2.12,2.46-2.43,3.45l-1.9,1.02-.42-.14c0,.38-.57,.7-1.72,.98v.28c.37,0,.56,.09,.56,.28v.18c-.4,.66-1.02,.98-1.86,.98h-.56c-.73-.66-1.45-.98-2.18-.98h-.84l-2-.6c-.49-.28-.74-.56-.74-.84h-.84l-2.18-1.44c-1.03-.61-1.79-1.52-2.29-2.74-.45-.19-.69-.37-.74-.56l.14-.14v-.14c-.3,0-1.41-1.21-3.3-3.62l-.56-.42,.14-.14c-.8-1.64-1.46-3.47-2-5.48l-.14-.14-1.44-3.16c0-.4-.34-1.02-1.02-1.86v-.56l.32-.28-.32-.6c.49-1.71,.74-2.95,.74-3.73v-.74l.42-.42-.14-.14v-.14l.98-3.02c.23-.16,.43-.55,.6-1.16,.54,0,1.11-1.05,1.72-3.16l3.3-4.32c.49-.75,1.41-1.32,2.74-1.72,.66-.68,2.09-1.21,4.29-1.58v-.14Zm6.79,8.47c-.44,1.71-.65,2.7-1.02,2.7l-.38,.54-.34,.51v.14l-2.14,1.16c0,.26-.25,.5-.74,.74l-3.43-.72c-.4,.28-.93,.42-1.58,.42v-.14l-1.58,.28-.32-.7c-.66,0-.98,.42-.98,1.27-.35,0-.69,1.44-1.02,4.32-.16,0-.26,.91-.28,2.74,.44,2.86,.93,4.64,1.44,5.34,.37,.4,.66,1.07,.84,2,.33,0,.53,.28,.6,.84,.89,0,1.85,.91,2.88,2.74,1.45,1.45,2.93,2.46,4.43,3.02h.6l2.43-.84,.46,.14c0-.16,.28-.41,.84-.74,0-.21,.62-.93,1.86-2.14v-.14l-.14-.42h.14l1.58-1.62v-1.27l.32-.46-.32-.42v-.28c.68-1.41,1.02-2.27,1.02-2.6l-.14-1.86,.42-1.02v-7.77l-.28-.42,.14-.14v-.14c-.19,0-.28-.25-.28-.74-.28-.05-.62-.76-1.02-2.14l-2.88-2.18-.14,.14h-.14l-.84-.14Z"/><path class="b" d="M138.38,2.14h.39l.39,.74-.39,.56v1.34l-.39,1.48c0,1.88,.62,2.81,1.86,2.81,5.51,1.2,8.75,2.57,9.74,4.11l4.5,3.55,.18,2.46c-.56,1.62-1.18,2.43-1.86,2.43-2.37-.4-3.55-1.58-3.55-3.55-.63-1.2-3.32-2.51-8.05-3.94l-1.69,.18-.18-.18-.18,.74h-.56v-.56h-.39v.39l.56,.74v.18l-.39,.56,.21,1.69-.39,.39,.18,.18v1.34l-.35,.56v.56c.28,.26,.47,.94,.56,2.04l-.21,2.25,.21,.18-.21,.21h-.18l.39,1.12v2.6l-.21,.18v.21c.66,1.17,1.65,2.11,2.99,2.81l4.89,1.69c1.99,0,4.42,.68,7.28,2.04,2.39,.63,4.21,1.44,5.45,2.43l3.55,2.46c1.78,.98,3.28,2.98,4.5,5.98l.18,1.51v1.48c0,2.41-1.31,3.91-3.94,4.5-1.27,.47-2.51,1.22-3.73,2.25-2.13,.87-4.57,1.3-7.31,1.3,0,.33-3.3,.77-9.91,1.34,0,.23-.32,.35-.95,.35l-1.12-.18-1.86,1.12c-.38,.28-.56,.9-.56,1.86l-.18,.18-.18,.56,.18,.18v.21c-.12,.37-.49,.56-1.12,.56-.4-1.43-1.15-2.37-2.25-2.81l-.56-.21v-.18l.21-.18v-.18c-.28,0-1.16-1-2.64-2.99l-1.51-1.9-.18,.21h-.18c-.84-.16-1.59-.67-2.25-1.51v-.74c.59-1.88,1.02-2.81,1.3-2.81,.59,0,1.21-.69,1.86-2.07v-.18l-.18-.18v-.21c.63,0,.95-.43,.95-1.3l3.34-2.43,.21,.18,2.6-.74v.18l.56-.18v-.18l-.18-.95,.39-.39v-1.12l-.77-2.25,.21-.18h.18l.18,.18v-.18c-.4-1.01-1.96-1.76-4.68-2.25-2.67-1.59-4.23-3.02-4.68-4.29-.35,0-.79-.44-1.3-1.34l.18-.18v-.18c-1.62-2.93-2.43-5.24-2.43-6.93,0-4.1,.56-6.86,1.69-8.26,1.92-3.28,4.79-5.46,8.61-6.54,1.48-.28,2.47-.66,2.99-1.12l-.18-1.12,.35-4.68Zm-2.04,12.55c-1.76,1.36-2.64,2.48-2.64,3.38v8.96c0,.94,.88,1.82,2.64,2.64h.35l.21-.21h.18v.56h.18l.77-1.09-.77-1.9,.21-1.48-.39-1.69,.56-1.34v-.74c-.38-.44-.56-.88-.56-1.3l.18-2.43-.18-1.51,.56-.56-.74-1.12-.56-.18Zm2.43,23.59l-.18,.18v.18c0,.59,.19,1.15,.56,1.69v2.25c-.3,.28-.56,1.35-.77,3.2l-.35,.35v.56l.56,.77c-.38,.49-.63,1.3-.77,2.43,.26,2.11,1.07,3.16,2.43,3.16,1.22,.14,2.23,.46,3.02,.95h.18l.74-.18,.56,.18c1.48-.87,3.48-1.3,6.01-1.3,.28-.37,1.58-.94,3.9-1.69,2.37-.73,3.55-1.6,3.55-2.64l-.18-.91,.18-.95c-.3-1.17-1.92-2.36-4.85-3.55l-.56,.18c-.19-.44-2.37-1.5-6.54-3.16-1.97-1.12-4.46-1.69-7.49-1.69Z"/><path class="b" d="M171.63,17.02h.14c1.05,0,2.21,.52,3.48,1.55,1.43,1.81,2.73,3.25,3.9,4.32,0,.28,.35,.94,1.05,1.97l.91,3.8-.18,.6,.46,3.59-.14,.91,.14,2.14v2.53l-.28,.32,.14,.14v.14l-.6,1.79,.14,.18v.14c-.09,.61-.25,.91-.46,.91l.18,.14v.14l-2.11,3.94c-.16,0-1.07,1-2.71,2.99l-.14,.18c0,.4-.56,.6-1.69,.6l-1.05,.14c-.35,.42-.66,.63-.91,.63l-1.05-.18-.14,.46c.68,2.67,1.84,4.58,3.48,5.73,.94,.8,1.59,1.2,1.97,1.2,.3,0,.6,.25,.88,.74,1.22,0,2.43-.65,3.62-1.93,.54-.14,1.2-.74,1.97-1.79,.49,0,.9-.26,1.23-.77l.6-.28h.14c.09,.16,1,.46,2.71,.88l.14,.18v.6c0,.47-.25,.87-.74,1.2,0,.63-.46,1.32-1.37,2.07,0,.37-.2,.77-.6,1.2l.14,.46c-.23,0-.38,.35-.42,1.05-.73,1.38-1.34,2.24-1.83,2.57-1.31,1.29-2.62,1.99-3.94,2.11l-.14,.18-3.76-1.97c0-.21-1.16-1.32-3.48-3.34,0-.52-1.25-2-3.76-4.46l-2.39-3.9c-.82-3.07-2.03-5.74-3.62-8.02-.44-.49-.75-1.55-.91-3.16,.05-.23,.5-.79,1.37-1.65l.28,.28,.6-.14,.32,.32v-.18l-.32-1.65,.32-.28-.18-.91,.18-.74-.32-.91v-.28l1.05-4.54-.46-1.97c.3,0,.71-1.56,1.23-4.68,1.78-4.83,4.09-7.24,6.93-7.24Zm-3.9,12.38v2.25l-.6,3.94c.19,1.12,.28,3.07,.28,5.84v1.23c.12,1.12,.52,1.69,1.2,1.69l.77,.28h1.65c.23-.35,1.44-.86,3.62-1.51l.46,.18c.33-.94,.73-1.7,1.2-2.29,.4-.63,.6-1.18,.6-1.65,.21,0,.36-.66,.46-1.97h.14l-.14-.14v-2.57l.28-.46-.28-.32,.14-.14-.14-.14v-1.23c0-3.94-1.42-6.55-4.25-7.84l-.88-.28c-.68,0-1.28,.55-1.79,1.65-.75,.91-1.25,1.37-1.51,1.37,0,.56-.4,1.27-1.2,2.11Z"/><path class="b" d="M206.09,11.39c1.05,.63,1.63,1.16,1.72,1.58l.18,.18c.66,1.08,1.12,2.41,1.41,4.01l.18,.18-.18,.18v.18l.7,.88v.18l-.18,.14,.18,.18v.18l-.18,.18v.18c.21,0,.5,.47,.88,1.41l-.18,.53,.35,.35-.53,1.76v1.72c1.15,1.27,1.72,3.95,1.72,8.05,.23,0,.35,.28,.35,.84v.7l-.18,.18,.7,2.11v1.55c.35,0,.53,.12,.53,.35v1.41c.07,.7,.25,1.05,.53,1.05l-.35,2.07v.18l.88,2.46c0,1.05,.53,2.33,1.58,3.83,.47,.3,.75,.77,.84,1.41h.18c3.49-.42,5.24-.83,5.24-1.23l.53,.35c1.17-.82,3.91-2.16,8.23-4.01,0-.35,.57-.53,1.72-.53,.23-.49,.82-.9,1.76-1.23,0-.35,.23-.53,.7-.53,0-.23,.47-.35,1.41-.35l.35-.35h1.9c1.59-.91,2.59-1.37,2.99-1.37h.67c1.41,.49,2.11,1.12,2.11,1.9-.7,1.85-1.8,3.26-3.3,4.22l-3.16,1.37-.53-.18c0,.35-.75,.65-2.25,.88-.52,.73-1.97,1.31-4.36,1.76-.94,.82-2.11,1.45-3.52,1.9-.91,.68-1.37,1.32-1.37,1.93l.35,.35c0,2.77-1.05,4.91-3.16,6.43l-.53,1.93,.53,.18v.18l-.35,.7,.18,.84-.53,.35h-.53c-1.24-1.27-2.05-1.9-2.43-1.9-.45,.07-.97,.64-1.58,1.72h-.53l-.18-.18h-.18c0,.35-.28,.53-.84,.53l-1.41-1.23h-.88l-.35,1.23,.18,.7c-.19,0-.42,1-.7,2.99h-.35v-.88c.05-.59,.16-.88,.35-.88l-.18-.18v-.7l.18-.18v-.18l-.35-.35v-.35l.35-.53v-.18c-.61-.61-1.02-1.3-1.23-2.07l-.18-.88h-.32l.18-.88h-.18c-.47,0-.82-.87-1.05-2.6l-.18-.18v-.18l.18-.88-.35-.35v-1.02l.7-2.46-2.29-6.79c-.3,0-.54-1-.7-2.99-.52,0-.97-.93-1.37-2.78l-.35-.35,.18-.88v-.7l.18-3.83c-.23,0-.47-.47-.7-1.41l.18-1.72c-.35-4.31-.76-6.47-1.23-6.47v-1.05l-.35-1.93v-1.2l.7-.88c-.59-.26-.88-.84-.88-1.76v-.88l.53-1.37-.53-.18,.18-.88v-.35l.18-4.71,1.41-.53Z"/><path class="b" d="M248.88,13.29h.53l.35,.35,.74-.18c2.23,.28,3.59,.69,4.08,1.23,.82,0,1.72,.9,2.71,2.71v.14l-.18,.56c.98,1.12,1.76,3.39,2.32,6.79l.32,.7-.14,.18,1.05,8.93,1.62,3.94c.45,1.5,1.58,3.53,3.41,6.08,.7,2.11,1.77,3.83,3.2,5.17,.14,.61,1.21,1.92,3.2,3.94,0,.4,.71,1.41,2.14,3.02,3.19,1.5,4.92,2.57,5.2,3.2l.88,3.02v.74c-.47,.42-.7,.96-.7,1.62-.82,.33-1.72,.97-2.71,1.93-2.53,0-4.96-1.78-7.28-5.34,0-.8-.96-2.34-2.88-4.64-2.39-2.95-4.59-6.03-6.61-9.25-.66-.23-1.31-1.14-1.97-2.71-.21,0-.63-.6-1.27-1.79l-.88-.14h-.53l-2.5,.88h-.39l-2.11-.21c0,.21-.66,.46-1.97,.74,0,.19-.48,.49-1.44,.91-.68,.56-1.86,2.7-3.55,6.4-2.13,2.77-3.33,4.56-3.59,5.38-.49,0-.9,.57-1.23,1.72-.68,.33-1.45,1.46-2.32,3.41-.23,.12-.76,1.12-1.58,3.02-.44,0-.81,.54-1.09,1.62-.19,0-.48,.42-.88,1.27l-1.27,.35c-1.69,0-2.65-1.02-2.88-3.06v-.88c.56-.96,1.46-2.03,2.71-3.2,.33-1.05,1.17-2.06,2.53-3.02,.94-2.62,2.23-5.31,3.87-8.05,.38-.96,.68-2.39,.91-4.29l.88-1.23v-1.09c.59-3.4,1.61-7.56,3.06-12.48,.45-.84,.74-2.1,.88-3.76,1.31-1.5,1.97-3.46,1.97-5.87,.38,0,.67-.84,.88-2.53l.18-.88,.18-.18h.21l-.21-.18v-.18l1.23-4.11,.91-.7Zm-2.71,24.08v.88l.53,.53c.4-.35,2.72-1.12,6.96-2.32,.26-.47,.62-.7,1.09-.7l-.21-.18,.21-.91v-1.58c-.47-2.39-1.01-3.59-1.62-3.59h-3.23c-.94,.52-1.77,2.06-2.5,4.64l-1.23,3.23Z"/><path class="b" d="M278.89,0h.21V.6c0,1.9,.27,3.18,.81,3.83l-.21,.98,.21,.81-.81,3.2c0,.45,.2,.91,.6,1.41-.26,2.41-.6,3.62-1.02,3.62v.39c0,.21,1.75,1.08,5.24,2.6l1.41,1.23,.6-.21c2.91,1.62,5.18,2.68,6.82,3.2l8.02,5.03c.38,0,.98,.74,1.83,2.21l.6,2.39c0,.45-.74,.79-2.21,1.02l-.21,.21h-.98l-1.79-.63c0,.42-.14,.63-.42,.63l-.21-.21-1.41-1.02c-1.2-2.06-3.06-3.53-5.59-4.39-1.12-1.36-3.14-2.57-6.05-3.62-.28-.4-.61-.6-.98-.6l-.6,.21c0-.19-.67-.46-2-.81l-.42-.42h-.39l-.6,1.02v11.21l-.21,.81,.21,.81v4.82l.18,3.2-.18,.63,1.58,3.2c.98,1.05,1.79,1.58,2.43,1.58l2.99,2.21c0,.42,.61,1.03,1.83,1.83,3.02,1.99,6.04,2.99,9.04,2.99h.81l1.2-2.81-.42-2.6,.21-.6c-.14-1.62-1.35-4.36-3.62-8.23v-.6c.77-.8,1.78-1.2,3.02-1.2,0,.3,1.27,.77,3.8,1.41l1.83,4.82c1.34,2.55,2,4.22,2,4.99s.2,1.44,.6,2v2.81c-1.62,3.61-3.49,5.41-5.62,5.41h-.81l-2.81,.21c-5.02,0-10.7-2.4-17.05-7.21v-.21c-.4,.07-.6,.61-.6,1.62v1.2l-.39,.6v1.97l-.42,.42h-.21v-1.2l.21-3.8-.6-1.02,.21-.21v-.18c-.26-.02-1-.89-2.21-2.6-3.94-3.8-6.08-6.54-6.43-8.23-2.13-2.44-3.47-5.05-4.01-7.84l-.6,.21c-1.34-1.48-2-3.08-2-4.82-.54-.73-.81-1.34-.81-1.83v-4.61l1.02-4.82c.23,0,.56-.54,.98-1.62l1.79-2c.82-.49,2.77-.89,5.84-1.2h.81l.6,.42h2.81l.98,.18c.09-.8,.36-1.2,.81-1.2l-.18-2h-.42v1.02l-.39,.39-.42-3.62c.45,0,.86-1.07,1.23-3.2l-1.83-3.83,.42-.39h.18c.28,0,.42,.4,.42,1.2,.66,.26,.98,.67,.98,1.23h.42l.18-1.02v-.81c0-.44-.2-.91-.6-1.41,.33-.8,.6-1.2,.81-1.2Zm-6.82,19.86c-2.13,2.11-3.2,3.64-3.2,4.61,1.15,5.37,2.09,8.05,2.81,8.05,.56,3.45,1.9,6.45,4.01,9,1.52,1.34,2.52,2,2.99,2v-.18l.21-.81v-6.82h-.6l.21-.21v-.21l-.6-.6c0-.23,.33-.43,.98-.6v-.39l-.81-1.2v-.21l.42-.42-.21-.18v-.21l.21-.21-.21-.18,.21-1.41v-.21l-.42-.81c.09-1.88,.29-2.81,.6-2.81-.26-3.87-1.05-5.8-2.39-5.8h-1.2l-3.02-.21Zm7.63,40.32l.39,.39-.18,1.02h-.21l-.39-.42v-.6l.39-.39Z"/><path class="b" d="M313.42,18.02h.14c1.05,0,2.21,.52,3.48,1.55,1.43,1.81,2.73,3.25,3.9,4.32,0,.28,.35,.94,1.05,1.97l.91,3.8-.18,.6,.46,3.59-.14,.91,.14,2.14v2.53l-.28,.32,.14,.14v.14l-.6,1.79,.14,.18v.14c-.09,.61-.25,.91-.46,.91l.18,.14v.14l-2.11,3.94c-.16,0-1.07,1-2.71,2.99l-.14,.18c0,.4-.56,.6-1.69,.6l-1.05,.14c-.35,.42-.66,.63-.91,.63l-1.05-.18-.14,.46c.68,2.67,1.84,4.58,3.48,5.73,.94,.8,1.59,1.2,1.97,1.2,.3,0,.6,.25,.88,.74,1.22,0,2.43-.65,3.62-1.93,.54-.14,1.2-.74,1.97-1.79,.49,0,.9-.26,1.23-.77l.6-.28h.14c.09,.16,1,.46,2.71,.88l.14,.18v.6c0,.47-.25,.87-.74,1.2,0,.63-.46,1.32-1.37,2.07,0,.37-.2,.77-.6,1.2l.14,.46c-.23,0-.38,.35-.42,1.05-.73,1.38-1.34,2.24-1.83,2.57-1.31,1.29-2.62,1.99-3.94,2.11l-.14,.18-3.76-1.97c0-.21-1.16-1.32-3.48-3.34,0-.52-1.25-2-3.76-4.46l-2.39-3.9c-.82-3.07-2.03-5.74-3.62-8.02-.45-.49-.75-1.55-.91-3.16,.05-.23,.5-.79,1.37-1.65l.28,.28,.6-.14,.32,.32v-.18l-.32-1.65,.32-.28-.18-.91,.18-.74-.32-.91v-.28l1.05-4.54-.46-1.97c.3,0,.71-1.56,1.23-4.68,1.78-4.83,4.09-7.24,6.93-7.24Zm-3.9,12.38v2.25l-.6,3.94c.19,1.12,.28,3.07,.28,5.84v1.23c.12,1.12,.52,1.69,1.2,1.69l.77,.28h1.65c.23-.35,1.44-.86,3.62-1.51l.46,.18c.33-.94,.73-1.7,1.2-2.29,.4-.63,.6-1.18,.6-1.65,.21,0,.36-.66,.46-1.97h.14l-.14-.14v-2.57l.28-.46-.28-.32,.14-.14-.14-.14v-1.23c0-3.94-1.42-6.55-4.25-7.84l-.88-.28c-.68,0-1.28,.55-1.79,1.65-.75,.91-1.25,1.37-1.51,1.37,0,.56-.4,1.27-1.2,2.11Z"/><path class="b" d="M338.91,3.14h.39l.39,.74-.39,.56v1.34l-.39,1.48c0,1.88,.62,2.81,1.86,2.81,5.51,1.2,8.75,2.57,9.74,4.11l4.5,3.55,.18,2.46c-.56,1.62-1.18,2.43-1.86,2.43-2.37-.4-3.55-1.58-3.55-3.55-.63-1.2-3.32-2.51-8.05-3.94l-1.69,.18-.18-.18-.18,.74h-.56v-.56h-.39v.39l.56,.74v.18l-.39,.56,.21,1.69-.39,.39,.18,.18v1.34l-.35,.56v.56c.28,.26,.47,.94,.56,2.04l-.21,2.25,.21,.18-.21,.21h-.18l.39,1.12v2.6l-.21,.18v.21c.66,1.17,1.65,2.11,2.99,2.81l4.89,1.69c1.99,0,4.42,.68,7.28,2.04,2.39,.63,4.21,1.44,5.45,2.43l3.55,2.46c1.78,.98,3.28,2.98,4.5,5.98l.18,1.51v1.48c0,2.41-1.31,3.91-3.94,4.5-1.27,.47-2.51,1.22-3.73,2.25-2.13,.87-4.57,1.3-7.31,1.3,0,.33-3.3,.77-9.91,1.34,0,.23-.32,.35-.95,.35l-1.12-.18-1.86,1.12c-.38,.28-.56,.9-.56,1.86l-.18,.18-.18,.56,.18,.18v.21c-.12,.37-.49,.56-1.12,.56-.4-1.43-1.15-2.37-2.25-2.81l-.56-.21v-.18l.21-.18v-.18c-.28,0-1.16-1-2.64-2.99l-1.51-1.9-.18,.21h-.18c-.84-.16-1.59-.67-2.25-1.51v-.74c.59-1.88,1.02-2.81,1.3-2.81,.59,0,1.21-.69,1.86-2.07v-.18l-.18-.18v-.21c.63,0,.95-.43,.95-1.3l3.34-2.43,.21,.18,2.6-.74v.18l.56-.18v-.18l-.18-.95,.39-.39v-1.12l-.77-2.25,.21-.18h.18l.18,.18v-.18c-.4-1.01-1.96-1.76-4.68-2.25-2.67-1.59-4.23-3.02-4.68-4.29-.35,0-.79-.44-1.3-1.34l.18-.18v-.18c-1.62-2.93-2.43-5.24-2.43-6.93,0-4.1,.56-6.86,1.69-8.26,1.92-3.28,4.79-5.46,8.61-6.54,1.48-.28,2.47-.66,2.99-1.12l-.18-1.12,.35-4.68Zm-2.04,12.55c-1.76,1.36-2.64,2.48-2.64,3.38v8.96c0,.94,.88,1.82,2.64,2.64h.35l.21-.21h.18v.56h.18l.77-1.09-.77-1.9,.21-1.48-.39-1.69,.56-1.34v-.74c-.38-.44-.56-.88-.56-1.3l.18-2.43-.18-1.51,.56-.56-.74-1.12-.56-.18Zm2.43,23.59l-.18,.18v.18c0,.59,.19,1.15,.56,1.69v2.25c-.3,.28-.56,1.35-.77,3.2l-.35,.35v.56l.56,.77c-.38,.49-.63,1.3-.77,2.43,.26,2.11,1.07,3.16,2.43,3.16,1.22,.14,2.23,.46,3.02,.95h.18l.74-.18,.56,.18c1.48-.87,3.48-1.3,6.01-1.3,.28-.37,1.58-.94,3.9-1.69,2.37-.73,3.55-1.6,3.55-2.64l-.18-.91,.18-.95c-.3-1.17-1.92-2.36-4.85-3.55l-.56,.18c-.19-.44-2.37-1.5-6.54-3.16-1.97-1.12-4.46-1.69-7.49-1.69Z"/></g><g><path class="b" d="M68.17,26.99c-.06,.06-.11,.05-.16-.04-.02-.08,0-.14,.09-.16,.05,0,.08,.02,.1,.07s0,.09-.03,.13Zm6.25,1.8c.08-.05,.14-.07,.16-.05,.02,.01,.04,.06,.04,.14,0,.13-.05,.22-.14,.25-.05,.02-.08,.01-.11-.04-.08-.14-.07-.25,.05-.31Zm.05-.25h-.04s-.07-.02-.07-.05c0-.05,.02-.1,.07-.15,.05-.05,.09-.08,.13-.08,.02,0,.04,.03,.04,.09,0,.11-.04,.17-.13,.2Zm.18-1.75c-.1,0-.14-.07-.14-.22,0-.11,.03-.16,.09-.16,.02,0,.07,.03,.13,.09,.05,.06,.06,.12,.04,.19-.02,.07-.06,.1-.12,.1Zm.09,.86c-.01-.06,0-.1,.03-.12,.03-.02,.09-.03,.17-.03,.26,0,.34,.07,.22,.22-.06,.07-.14,.1-.24,.08s-.16-.07-.17-.15Zm2.21-3.78c.07,0,.17-.04,.28-.13,.11-.08,.21-.13,.3-.13s.14-.01,.15-.04c.02-.02,.03-.08,.03-.18,0-.11,0-.17,.03-.19s.07-.03,.17-.03c.06,0,.11,0,.15,.03,.04,.02,.07,.03,.08,.04s.03,0,.05,0c.02-.02,.05-.06,.09-.14,.14-.25,.26-.28,.34-.07,.05,.1,.09,.14,.13,.14s.11-.1,.23-.31l.09,.13c.05,.08,.13,.13,.23,.14,.11,0,.17-.03,.2-.1,.01-.06,.13-.08,.34-.07,.07,0,.15,0,.23-.02,.08-.01,.14-.02,.16-.02,.07,0,.14,.02,.2,.07,.1,.07,.11,.14,.05,.2-.05,.05-.06,.1-.04,.15,.02,.05,.08,.08,.16,.08,.07,0,.12,.02,.14,.05,.02,.05,.12,.12,.29,.22,.16,.1,.32,.13,.49,.09,.11-.02,.19-.04,.23-.04,.05,0,.09,0,.13,0,.04,0,.05,.02,.04,.04,0,.02,0,.05,0,.09-.02,.11,.01,.17,.11,.2,.1,.02,.13,.1,.11,.22-.02,.11-.02,.16,.02,.16,.02,0,.1-.03,.23-.09,.05-.01,.09-.02,.14-.03,.04,0,.08,0,.12,0,.04,.01,.06,.02,.07,.03,.01,0,.04,.03,.08,.06,.04,.04,.07,.06,.08,.07l-.25,.16c-.18,.11-.25,.19-.2,.23,.04,.04,.1,.02,.18-.05,.08-.08,.19-.09,.32-.02,.11,.05,.23,.13,.38,.25,.14,.12,.22,.2,.22,.23s-.05,.05-.14,.05c-.06,0-.11,.02-.14,.05-.04,.04-.07,.09-.11,.15-.04,.07-.07,.11-.09,.14l-.11,.13,.32,.14c.23,.1,.34,.19,.34,.27,0,.1,.02,.08,.07-.05,.02-.05,.06-.08,.1-.11s.08-.03,.11,0c.03,.02,.05,.06,.05,.14,0,.1-.06,.26-.19,.5-.13,.24-.21,.38-.26,.43-.07,.08-.07,.15,.02,.2,.06,.06,.13,.09,.22,.09,.06,0,.17,.04,.33,.12,.16,.08,.25,.12,.28,.14,.11,0,.16,.05,.16,.16,0,.07-.04,.11-.13,.11-.1,0-.2-.04-.32-.11l-.27-.14c-.17,.17-.25,.34-.25,.5s-.05,.25-.14,.25c-.11,0-.18-.06-.22-.18-.02-.06-.05-.1-.07-.13-.02-.02-.04-.02-.06,0-.02,.02-.03,.07-.03,.13,0,.2,.13,.31,.4,.31,.12,0,.2,.05,.23,.14,.06,.24,.01,.37-.14,.4-.08,.01-.13,.04-.13,.07,0,.07,.14,.14,.43,.2,.11,.02,.16,.05,.16,.09-.01,.05-.08,.07-.22,.07l-.16,.04h.02c.06,.02,.08,.06,.07,.12-.01,.05-.05,.08-.13,.08-.08,0-.17,.02-.24,.07-.08,.05-.12,.1-.12,.14s.02,.04,.05-.02c.01-.06,.05-.07,.13-.03s.13,.04,.16,0c.07-.07,.13-.07,.16,.02,.05,.11,.02,.16-.07,.14h-.04s-.08,0-.14,.04c-.06,.04-.11,.04-.16,0-.06-.01-.09,.03-.09,.13,0,.26-.09,.4-.27,.4-.02,0-.06-.01-.11-.04-.01-.01-.04-.02-.07-.02-.07,0-.16,.11-.25,.33-.1,.22-.18,.36-.25,.41-.07,.06-.09,.15-.05,.27v.05l.02,.04c0,.11-.05,.16-.14,.16-.12,0-.2-.08-.25-.23-.02-.07-.05-.08-.09-.02-.04,.07-.02,.13,.04,.18,.08,.07,.13,.14,.13,.2,0,.12-.18,.18-.54,.18-.18,0-.27-.01-.27-.04,0-.06-.06-.13-.18-.21-.12-.08-.26-.13-.41-.15-.08-.02-.2-.04-.34-.04-.18,0-.27,.03-.27,.09,0,.02,0,.05,0,.08,0,.03,0,.05,0,.06,0,.05-.01,.07-.04,.07-.04,0-.09-.03-.17-.08-.08-.05-.15-.11-.21-.17l-.09-.07s-.08,.15-.13,.45c-.05,.3-.12,.49-.22,.58-.08,.07-.16,.11-.22,.11-.07,0-.19-.06-.36-.18l-.27-.2,.14-.11c.07-.05,.12-.07,.14-.06,.02,0,.06,.04,.13,.12,.08,.11,.16,.14,.23,.11,.07-.04,.08-.08,.04-.13-.05-.06-.06-.15-.04-.27s0-.18-.05-.18-.09,.04-.09,.13c0,.1-.07,.11-.22,.04-.02-.01-.04-.02-.05-.02h-.02c-.13,0-.23,.16-.29,.49l-.05,.22-.2-.14c-.19-.11-.32-.16-.4-.16-.13,0-.2-.02-.2-.05,0-.05,.04-.11,.13-.2s.18-.15,.29-.2c.22-.1,.27-.16,.16-.18l-.23,.02c-.17,.02-.25,.01-.25-.04v-.07c.01-.17,0-.26-.02-.27l-.11,.05c-.06,.06-.1,.08-.12,.07-.02-.01-.04-.06-.08-.14s-.06-.13-.07-.14c-.01-.01-.04,.01-.09,.07-.06,.08-.16,.1-.29,.05-.22-.07-.26-.17-.14-.29,.04-.04,.02-.1-.06-.21-.08-.1-.12-.16-.12-.17,0-.08-.05-.09-.16-.02-.02,.02-.05,.05-.07,.07-.1,.12-.2,.16-.31,.13-.02-.01-.04-.04-.04-.07,0-.06,.05-.15,.14-.27,.1-.12,.17-.18,.23-.18h.02c.06,.02,.14-.01,.23-.11l.14-.14-.25,.02c-.12,.02-.19,.03-.22,.02-.02-.01-.04-.05-.04-.13,0-.11-.04-.17-.13-.2-.17-.06-.21-.19-.13-.4,.04-.06,.04-.1,0-.13-.03-.03-.07-.03-.13,0-.02,.01-.05,0-.09-.05-.04-.04-.08-.11-.13-.21l-.14-.25,.16-.29c.08-.13,.13-.21,.13-.24s-.03-.06-.09-.1c-.05-.02-.08-.03-.1-.03s-.03,.05-.03,.13-.03,.17-.09,.27c-.06,.1-.12,.14-.18,.14h-.04s-.07-.1-.07-.18c0-.26,.07-.4,.2-.4,.07,0,.11-.02,.11-.07,0-.04,.05-.07,.16-.09,.08-.01,.16-.06,.23-.15,.07-.09,.09-.16,.06-.22-.01-.02,0-.09,.04-.2,.05-.16,.04-.23-.02-.23-.01,0-.04,0-.07,.02-.06,.02-.09,.1-.09,.22,0,.13-.04,.2-.11,.2s-.14-.08-.22-.25c-.06-.14-.09-.26-.09-.34,0-.06-.05-.1-.14-.13-.06-.02-.09-.06-.09-.11,0-.13,.07-.2,.2-.2,.06,0,.11,.02,.14,.07,.07,.1,.14,.13,.2,.11,.12-.04,.11-.1-.02-.2-.06-.05-.09-.09-.09-.12s.04-.1,.13-.21l.18-.23,.13,.16c.11,.12,.17,.16,.18,.13,.01-.01,0-.05-.04-.11-.05-.1-.06-.19-.04-.27,.01-.05,.02-.08,.02-.09s0-.02-.03-.03c-.02,0-.05,0-.1,0-.08,.02-.13,.02-.13,0,0-.01,0-.04,.02-.07,.07-.18,.16-.27,.27-.27,.06,0,.09,0,.08,0,0,0-.04-.04-.1-.1-.1-.08-.12-.21-.07-.38,.04-.11,.07-.17,.1-.2,.03-.02,.09-.04,.19-.04,.14,0,.22-.05,.22-.16,0-.1,.03-.14,.09-.14s.1,.04,.13,.13c.04,.12,.06,.11,.07-.04,.02-.2,.1-.31,.23-.31,.06,0,.11,.03,.16,.09l.11,.14c-.07-.2-.14-.36-.22-.47-.06-.08-.09-.14-.08-.17,0-.03,.06-.04,.15-.04Zm-1.91,5.9c.1-.05,.19-.07,.3-.05,.1,.01,.16,.05,.17,.11,.01,.05,0,.08-.04,.09-.04,.01-.12,.02-.25,.02-.24,0-.34-.02-.31-.07,.02-.02,.07-.05,.13-.09Zm-.02-3.33c0-.11,.04-.12,.13-.04,.09,.08,.08,.13-.03,.13-.07,0-.11-.03-.11-.09Zm.27-.58c.04-.1,.07-.11,.11-.04,.01,.02,.02,.05,.02,.09,0,.06-.02,.11-.06,.16s-.09,.07-.15,.07c-.1,0-.15-.07-.16-.2-.01-.08-.01-.13,0-.14s.04,.01,.09,.07c.05,.04,.08,.06,.09,.07s.02,.01,.04,0,.02-.04,.04-.09Zm-.14,5.04c0-.07,.02-.11,.05-.11,.05,0,.07,.04,.07,.11,0,.08-.02,.13-.07,.13-.04,0-.05-.04-.05-.13Zm.25-.47c.06-.06,.11-.02,.16,.11,.05,.11,.06,.18,.04,.21-.02,.03-.07,.02-.15-.03-.16-.07-.17-.17-.05-.29Zm.18-5.38c0,.1-.04,.1-.14,.02-.09-.08-.08-.13,.03-.13,.07,0,.11,.04,.11,.11Zm.05,6.14c.14,.24,.16,.4,.05,.47h-.02s-.09-.07-.16-.22c-.07-.14-.11-.26-.11-.34,0-.19,.07-.18,.2,.04l.04,.05Zm.31-7.94c0-.08,.04-.13,.13-.13,.07,0,.11,.04,.11,.13s-.04,.13-.11,.13c-.08,0-.13-.04-.13-.13Zm.18,8.64l-.14-.13h.16c.08,0,.15,.02,.19,.05,.04,.04,.04,.08,0,.13-.04,.04-.1,.02-.2-.05Zm-.13-7.78c0-.06,.04-.07,.13-.02,.08,.05,.13,.13,.13,.23l-.02,.16c-.16-.19-.23-.32-.23-.38Zm.22,7.24c.04-.07,.07-.07,.09,.02,.08,.18,.08,.27,0,.27-.05,0-.08-.03-.1-.1-.02-.07-.02-.13,0-.19Zm.14,.7c.07-.04,.13-.05,.16-.05,.06,0,.09,.03,.09,.09,0,.07-.02,.16-.07,.25-.04,.08-.08,.13-.13,.13-.07,0-.11-.09-.11-.27,0-.07,.02-.12,.05-.14Zm.11-10.53s.08-.05,.13-.04c.05,.01,.07,.04,.07,.09,0,.06-.02,.09-.07,.09s-.09-.02-.12-.05c-.03-.04-.03-.07,0-.09Zm.02,10.24c0-.12,.08-.15,.25-.09,.04,.01,.06,.03,.07,.05,0,.02-.03,.04-.08,.05-.05,.01-.11,.02-.16,.02s-.08-.01-.08-.04Zm.18-8.33c0-.12,.03-.18,.09-.18,.07,0,.11,.04,.11,.11,0,.08-.04,.15-.11,.2-.06,.01-.09-.03-.09-.13Zm.07,10.31c-.02-.07,0-.11,.09-.11,.07,0,.1,.04,.07,.11,0,.04-.02,.06-.04,.08-.03,.02-.06,.02-.08,0-.02-.02-.04-.04-.04-.08Zm.4-1.1c.12-.02,.19-.03,.23-.02,.03,.01,.06,.07,.08,.16,.02,.12,.1,.18,.23,.18,.23,0,.34,.08,.34,.25,0,.11-.14,.16-.43,.16-.11,0-.17-.02-.18-.05-.02-.05-.07-.03-.13,.04-.07,.08-.12,.09-.17,.03-.04-.06-.04-.14,0-.23,.02-.07,.03-.12,0-.13s-.04-.02-.08,0c-.04,.01-.07,.01-.11,0-.04-.01-.05-.05-.05-.11,0-.14,.09-.23,.27-.27Zm.04-9.29c-.01-.07-.02-.11,0-.11s.03,.03,.08,.09c.1,.14,.1,.21,.02,.2-.04-.02-.07-.08-.09-.18Zm.27-.88c.07-.25,.12-.38,.14-.38s.06,.1,.11,.31c.05,.2,.07,.35,.07,.45s-.03,.15-.09,.17c-.06,.02-.13,0-.22-.06-.06-.05-.09-.09-.1-.13,0-.04,.02-.16,.08-.35Zm.38,11.47s-.04-.08-.02-.13c.02-.05,.08-.05,.18-.02,.07,.02,.1,.06,.1,.12,0,.05-.04,.08-.12,.08-.06,0-.11-.02-.14-.05Zm.31-.92c0-.07,.02-.11,.07-.11,.04,0,.05,.04,.05,.11,0,.08-.02,.13-.05,.13-.05,0-.07-.04-.07-.13Zm.34-.07c-.06,0-.11-.03-.14-.09-.01-.04,0-.05,.04-.05h.05c.06,0,.1,.03,.13,.09,.01,.02,.01,.04,0,.05-.01,.01-.04,.01-.07,0Zm-.04,2.36c0-.11,.04-.12,.14-.04,.09,.08,.08,.13-.03,.13-.07,0-.11-.03-.11-.09Zm.18-2.2c0-.06,.02-.09,.05-.09s.08,.03,.14,.09,.07,.1,.04,.13-.07,.02-.13,0c-.07-.03-.1-.07-.1-.12Zm.22-11.09c-.07-.01-.12-.06-.14-.14-.01-.06,0-.09,.05-.09h.04c.07,.01,.12,.06,.14,.14,.01,.06,0,.09-.05,.09h-.04Zm.34,11.79c-.04-.07-.01-.11,.07-.11,.07,0,.15,.02,.23,.07,.08,.05,.12,.09,.12,.13,0,.02-.06,.04-.18,.04s-.2-.04-.23-.13Zm.04-11.12s.08-.04,.14,.02c.01,.05,0,.08-.02,.11-.05,.02-.09,.02-.12,0-.03-.03-.03-.07,0-.12Zm.09,12.01c0-.08,.03-.1,.09-.05,.08,.05,.1,.09,.05,.13-.01,.01-.03,.02-.05,.02-.06,0-.09-.03-.09-.09Zm.09-2.39c.1-.12,.22-.12,.36,0,.18,.13,.21,.21,.09,.23-.02,0-.07,0-.13-.02-.14-.02-.23-.02-.27,.02-.07,.06-.11,.05-.11-.04-.01-.07,0-.14,.05-.2Zm.5-9.07s-.06-.05-.18-.05-.18,.04-.18,.13c0,.14,.11,.13,.32-.04l.04-.04Zm.29,10.91c.04-.11,.07-.09,.11,.05,.01,.04,.02,.07,.02,.09,0,.05,.02,.15,.07,.31,.05,.16,.07,.25,.07,.27,0,.11-.04,.2-.13,.26s-.18,.1-.29,.1c-.13,0-.25-.04-.34-.13-.11-.1-.16-.23-.16-.4,0-.34,.13-.5,.38-.5h.05c.12,.02,.19,0,.22-.05Zm-.38-11.79c.05-.12,.1-.12,.16,0,.06,.13,.05,.21-.04,.23-.13,0-.17-.08-.13-.23Zm.04,14.44c0-.11,.02-.16,.05-.16s.07,.03,.11,.1c.04,.07,.05,.13,.05,.19,0,.04,0,.06-.02,.07-.1,.04-.16-.03-.2-.2Zm.31-4.81s.03-.04,.1-.04,.14,0,.22,.02c.08,.01,.13,.03,.15,.05,.11,.11,.08,.16-.09,.16-.08,0-.17-.02-.25-.06s-.13-.09-.13-.14Zm.28,.73s-.04-.07-.04-.15,.02-.16,.07-.23c.05-.07,.1-.09,.16-.05,.07,.02,.13,.04,.16,.04,.07,0,.17,.08,.29,.23s.2,.29,.23,.42c.08,.3,.08,.45-.02,.45-.11,0-.17-.11-.18-.34-.01-.13-.05-.22-.11-.26s-.17-.06-.34-.06c-.12,0-.2,0-.23-.03Zm.03-9.89s.02-.04,.06-.04c.04,0,.08,0,.13,.02s.07,.04,.08,.06c.02,.06,.02,.09-.02,.09-.17,0-.25-.04-.25-.13Zm.36,10.28c0-.1,.04-.12,.11-.07,.05,.02,.07,.06,.07,.11,0,.06-.03,.09-.09,.09s-.09-.04-.09-.13Zm.07-9.85c-.01-.06,0-.1,0-.11,.02-.01,.06-.01,.12,0,.06,0,.1,.02,.13,.06,.02,.04,.03,.08,0,.13s-.06,.06-.12,.06c-.07,0-.12-.05-.14-.14Zm.61,.07c-.01-.1,.02-.14,.11-.14s.13,.05,.13,.16c0,.06-.02,.1-.05,.13-.04,.02-.07,.02-.11,0-.04-.03-.06-.07-.07-.13Zm.18,1.03c.06,0,.05-.04-.02-.11-.02-.01-.04-.02-.05-.02-.08,0-.08,.04,.02,.11l.05,.02Zm-.05,9.31s-.01-.04,0-.05c.01-.01,.04-.01,.07,0,.06,0,.1,.03,.13,.09,.02,.04,.02,.05-.02,.05h-.05s-.09-.03-.13-.09Zm.04-1.35c0-.1,.05-.09,.16,.02,.11,.13,.11,.2,0,.22-.11,0-.16-.08-.16-.23Zm.13-9.7c0-.08,.03-.1,.09-.05,.08,.05,.1,.09,.05,.13l-.05,.02c-.06,0-.09-.03-.09-.09Zm.52,7.94c-.06-.1-.13-.1-.22,0-.06,.08-.07,.15-.02,.2,.04,.04,.09,.02,.16-.04,.07-.06,.1-.11,.07-.16Zm-.22,1.87s.01-.07,.04-.09,.05-.03,.09-.02c.04,.01,.06,.04,.07,.07,.04,.1,.02,.16-.05,.2-.08,0-.13-.05-.14-.16Zm.18-.54s.06-.05,.18-.05,.19,.02,.22,.05c.01,.04,0,.07-.04,.1-.04,.03-.08,.05-.14,.05-.05,0-.1,0-.13-.03-.06-.04-.09-.08-.09-.13Zm.05-.45c.07-.08,.15-.08,.23,0,.05,.04,.05,.08,.02,.13-.04,.06-.09,.09-.16,.09-.06,0-.1-.02-.12-.07-.02-.05,0-.1,.03-.14Zm-.02-7.83c.06-.13,.1-.14,.13-.02,.01,.04,.02,.08,.02,.13,0,.14-.01,.22-.04,.22s-.05-.04-.08-.13-.04-.15-.03-.2Zm.02,.52s.03-.07,.09-.07c.08,0,.11,.05,.07,.14-.01,.04-.03,.06-.05,.06-.02,0-.05,0-.07-.04-.02-.03-.04-.06-.04-.1Zm.02,9.36s0-.04,.02-.06c.02-.02,.06-.02,.11,0,.08,0,.13,.03,.13,.09-.01,.05-.05,.07-.12,.06-.07,0-.11-.03-.13-.08Zm.29-9.54c0-.1,.02-.14,.07-.14,.04,0,.07,.05,.09,.15,.02,.1,.02,.17,0,.19-.06,.06-.11,.03-.14-.09l-.02-.11Zm.14,5.8c-.01-.08-.03-.13-.05-.14l-.05,.07s.02,.09,.05,.13c.05,.05,.07,.06,.07,.04,0-.01,0-.04-.02-.09Zm.11-3.02c.1-.17,.13-.28,.11-.32-.01-.05-.05-.02-.11,.09l-.13,.32c-.04,.1-.05,.14-.04,.14,.02,0,.08-.08,.16-.23Zm-.07,9.05c0-.12,.02-.18,.07-.18,.04,0,.07,.03,.12,.09s.06,.12,.06,.18c0,.07-.04,.11-.13,.11s-.13-.07-.13-.2Zm.2-11.18c0-.13,.02-.19,.07-.18,.02,0,.05,.03,.07,.09,.02,.05,.08,.05,.16,.02,.07-.04,.11-.04,.11-.02l-.02,.13s.03,.02,.05,.02c.06,0,.09,.02,.09,.05,0,.07-.04,.11-.11,.13-.04,.01-.05,0-.05-.02-.02-.05-.09-.06-.2-.04-.08,.01-.13,0-.15-.02s-.03-.08-.03-.16Zm.05-.76s0-.05,.03-.07c.02-.02,.04-.03,.06-.02,.1,.01,.13,.05,.09,.11-.01,.04-.04,.05-.07,.05-.07,.01-.11-.01-.11-.07Zm.02,8.21c-.02-.06-.01-.09,.04-.09s.1,.04,.16,.13c.06,.08,.08,.14,.05,.16-.02,.02-.07,.01-.13-.04-.07-.05-.11-.1-.12-.16Zm.13-.54s-.07-.04-.07-.09,.03-.1,.09-.14,.12-.07,.18-.07c.07,0,.11,.04,.13,.11,.01,.06-.02,.11-.11,.16-.08,.05-.16,.06-.22,.04Zm.49-.49s-.05,.02-.07,.02c-.07,0-.11-.04-.11-.13,0-.07,.02-.11,.07-.11s.1,.03,.14,.09,.04,.1-.04,.13Zm-.11-6.07s.08-.02,.22,.04c.18,.1,.2,.19,.05,.27-.07,.05-.14,.02-.22-.09-.06-.1-.08-.17-.05-.22Zm.04,.72l-.02-.22,.18,.05c.24,.07,.33,.18,.27,.32-.04,.07-.11,.1-.23,.09-.08-.01-.14-.03-.15-.06-.02-.03-.03-.09-.04-.19Zm.22,2.5c-.11,.01-.16,0-.16-.05,.02-.07,.1-.11,.23-.13,.07,0,.11,.02,.13,.05,0,.07-.07,.11-.2,.13Zm0,1.75c-.03-.1-.03-.16,0-.18,.02-.02,.08-.01,.16,.04s.13,.1,.14,.14c.02,.06,0,.11-.04,.14s-.1,.04-.15,.02c-.04-.01-.07-.07-.1-.16Zm0-1.35c0-.06,.03-.09,.09-.09,.05,0,.07,0,.08,.03,0,.02,0,.06-.03,.12-.01,.04-.03,.06-.05,.06-.02,0-.05,0-.06-.03-.02-.02-.03-.05-.03-.09Zm.02-1.31c-.01-.06,0-.09,.04-.09,.08,0,.14,.04,.16,.11,0,.04-.02,.06-.04,.08-.03,.02-.06,.02-.1,0-.04-.02-.05-.05-.05-.09Zm.38-1.94s-.1,.01-.16-.11c-.05-.08-.02-.13,.07-.13,.04,0,.07,.03,.09,.1,.02,.07,.02,.11,0,.14Zm-.09,1.98c0-.08,0-.14,.02-.17,.01-.03,.04-.04,.07-.03,.08,.02,.14,.07,.18,.14,.04,.07,.03,.13-.02,.18-.07,.08-.13,.11-.18,.09-.05-.02-.07-.1-.07-.22Zm.2,2.14c.17-.04,.31,0,.43,.09,.08,.07,.16,.11,.22,.11,.04,0,.05,.03,.05,.09,0,.05-.08,.12-.23,.21-.15,.09-.27,.14-.35,.14-.07,0-.14-.04-.19-.13-.05-.08-.08-.17-.08-.27,0-.13,.05-.21,.14-.23Zm0-2.86c-.06-.06-.04-.13,.07-.2,.05,0,.08,.02,.09,.07,0,.05-.02,.09-.06,.12s-.08,.03-.1,0Zm.23,1.87c-.08,.08-.14,.07-.18-.05-.01-.12,.02-.19,.11-.22,.05,0,.08,.04,.1,.11,.02,.07,0,.13-.03,.16Zm-.07,.65s0-.06,0-.08c0-.02,.02-.03,.04-.03s.05,0,.09,.03,.09,.05,.16,.1l.22,.13-.18,.02c-.23,.04-.34-.02-.34-.16Zm0,1.57s.02-.04,.04-.05,.07,0,.11,0c.04,.02,.07,.04,.1,.08,.08,.11,.08,.16,0,.16-.14-.02-.23-.09-.25-.2Zm.22-2.97c-.1,0-.12-.03-.07-.09,.06-.1,.11-.11,.14-.05,.01,.01,.02,.03,.02,.05,0,.06-.03,.09-.09,.09Zm.14,7.36c0-.08,.03-.1,.09-.05,.05,.04,.07,.07,.05,.12-.01,.04-.04,.06-.09,.06-.04,0-.05-.04-.05-.13Zm.18-6.08c0-.07,.05-.08,.16-.02,.08,.05,.11,.09,.07,.13-.02,.02-.07,.02-.13,0s-.1-.06-.1-.1Zm.14,1.17c.05-.08,.11-.08,.2,.02,.07,.07,.07,.13-.02,.18-.04,.02-.08,0-.14-.05-.05-.06-.07-.11-.04-.14Zm.07-2.16s-.03-.09,.03-.17c.05-.08,.1-.07,.15,0,.02,.02,0,.06-.05,.12-.06,.05-.1,.07-.13,.05Z"/><path class="b" d="M105.66,33.83c-.02-.07,0-.12,.03-.17,.04-.05,.06-.08,.08-.08,.02,0,.03,0,.04,.03s0,.07,0,.14c0,.12-.02,.18-.05,.18-.05,0-.08-.03-.1-.1Zm.44-6.24h-.04s-.07-.02-.07-.05c0-.05,.02-.1,.07-.15,.05-.05,.09-.08,.13-.08,.02,0,.04,.03,.04,.09,0,.11-.04,.17-.13,.2Zm7.6,3.28c-.1,.07-.14,.13-.14,.16s.08,.18,.24,.43,.24,.39,.24,.41c0,.05-.07,.11-.21,.18-.14,.07-.25,.11-.33,.11-.07,0-.18,.04-.32,.11-.08,.04-.16,.05-.23,.05-.16,0-.23-.05-.23-.16,0-.12,.04-.26,.12-.41,.08-.16,.16-.26,.24-.32,.17-.12,.22-.19,.16-.22-.01-.01-.04-.01-.07,0-.05,.02-.1,.03-.17,0-.07-.02-.1-.05-.1-.1,0-.06,.05-.14,.16-.25,.12-.12,.16-.19,.11-.22-.04-.01-.08,.01-.14,.07-.08,.07-.18,.02-.29-.14-.11-.14-.19-.23-.25-.27h-.02c-.07,0-.2,.06-.37,.19-.17,.13-.3,.24-.37,.35-.1,.14-.11,.28-.04,.4,.06,.11,.09,.24,.09,.4,0,.14-.03,.23-.09,.25-.07,.02-.17,.04-.31,.04h-.11s-.05,0-.06,.02c-.02,.01-.03,.03-.03,.05v.11c0,.29,.11,.49,.34,.61,.22,.13,.32,.34,.32,.63,0,.22-.13,.32-.4,.32-.22,0-.41-.05-.58-.16-.19-.12-.31-.18-.34-.18-.08,0-.09-.07-.02-.2,.05-.1,.07-.26,.07-.49,.01-.24,.07-.43,.16-.56,.17-.22,.13-.31-.11-.27-.08,.02-.14,.02-.16-.02-.02-.04-.05-.14-.09-.31-.05-.24-.06-.41-.04-.5s.02-.16-.03-.19-.13-.05-.28-.05c-.11,0-.17-.01-.19-.04s0-.07,.04-.14c.04-.06,.02-.13-.04-.2-.07-.07-.15-.11-.26-.11-.12,0-.2,.03-.23,.09-.04,.06-.06,.14-.06,.24,0,.1-.03,.18-.08,.23l-.14,.2,.14,.11c.07,.05,.11,.11,.11,.2,0,.11-.07,.2-.22,.29-.12,.07-.18,.16-.18,.25,0,.12-.03,.21-.09,.27-.04,.06-.07,.08-.11,.07-.04-.01-.13-.06-.27-.14-.2-.12-.31-.25-.32-.4-.01-.16-.07-.26-.16-.31-.14-.08-.22-.28-.22-.58v-.34c0-.36-.1-.54-.29-.54-.08,0-.14-.17-.16-.52-.01-.19-.02-.32-.04-.38-.01-.06-.03-.11-.05-.14-.02-.04-.07-.07-.14-.11-.25-.13-.38-.32-.38-.58,0-.01,0-.03,0-.04,0-.02,0-.03,0-.04,.04-.13,.04-.21,.03-.24-.02-.03-.09-.04-.21-.03h-.05c-.16,0-.23-.05-.23-.14,0-.12,.09-.22,.27-.31,.14-.07,.29-.19,.45-.34-.12-.08-.31-.21-.58-.38l.02-.34c0-.22-.04-.35-.13-.4-.08-.04-.13-.17-.14-.4s.03-.39,.13-.49c.11-.08,.16-.16,.16-.23,0-.16,.07-.23,.22-.23,.08,0,.16,.04,.23,.11,.04,.05,.07,.08,.1,.08,.03,0,.05,0,.07-.03,.02-.02,.04-.05,.07-.07s.07-.04,.12-.04c.13,0,.2-.05,.2-.16,0-.16-.1-.3-.31-.43-.18-.08-.27-.15-.27-.2s.14-.1,.41-.16c.08-.02,.14-.04,.16-.05s.03-.03,0-.06c-.02-.03-.07-.07-.15-.12-.13-.08-.17-.16-.13-.22,.01-.04,.05-.05,.13-.05,.05,0,.13,.02,.26,.05,.13,.04,.21,.05,.26,.05,.24,.05,.43,.12,.56,.22,.12,.06,.2,.09,.23,.09,.07,0,.11-.05,.11-.14,0-.01,0-.03,0-.05,0-.02,0-.04,0-.05-.01-.11,.08-.23,.27-.38,.22-.14,.33-.22,.34-.22,.04,0,.06,.06,.07,.19,.01,.13,0,.22-.02,.28-.05,.1,0,.16,.14,.18,.17,.02,.32,.02,.45-.02,.11-.02,.17-.05,.19-.08,.02-.03,.03-.12,.03-.26,0-.2-.05-.36-.16-.47-.11-.11-.16-.21-.16-.31,0-.05,0-.08,0-.1,0-.02,.02-.03,.04-.03s.05,0,.09,.02c.07,.01,.14-.02,.21-.09,.07-.07,.13-.11,.19-.11s.14,.04,.23,.13,.15,.17,.17,.27c.05,.19,.14,.21,.27,.05,.11-.13,.32-.2,.65-.2,.08,0,.14,0,.18,.02,.12,.01,.19,.03,.23,.05,.03,.02,.04,.08,.04,.16,0,.12-.01,.18-.04,.18-.13-.02-.2,0-.2,.05,0,.05,.03,.07,.09,.07,.12,0,.27,.03,.44,.08s.26,.1,.26,.13c0,.06,.04,.11,.13,.16,.11,.06,.21,.24,.31,.54,.1,.3,.15,.56,.15,.77,0,.13-.02,.2-.05,.22-.04,.01-.05,.07-.05,.18,0,.07,.02,.17,.06,.29,.04,.12,.07,.18,.1,.18,.25,0,.49,.03,.71,.1,.22,.07,.33,.16,.33,.28,0,.1,.05,.21,.16,.34,.11,.13,.13,.25,.07,.36-.12,.25-.28,.38-.49,.38-.04,0-.12,.08-.24,.24-.13,.16-.22,.24-.28,.24-.05,0-.08-.03-.11-.09-.01-.05,0-.14,.04-.26,.04-.13,.03-.21-.03-.24-.07-.07-.17-.11-.31-.11-.08,0-.17,0-.27-.03-.1-.02-.16-.03-.18-.03-.1,0-.22,.07-.36,.2-.22,.17-.38,.25-.49,.25h-.07s-.1,.07-.21,.22-.17,.26-.21,.36c-.02,.06,.14,.14,.49,.25,.38,.12,.58,.23,.58,.32,0,.01-.02,.05-.07,.13-.12,.12-.13,.18-.02,.18,.07,0,.13-.05,.16-.14,.02-.06,.06-.1,.1-.13,.04-.02,.08-.02,.12,0,.04,.02,.06,.07,.07,.13,.04,.18,.1,.27,.18,.27,.1,0,.15-.08,.16-.23,.02-.11,.04-.18,.06-.21,.02-.03,.07-.04,.15-.04,.32,0,.49-.11,.49-.32,0-.11,.02-.16,.05-.16s.09,0,.16-.03c.07-.02,.12-.02,.15,0,.03,.02,.07,.07,.12,.15,.07,.13,.11,.23,.11,.31,0,.08-.05,.14-.14,.18-.06,.02-.12,.08-.17,.17-.05,.09-.14,.14-.26,.14-.16,0-.29,.04-.41,.13-.13,.08-.22,.11-.27,.09-.05-.02-.08,0-.09,.09,0,.07,.02,.13,.05,.18,.05,.07,.1,.18,.17,.31,.07,.14,.14,.26,.23,.37,.11,.13,.17,.23,.2,.31,.02,.07,.04,.21,.04,.41,0,.28-.05,.45-.14,.52Zm-7.45-3.96c0-.08,0-.13,0-.14,0-.01,.03,0,.08,.05,.07,.07,.1,.14,.07,.2-.05,.12-.1,.13-.14,.04-.01-.04-.02-.08-.02-.14Zm1.39,4.93s.08-.05,.13-.04c.05,.01,.07,.04,.07,.09,0,.06-.03,.09-.09,.09-.05,0-.08-.02-.11-.05-.02-.04-.02-.07,0-.09Zm1.39,.88c-.08,0-.15-.04-.2-.11,.05-.04,.09-.06,.13-.07,.11,0,.16,.03,.16,.09s-.03,.09-.09,.09Zm.13-8.8c.06-.06,.04-.12-.06-.19-.1-.07-.15-.06-.15,.03,0,.04,.03,.08,.09,.13,.06,.05,.1,.06,.13,.04Zm.27-1.66c0-.07,.07-.07,.22,.02l.09,.07s.07,.09,.09,.16c.02,.07,.03,.13,.03,.19,0,.05-.03,.08-.06,.08-.02,0-.09-.08-.2-.23-.11-.16-.16-.25-.16-.29Zm.05-5.33s.04-.05,.13-.05,.13,.02,.13,.05c0,.05-.04,.07-.13,.07s-.13-.02-.13-.07Zm.43,9.56c-.1-.38-.19-.58-.29-.58-.04,0-.07,.05-.11,.16-.04,.13,0,.23,.09,.31,.08,.08,.13,.25,.14,.49,.02,.24,.05,.41,.07,.52,.04,.08,0,.14-.09,.16-.05,.01-.1,.07-.16,.17s-.09,.18-.09,.24c0,.05,.03,.07,.09,.07,.17,0,.32-.08,.45-.23l.2-.22-.11-.38c-.1-.26-.16-.5-.2-.72Zm2.02,5.94c-.08,.05-.13,.02-.13-.09,.02-.13,.07-.2,.13-.2,.04,.02,.05,.07,.05,.14s-.02,.12-.05,.14Zm.63-5.13c.07-.12,.13-.16,.16-.11,.05,.08,.06,.19,.04,.31-.02,.12-.07,.19-.13,.2-.1,.02-.14-.02-.14-.13,0-.07,.02-.16,.07-.27Zm.85-3.55c-.05-.07-.08-.15-.11-.24-.02-.09,0-.15,.07-.19,.17,0,.22,.12,.16,.36-.02,.11-.07,.13-.13,.07Zm.07,9.4c-.06-.01-.09-.05-.09-.13,0-.05,.02-.1,.06-.15,.04-.05,.09-.08,.13-.08s.08,.04,.09,.13c.01,.06,0,.12-.04,.18s-.09,.08-.15,.05Zm.63-8.24c-.12,0-.14-.03-.07-.09,.08-.08,.14-.1,.18-.05l.02,.05c0,.06-.04,.09-.13,.09Zm.34,3.96c-.1,0-.14-.02-.14-.05s.05-.05,.14-.05,.14,.02,.14,.05-.05,.05-.14,.05Z"/></g></g><g><path class="b" d="M366.2,31.14s.09-.04,.2-.04c.19,0,.29,.07,.29,.22,0,.1-.05,.17-.14,.23-.02,.02-.07,.04-.13,.04-.07,0-.13-.04-.19-.11-.05-.07-.08-.14-.08-.22,0-.05,.02-.09,.05-.13Zm6.88,6.5c-.06,0-.1-.03-.11-.09,0-.05,.04-.07,.11-.07,.08,0,.12,.03,.1,.08-.02,.05-.05,.08-.1,.08Zm.52,1.24c.06-.07,.12-.09,.18-.06,.06,.03,.09,.09,.09,.19,0,.07-.03,.12-.1,.13-.07,.02-.13,0-.19-.04-.07-.06-.07-.13,.02-.22Zm1.39-1.28s0-.04,.02-.07c.07-.19,.16-.28,.25-.27h.07c.1,.01,.15,.06,.17,.14,.02,.08,0,.18-.08,.29s-.07,.21,0,.31c.06,.1,.09,.16,.09,.18s-.09,.04-.27,.04c-.35,0-.64,.13-.88,.38-.14,.14-.23,.22-.27,.22-.05,0-.07-.07-.07-.2,0-.17-.04-.3-.13-.4-.1-.14-.14-.25-.14-.31,0-.08,.06-.11,.18-.07,.13,.01,.23-.02,.29-.09,.05-.07,.14-.08,.27-.02,.14,.06,.25,.09,.31,.09,.1,0,.16-.07,.2-.22Zm.04,7.11s0-.08,.03-.1c.02-.02,.04-.02,.06,0s.04,.04,.05,.09c.04,.1,.02,.14-.05,.14-.06,0-.09-.04-.09-.13Zm.22-8.44l-.05-.25h.29c.19,0,.29,.02,.29,.07,0,.07-.04,.16-.12,.26-.08,.1-.15,.17-.21,.19-.07,.02-.12,.03-.14,0-.02-.02-.04-.11-.06-.28Zm.14,2.43c.08-.12,.19-.18,.31-.18,.1,0,.23,.04,.4,.13,.22,.11,.32,.21,.32,.31,0,.07-.07,.11-.2,.11h-.16l.16,.14c.07,.06,.14,.18,.21,.35,.07,.17,.1,.31,.1,.42,0,.05,0,.08-.02,.09-.01,.06-.13,.09-.36,.09-.16,0-.25,0-.28-.03-.03-.02-.06-.07-.08-.15-.02-.11-.07-.2-.13-.29-.05-.07-.02-.18,.07-.32,.12-.16,.15-.23,.09-.23l-.14,.05s-.08,.04-.14,.04c-.16,0-.23-.09-.23-.27,0-.07,.03-.16,.09-.25Zm.2-5.04c0-.08,.02-.13,.05-.13s.05,.04,.05,.13c0,.07-.02,.11-.05,.11s-.05-.04-.05-.11Zm.2,2.93c.05-.13,.16-.14,.34-.02,.11,.06,.05,.15-.16,.27l-.07,.04s-.08-.03-.11-.1c-.02-.07-.02-.13,0-.19Zm.76-2.95c.17-.02,.26-.04,.29-.04s.03,.03,.02,.09c-.01,.07-.09,.11-.23,.11s-.22-.02-.22-.07c.02-.05,.07-.08,.14-.09Zm.34,1.87c.12-.12,.23-.16,.32-.11,.05,.02,.06,.07,.04,.14-.02,.07-.07,.11-.13,.13-.14,.06-.12,.13,.07,.22,.1,.05,.14,.13,.14,.23,0,.08-.04,.23-.12,.43-.08,.2-.12,.34-.12,.4,0,.11-.05,.18-.16,.22-.02,.01-.05,.02-.09,.04-.02,.01-.04,.02-.05,.04h-.04v-.1s0-.1,.02-.26l.04-.36-.2-.02c-.08-.01-.14-.03-.17-.05-.03-.02-.04-.07-.03-.13,.01-.11,.05-.25,.12-.41,.07-.17,.11-.25,.13-.25,.05,0,.12-.05,.22-.14Zm-.38,3.9c-.05-.05-.07-.1-.07-.15s.04-.07,.13-.07c.07,0,.11,.05,.11,.14,0,.11-.01,.16-.04,.16-.04,0-.08-.03-.13-.08Zm-.04-1.56s.06-.07,.11-.07c.04,0,.15,.09,.35,.26,.2,.17,.3,.28,.3,.31-.01,.02-.04,.04-.08,.04s-.1-.01-.18-.04-.15-.05-.21-.09c-.26-.17-.36-.31-.29-.41Zm.58,1.44c-.01-.06,0-.1,.02-.11,.05,.02,.1,.07,.14,.13s.06,.1,.04,.11c-.07,.01-.14-.03-.2-.13Zm.36,.09c.14-.18,.25-.27,.32-.27,.05,0,.07,.03,.07,.09,0,.02,0,.05-.02,.07-.02,.08,.02,.16,.14,.22,.13,.05,.2,.12,.2,.22,0,.08-.07,.19-.21,.33-.14,.14-.21,.22-.22,.24-.02,.06-.07,.05-.13-.02-.04-.06-.1-.11-.2-.16-.1-.06-.14-.15-.14-.27s.06-.27,.18-.45Zm.04,1.21c.06-.11,.11-.1,.16,.04,.04,.1,.02,.14-.04,.14s-.1-.02-.13-.05c-.02-.04-.02-.08,0-.13Zm.22-2.2c.05-.07,.09-.11,.12-.11s.08,.04,.15,.11c.07,.08,.08,.17,.04,.27-.04,.07-.07,.11-.09,.12-.02,0-.07-.01-.14-.06-.13-.08-.16-.19-.07-.32Zm1.51,1.42c.16-.05,.31-.07,.45-.07,.13,0,.21,.03,.23,.09,.04,.08,.05,.14,.03,.16-.02,.02-.08,.04-.17,.04h-.22s.12,.08,.22,.13c.1,.05,.17,.09,.22,.13-.19,.17-.31,.31-.36,.43-.07,.14-.15,.22-.23,.22-.07,0-.14-.03-.22-.09-.07-.05-.11-.07-.13-.05v.04c.02,.06,.18,.14,.47,.25,.43,.17,.72,.31,.87,.42,.15,.11,.22,.25,.22,.42s-.08,.21-.23,.13c-.08-.05-.14-.05-.15,0-.02,.04,0,.1,.06,.17,.12,.13,.11,.2-.04,.2-.1,0-.2-.07-.32-.22s-.2-.19-.23-.13-.08,.09-.14,.09c-.12,0-.13-.1-.02-.31,.05-.07,.01-.16-.11-.27-.11-.1-.19-.11-.23-.05s-.1,.09-.16,.09c-.08,0-.2-.06-.35-.18-.15-.12-.25-.19-.3-.2-.11-.01-.16-.09-.16-.23,0-.16-.03-.26-.09-.32-.02-.05-.04-.08-.04-.09,0-.11,.13-.2,.4-.27,.18-.05,.3-.13,.36-.23,.08-.13,.21-.22,.38-.27Zm-.07-3.62c-.12,0-.17-.07-.16-.22,.01-.1,.06-.13,.14-.11s.2,.05,.34,.07c.14,.01,.22,.04,.22,.09,0,.01-.01,.04-.04,.09-.02,.05-.04,.09-.04,.13s0,.07,.02,.09c.02,.07,.04,.11,.04,.13,0,.08-.03,.13-.09,.13-.07,0-.14-.07-.22-.2-.07-.13-.14-.2-.22-.2Zm1.17,6.34c.08-.05,.16-.02,.22,.07,.04,.05,.03,.08-.02,.09-.01,0-.04,0-.09-.02-.17-.05-.2-.1-.11-.14Z"/><path class="b" d="M3.51,47.87c-.06,0-.09-.03-.09-.09s.03-.09,.09-.09,.09,.03,.09,.09-.03,.09-.09,.09Zm3.73-10.21c.11-.11,.2-.11,.29,0,.1,.1,.08,.2-.04,.32-.05,.05-.1,.07-.14,.07-.11,0-.16-.08-.16-.23,0-.07,.02-.13,.05-.16Zm.95,16.31l.2-.18,.02,.18c.02,.24-.06,.36-.25,.36-.17,0-.19-.08-.07-.25,.02-.04,.06-.07,.11-.11Zm.23-16.87s.13-.07,.25-.07,.23,.03,.32,.08c.1,.05,.14,.12,.14,.19,0,.06-.04,.14-.14,.24-.09,.1-.17,.15-.23,.15-.11,0-.2-.04-.29-.14-.08-.09-.13-.19-.13-.3,0-.07,.02-.13,.05-.16Zm1.22,6.86c-.14,0-.22-.05-.22-.16,0-.12,.06-.18,.18-.18,.05,0,.1,.02,.14,.07,.05,.05,.06,.11,.04,.17-.02,.07-.07,.1-.14,.1Zm2.21-2.65c-.1,.05-.14,.04-.14-.04,.01-.08,.05-.12,.13-.11,.02,0,.05,.02,.07,.05,.02,.04,0,.07-.05,.09Zm.43-.32c-.08-.08-.06-.14,.08-.17,.14-.03,.21,0,.21,.1,0,.06-.04,.1-.11,.12-.07,.02-.13,0-.18-.04Zm.11-.9c.06-.1,.11-.14,.15-.14,.04,0,.1,.06,.19,.15,.07,.07,.11,.12,.12,.13,0,.02-.02,.05-.08,.1-.08,.06-.16,.09-.23,.09-.13,0-.2-.06-.2-.18,0-.06,.02-.11,.05-.16Zm.41-2.59c.08-.04,.14-.05,.18-.05,.05,0,.11,.1,.2,.31,.05,.14,.1,.26,.14,.34,.01,.02,0,.04-.02,.05-.02,.01-.06,.02-.12,.03-.05,0-.12,0-.21,0-.17,0-.27,0-.31-.03-.04-.02-.08-.06-.1-.14-.01-.04-.02-.08-.02-.14,0-.16,.08-.28,.25-.38Zm-.05,3.67c.07-.02,.16-.03,.27-.02,.11,.01,.18,.04,.22,.09,.07,.1,.07,.23-.02,.41-.06,.08-.17,.13-.32,.13-.14,0-.23-.04-.25-.11-.02-.05-.04-.12-.04-.22,0-.16,.05-.25,.14-.29Zm.14-7.16s.08-.04,.14-.02,.09,.06,.09,.11-.05,.08-.14,.11c-.06,.01-.1,0-.13-.05-.02-.05-.01-.1,.04-.14Zm2.83,9.85c-.19,0-.32,.02-.39,.06-.07,.04-.1,.15-.1,.33v.09s0,.06,0,.1c0,.04,0,.07,0,.08,0,.13-.04,.2-.11,.2-.02,0-.11-.02-.25-.07l-.16-.07,.18,.22c.12,.22,.13,.33,.04,.34-.05,0-.11,0-.19,.02-.08,.01-.13,.02-.15,.02-.1,0-.16-.04-.18-.13-.05-.1-.02-.21,.07-.34,.29-.4,.43-.63,.43-.7,0-.04-.02-.05-.07-.05h-.05s-.08,0-.1-.02-.03-.1-.03-.22v-.27c-.36-.17-.62-.29-.79-.38l-.04,.18c-.02,.12-.05,.18-.07,.18-.04,0-.1-.08-.18-.23-.11-.17-.16-.34-.16-.5,0-.12,.03-.21,.09-.27,.05-.05,.11-.07,.18-.07,.06,0,.19,.02,.4,.05,.06,.01,.14,.03,.23,.04,.09,.02,.16,.03,.2,.05,.04,.01,.07,.02,.08,.02,.02,0,.04-.02,.04-.07,0-.22-.08-.46-.23-.72-.1-.19-.14-.34-.14-.43,0-.08,.02-.14,.07-.18,.07-.05,.16-.05,.25,0,.11,.05,.16,.05,.14,.02-.02-.06-.1-.16-.23-.29-.17-.16-.24-.31-.22-.47,.02-.16-.04-.29-.18-.4-.1-.07-.26-.14-.5-.21-.23-.07-.37-.1-.4-.12l-.18-.07,.38-.27c.22-.17,.37-.25,.45-.25,.01,0,.02,0,.04,0,.01,0,.02,0,.04,0,.07,.02,.11,.02,.12,0,0-.02,0-.11,0-.25-.04-.22-.1-.35-.18-.41-.1-.07-.14-.14-.14-.22,0-.1,.07-.19,.2-.29,.13-.1,.28-.15,.43-.16,.3-.06,.45-.19,.45-.38,0-.16-.13-.28-.38-.38-.16-.06-.31-.08-.47-.05-.29,.05-.49,.07-.59,.07-.08,0-.15-.02-.2-.07-.07-.06-.11-.17-.11-.34s.07-.32,.2-.45c.13-.13,.22-.2,.27-.2s.11,.1,.18,.31c.07,.19,.15,.3,.23,.32,.22,.04,.79,.1,1.71,.18,.07,0,.13-.07,.18-.22,.04-.13,.13-.2,.27-.2,.1,0,.16,0,.19,.03,.03,.02,.06,.08,.08,.19,.05,.16,.11,.23,.2,.23,.14,0,.31-.13,.49-.4,.07-.13,.17-.2,.31-.2,.06,0,.15,.02,.27,.07,.28,.11,.41,.26,.41,.45,0,.11-.05,.28-.14,.5-.07,.17-.11,.27-.12,.32,0,.04,.02,.09,.08,.13,.16,.13,.3,.49,.43,1.08,.05,.22,.04,.39-.04,.52-.06,.12-.09,.25-.09,.38,0,.08,.01,.14,.04,.15,.02,.02,.1,.03,.22,.03,.14,0,.22,.02,.22,.05,0,.07-.18,.21-.54,.41-.64,.35-1,.67-1.08,.95-.06,.16-.12,.23-.18,.23-.07,0-.08,.06-.02,.18,.07,.13,.07,.26,0,.38l-.11,.16h.4c.26,0,.4,.02,.4,.05,0,.02-.07,.16-.2,.4-.1,.2-.18,.31-.25,.31s-.25-.08-.52-.23c-.32-.18-.49-.35-.49-.52,0-.04,0-.07,.02-.09,.04-.1,.08-.12,.13-.07l.04,.11c0,.07,.02,.12,.05,.14,.02,.01,.05-.01,.07-.07,.04-.08,.05-.19,.05-.31,0-.1-.07-.14-.2-.13-.17,.01-.28,0-.33,0-.05-.02-.1-.07-.13-.15-.04-.1-.09-.14-.16-.14s-.11,.04-.11,.13c0,.07,.04,.14,.11,.2l.18,.14-.18,.11c-.22,.13-.32,.25-.32,.36,0,.07,.04,.11,.11,.11,.05,0,.13-.02,.25-.06,.12-.04,.19-.06,.2-.06h.02s.07,.16,.07,.32c0,.16-.02,.28-.07,.38-.06,.11-.05,.23,.04,.36,.16,.26,.11,.4-.13,.4Zm-2.03-3.62c.11-.02,.17,.06,.18,.25,0,.28-.07,.41-.22,.41-.05,0-.09,0-.13-.02-.08-.01-.14-.04-.17-.07-.03-.04-.03-.07,0-.11s.09-.07,.17-.09c.12-.05,.17-.12,.16-.22-.02-.08-.02-.14,0-.16Zm-.07,7.36s-.02-.06-.02-.11c0-.08,.04-.13,.11-.13,.12,0,.18,.05,.18,.14,0,.01-.01,.04-.04,.09-.12,.18-.2,.18-.23,0Zm.31-5.85s.05-.08,.11-.09c.06-.01,.1,0,.13,.05,.02,.05,.02,.11,0,.19-.02,.08-.06,.12-.11,.12s-.08-.03-.11-.09-.03-.12-.02-.18Zm1.48,1.46c0-.13-.02-.2-.05-.2-.05,0-.1,.07-.16,.2-.07,.13-.07,.23,.02,.31,.1,.05,.15,.05,.17,.02,.02-.04,.03-.14,.03-.32Zm-.13,2.59c.11-.07,.19-.05,.25,.05,.05,.12,.03,.2-.05,.23-.08,.04-.16,0-.22-.11-.06-.07-.05-.13,.02-.18Zm1.21,6.55c-.14,.04-.22,.02-.23-.04-.01-.07,.02-.11,.11-.14,.02-.01,.05-.01,.07,0,.04,.01,.08,.02,.14,.02,.08,0,.09,.04,.02,.11l-.11,.05Zm.76-10.85s.03-.08,.08-.09c.05-.01,.11,0,.17,.02,.06,.02,.1,.06,.11,.11l.05,.13,.11-.13c.07-.08,.15-.13,.23-.13,.14,0,.22,.08,.22,.25,0,.13-.05,.2-.14,.2-.05,0-.13-.02-.24-.05-.11-.04-.19-.05-.23-.05h-.05c-.06,.02-.13,0-.2-.06-.07-.07-.11-.13-.11-.19Zm.38-6.59c.1-.1,.17-.14,.23-.14,.07,0,.14,.05,.21,.15,.07,.1,.1,.21,.1,.31,0,.08-.02,.15-.07,.2s-.13,.07-.25,.07c-.16,0-.25-.04-.29-.11-.08-.17-.06-.33,.07-.49Zm.32,6.25s-.05-.08-.05-.13c0-.06,.02-.11,.06-.16,.04-.05,.09-.07,.15-.07,.07,0,.13,.03,.16,.09,.05,.06,.04,.14-.02,.25-.1,.16-.2,.16-.31,.02Zm.05,1.76s-.03-.1,.03-.18c.05-.08,.1-.08,.15,0,.02,.02,0,.07-.05,.13s-.1,.08-.13,.05Zm.13,1.51c.08-.02,.15,0,.19,.08s.03,.16-.03,.24c-.01,.04-.04,.05-.07,.05-.11,0-.16-.08-.16-.25,0-.07,.02-.11,.07-.13Zm.18-5.02s.04-.04,.09-.05c.05-.01,.09-.01,.13,0,.04,0,.06,.02,.06,.04,0,.11-.07,.15-.22,.13-.08-.01-.11-.05-.07-.11Zm.47-2.2c.17-.08,.29-.13,.38-.13s.11,.08,.09,.25c-.01,.16-.08,.31-.21,.46-.13,.15-.24,.22-.33,.22s-.17-.05-.23-.16c-.04-.07-.05-.14-.05-.22,0-.18,.12-.32,.36-.43Zm.13,5.6v-.11s0-.04,.02-.05,.03-.02,.05-.02,.06,0,.11,.02c.07,.01,.13,.02,.16,.04,.04,.01,.06,.03,.06,.04,0,.02,0,.04-.03,.06-.02,.02-.06,.06-.11,.11-.12,.12-.17,.18-.14,.18,.18,.1,.27,.19,.27,.29,0,.12-.06,.18-.18,.18-.1,0-.2-.05-.32-.14l-.18-.16,.14-.13c.1-.07,.14-.17,.14-.31Zm.02-2.07c.1-.04,.19-.05,.27-.05,.14,0,.25,.05,.31,.14,.06,.08,.09,.14,.09,.18,0,.06-.09,.13-.27,.22-.12,.06-.19,.09-.22,.09-.05,0-.13-.1-.23-.29-.04-.06-.06-.1-.06-.13s0-.05,0-.07,0-.04,.03-.04c.02,0,.05-.02,.1-.04Zm.16-.67c.06-.06,.14-.06,.25,0,.13,.07,.21,.14,.23,.21,.02,.07-.03,.11-.14,.13-.02,.01-.06,.02-.11,.02-.08,0-.16-.02-.22-.06-.06-.04-.09-.09-.09-.15,0-.05,.02-.1,.07-.14Zm.13-.47s-.07,0-.09-.07c-.02-.12,0-.19,.09-.2,.04,0,.05,.04,.05,.13s-.02,.13-.05,.14Zm-.05,7.25c.02-.07,.09-.07,.2,0,.07,.05,.11,.1,.13,.14,.01,.05-.01,.08-.07,.11-.05,.01-.11-.02-.18-.08-.07-.07-.1-.12-.07-.17Zm.02-1.76c.02-.06,.06-.09,.11-.09,.06,0,.11,.03,.16,.09,.05,.06,.07,.12,.07,.18,0,.05,0,.08-.02,.09-.05,.08-.08,.13-.11,.13-.05,0-.1-.05-.15-.16s-.08-.19-.06-.23Zm.38-3.15c.06-.07,.13-.08,.22-.02,.14,.14,.14,.31,0,.49-.06,.08-.12,.08-.18,0-.01-.01-.02-.02-.02-.04-.13-.16-.14-.3-.02-.43Zm0-2.56s.08-.05,.14-.04c.05,0,.09,.03,.1,.08,.02,.05,0,.12-.06,.21-.07,.09-.12,.13-.17,.13-.02,0-.04-.06-.04-.17s.01-.18,.04-.21Zm.18,1.82c.23-.12,.39-.13,.49-.04,.12,.12,.11,.25-.04,.38-.05,.05-.11,.07-.18,.07-.1,0-.2-.06-.31-.18l-.14-.14,.18-.09Zm.5-5.27c.1-.06,.17-.05,.23,.02,.05,.06,.03,.1-.05,.13-.11,.04-.18,.02-.22-.05,0-.04,.01-.07,.04-.09Zm.02,3.55c0-.07,.02-.13,.07-.18s.1-.07,.16-.07c.12,0,.18,.09,.18,.27,0,.1-.01,.16-.04,.18-.02,.02-.08,.03-.16,.02-.14-.01-.22-.08-.22-.22Zm.27-5c-.08-.08-.06-.14,.07-.18,.07,0,.11,.02,.13,.07,0,.06-.02,.1-.07,.13-.05,.02-.09,.02-.13-.02Zm.2-.58c0-.07,.02-.1,.05-.09,.25,.13,.38,.22,.38,.25s-.02,.06-.05,.07c-.06,.02-.14,0-.23-.05s-.14-.12-.14-.18Zm.34,6.48s.03-.08,.05-.09c.02-.01,.04,0,.06,0,.02,.02,.03,.05,.03,.1s-.02,.09-.06,.13c-.04,.04-.08,.04-.1,.02-.01-.01,0-.07,.02-.16Zm.5,9.99c.2,0,.31,.13,.31,.4,0,.05-.03,.07-.09,.07-.1,0-.21-.04-.34-.12-.13-.08-.2-.15-.2-.23,0-.08,.11-.13,.32-.13Zm.72-8.35c.06-.05,.11-.07,.16-.07s.07,.03,.07,.09c0,.02,0,.07-.02,.13-.01,.07-.02,.11-.02,.14,0,.05-.05,.07-.14,.07-.11,0-.16-.05-.16-.14s.04-.17,.11-.22Zm.29-5.92c-.07,0-.11-.04-.13-.11-.01-.04,0-.05,.04-.05h.04c.06,0,.11,.04,.14,.11,.01,.05,0,.07-.05,.05h-.04Zm-.09-2.45s.11-.03,.34,.05c.1,.04,.16,.07,.18,.1,.02,.03,.02,.08,0,.15-.04,.14-.07,.22-.11,.22s-.11-.07-.22-.22c-.13-.18-.2-.28-.2-.31Zm.32,19.33c.11-.06,.17-.05,.2,.04,.02,.07,.03,.11,.03,.13,0,.01-.04,.02-.12,.02s-.12-.02-.14-.06c-.02-.04-.01-.08,.04-.12Zm.67-16.45c.06-.04,.11-.05,.14-.05,.08,0,.13,.05,.13,.14,0,.06-.03,.12-.09,.18-.05,.05-.08,.07-.09,.08-.01,0-.03,0-.04,0-.02-.01-.04-.05-.06-.11-.05-.11-.04-.19,.02-.23Zm.5,14.02s.07-.07,.14-.06c.07,0,.12,.03,.14,.08,.05,.14,.01,.22-.11,.22-.06,0-.11-.03-.15-.09-.04-.06-.05-.11-.03-.14Zm.22-11.32c0-.06,.04-.05,.11,.04,.04,.04,.06,.09,.08,.16,.02,.07,.02,.13,0,.19-.01,.05-.04,.08-.07,.08-.08,0-.13-.16-.13-.47Zm.23,3.83c-.06-.06-.04-.11,.07-.14,.07-.02,.13,0,.16,.07,.01,.04,0,.07-.03,.09-.03,.02-.07,.03-.11,.03-.04,0-.08-.02-.1-.04Z"/><path class="b" d="M373.35,53.11c.12-.08,.21-.08,.27,0,.02,.04-.03,.05-.16,.05-.14,0-.18-.02-.11-.05Zm4.05-16.24c-.02-.11,0-.16,.07-.17,.07,0,.11,.04,.11,.14,0,.08-.02,.13-.07,.13-.05,0-.08-.03-.11-.1Zm.23,8.96c.02-.07,.07-.1,.13-.09,.06,.01,.09,.06,.09,.14,0,.11-.02,.17-.05,.18-.02,.01-.05,0-.08-.02-.03-.02-.05-.06-.07-.1-.02-.04-.02-.08,0-.12Zm.5-.77c.24-.06,.36,0,.36,.16,0,.14-.06,.22-.18,.22-.07,0-.16-.04-.27-.11-.05-.04-.06-.08-.04-.14,.02-.06,.07-.1,.13-.13Zm1.04-6.91c-.08,0-.13-.04-.13-.13s.04-.13,.13-.13,.13,.04,.13,.13-.04,.13-.13,.13Zm1.01-1.22s.05-.06,.09-.06c.04,0,.07,0,.09,.04s.04,.06,.04,.1c0,.07-.03,.11-.09,.11s-.1-.02-.13-.05c-.02-.04-.02-.08,0-.13Zm.61,.83c.07-.07,.14-.08,.2-.02,.05,.05,.04,.14-.04,.29-.04,.06-.06,.1-.08,.13-.02,.02-.04,.04-.05,.05-.02,.01-.03,0-.04,0s-.02-.04-.04-.08c-.05-.16-.03-.28,.05-.36Zm.07,2.16s-.04-.02-.04-.05c0-.06,.03-.16,.08-.31,.05-.14,.11-.27,.15-.38l.07-.18c.07,0,.11,.15,.11,.45,0,.08-.04,.18-.13,.3-.09,.11-.17,.17-.24,.17Zm.2,2.43c.06-.05,.12-.07,.18-.05,.06,.01,.09,.05,.09,.11s-.04,.1-.11,.12-.13,0-.18-.04c-.05-.05-.04-.09,.02-.13Zm.05-5.45c.05-.07,.09-.12,.12-.13s.06-.02,.1,0c.04,.02,.08,.08,.13,.18,.05,.08,.07,.14,.06,.18,0,.04-.04,.09-.12,.16-.1,.1-.19,.12-.27,.07-.16-.08-.16-.24-.02-.47Zm5.03-.53s0-.03,0-.04,0-.03,0-.05c0-.02,0-.04,0-.05,0-.19,.07-.39,.22-.6,.14-.21,.31-.32,.5-.32,.12,0,.23,.04,.32,.13,.12,.08,.18,.19,.18,.31s-.07,.31-.2,.56c-.13,.29-.2,.46-.2,.52,0,.05,.02,.07,.07,.07,.02,0,.1-.02,.22-.07,.17-.07,.29-.11,.38-.11,.11,0,.21-.03,.31-.09,.16-.08,.26-.08,.31,.02,.05,.08,.02,.18-.07,.29-.08,.11-.1,.27-.05,.49,.02,.08,.04,.19,.04,.31,0,.23-.11,.36-.34,.4-.17,.02-.28,.01-.34-.04-.13-.1-.2-.08-.2,.05,0,.07-.01,.12-.04,.14-.02,.02-.08,.03-.18,.03h-.07c-.22,0-.32,.02-.32,.07,0,.02,.04,.07,.13,.14,.13,.1,.2,.22,.2,.36,0,.2-.11,.31-.32,.31h-.07c-.08,0-.2,.21-.34,.63-.16,.42-.23,.66-.23,.72,0,.04,.01,.05,.04,.05l.07-.04c.1-.05,.19-.07,.27-.07,.06,0,.23,.03,.51,.1,.28,.07,.42,.11,.42,.14,0,.04-.17,.28-.52,.74-.35,.46-.55,.7-.61,.74-.08,.04-.18,.04-.28,0-.1-.04-.16-.09-.17-.16,0-.01,0-.05,0-.13,0-.07,0-.13,0-.16,0-.11-.02-.16-.05-.16-.05,0-.07,.05-.07,.14,0,.11-.07,.24-.2,.4-.14,.16-.22,.31-.23,.47l-.02,.23-.58,.16c-.3,.08-.55,.13-.76,.13h-.09c-.14-.02-.31,.02-.5,.14-.16,.11-.26,.16-.32,.16s-.09-.05-.09-.14c0-.17,.07-.27,.2-.31,.23-.06,.34-.18,.34-.36,0-.08-.01-.13-.04-.13-.02,0-.1,0-.22,.03-.1,.02-.16,.04-.2,.04-.11,0-.16-.05-.16-.16,0-.08,.05-.26,.16-.52,.1-.18,.14-.34,.14-.49,0-.13-.05-.26-.14-.4-.06-.07-.17-.28-.34-.61-.08-.19-.16-.32-.22-.38-.07-.06-.2-.12-.41-.18-.07-.04-.1-.13-.07-.27,.01-.11,0-.18,0-.21-.02-.03-.08-.08-.17-.14-.2-.11-.31-.26-.31-.47,0-.02,.01-.07,.04-.14,.07-.18,.24-.27,.5-.27,.1,0,.16-.02,.2-.05,.04-.04,.09-.14,.16-.31,.11-.22,.17-.38,.2-.5,.05-.24,.32-.49,.81-.74,.23-.12,.38-.25,.45-.38,.08-.14,.17-.22,.27-.22s.16-.08,.18-.23c.04-.28,.13-.41,.27-.41,.05,0,.08,0,.11,.02,.2,.04,.24,.1,.11,.2-.11,.08-.09,.2,.05,.34,.11,.11,.16,.26,.16,.45,0,.14,0,.24,.03,.28,.02,.04,.08,.1,.19,.17,.11,.06,.23,.16,.36,.29,.18,.2,.43,.31,.76,.31,.22,0,.33,0,.34-.02,.01-.01,.02-.04,.02-.07,0-.07-.02-.17-.05-.29-.03-.12-.06-.18-.08-.18-.05,0-.15,.05-.31,.16-.17,.11-.3,.14-.4,.11-.23-.07-.22-.18,.04-.32,.24-.14,.36-.3,.36-.47,0-.01,0-.03,0-.04Zm-4.4,5.34s.04-.04,.07-.04c.07,0,.17,.04,.28,.12,.11,.08,.17,.13,.17,.17,0,.08-.04,.21-.11,.38-.07,.17-.13,.25-.16,.25-.05,0-.1-.1-.17-.3-.07-.2-.1-.36-.1-.5,0-.05,0-.08,.02-.09Zm.16,6.89c0-.14,.08-.16,.25-.05,.06,.05,.05,.1-.04,.14-.14,.11-.22,.08-.22-.09Zm.05-11.48c0-.19,.11-.29,.32-.29,.04-.01,.05,0,.04,.05-.01,.05-.07,.13-.16,.23l-.18,.22-.02-.22Zm0,3.01c0-.12,.04-.13,.13-.04,.09,.1,.08,.14-.03,.14-.07,0-.11-.04-.11-.11Zm.67-3.8c-.1-.11-.11-.18-.04-.22,.04-.02,.1,.01,.2,.11,.08,.11,.09,.17,.02,.18-.06,.01-.12-.01-.18-.07Zm.32,8.82c0-.12,.03-.18,.09-.18,.05,0,.08,.03,.09,.1,.01,.07,0,.14-.04,.23-.04,.1-.07,.1-.11,.02-.02-.04-.04-.09-.04-.16Zm.41-1.19c-.06,.04-.1,0-.11-.09,0-.13,.04-.21,.11-.23,.04,0,.05,.05,.05,.14s-.02,.16-.05,.18Zm-.02,.22c.07-.1,.16-.13,.25-.11,.12,.01,.18,.1,.18,.25,0,.14-.03,.26-.09,.36l-.09,.2-.18-.22c-.11-.13-.16-.23-.16-.31,0-.04,.03-.1,.09-.18Zm.02-8.17c-.05-.07-.05-.13,0-.18s.11-.03,.18,.05c.07,.07,.05,.13-.05,.16-.05,.01-.09,0-.13-.04Zm.07-.52s-.03-.06-.03-.12c0-.05,.03-.1,.07-.14s.08-.05,.12-.03c.05,.04,.07,.1,.06,.18s-.03,.14-.08,.16c-.05,0-.1-.02-.14-.05Zm.4-2.14c-.04,.1-.08,.09-.14-.02-.07-.16-.06-.25,.04-.27,.05,0,.08,.03,.11,.1,.02,.07,.02,.13,0,.19Zm.47,10.49s.06-.07,.12-.07,.11,.02,.15,.07c.04,.05,.04,.1,.03,.17-.02,.07-.06,.11-.12,.14-.05,.02-.1,0-.14-.09-.05-.08-.06-.16-.04-.22Zm.27-9.83s.05-.04,.07-.04c.07,0,.14,.06,.22,.17s.11,.21,.11,.3-.03,.13-.09,.13l-.04-.02h-.04c-.1-.02-.16-.04-.2-.04-.05,0-.08-.07-.08-.22s0-.24,.04-.28Zm.29,9.94c-.12-.13-.18-.27-.18-.41,0-.1,.04-.23,.11-.4l.11,.25c.08,.18,.19,.31,.32,.38,.13,.1,.18,.17,.14,.22-.05,.06-.13,.08-.24,.07-.11-.01-.2-.05-.26-.11Zm.45-8.75s.1-.05,.14-.05c.06,0,.09,.05,.09,.16,0,.13-.04,.26-.11,.38-.17,.23-.25,.17-.25-.16,0-.17,.04-.28,.13-.32Zm.02,1.42c.11-.05,.16-.02,.16,.09,0,.04-.04,.05-.11,.05-.08,0-.13-.03-.13-.09,0-.02,.02-.04,.07-.05Zm.22-3.46c-.07,.1-.12,.09-.14-.02-.01-.12,.02-.19,.09-.22,.04,0,.06,.01,.08,.04,.02,.02,.02,.06,.02,.1,0,.04-.02,.08-.05,.1Zm.31,1.71c.11-.06,.18-.06,.22,0,.02,.06,0,.12-.05,.17-.06,.05-.13,.08-.2,.06-.16-.04-.14-.11,.04-.23Zm.07,3.37c-.02-.11-.07-.17-.13-.18-.02,.01-.04,.03-.05,.05,0,.05,.02,.11,.07,.18,.05,.07,.08,.11,.11,.11s.02-.05,0-.16Zm.02-4.05c-.01-.06,0-.1,.05-.11,.1,.01,.16,.05,.2,.13,0,.04-.02,.06-.06,.08-.04,.02-.08,.02-.13,0-.04-.02-.06-.05-.06-.09Zm.22-7.22c0-.07,.04-.11,.11-.11,.06,0,.09,.05,.09,.14,0,.16-.05,.19-.14,.09l-.05-.13Zm0,20.36c0-.08,0-.14,.03-.15,.02-.02,.06-.02,.12,0,.11,.02,.16,.1,.16,.22,.01,.1-.04,.14-.14,.14s-.16-.07-.16-.2Zm.4-4.12c-.08-.07-.07-.14,.04-.22,.07-.02,.13,0,.16,.07,.02,.07,.01,.13-.04,.16-.05,.04-.1,.03-.16-.02Zm.2-1.49c.08-.06,.14-.08,.18-.06s.08,.09,.13,.21c.06,.14,.07,.23,.04,.26-.03,.03-.12,.05-.26,.05-.11-.01-.17-.08-.18-.2-.02-.11,0-.19,.09-.25Zm.43,.97c.05-.08,.08-.14,.11-.17,.02-.03,.05-.04,.07-.02,.02,.02,.06,.06,.11,.13,.07,.1,.07,.22,0,.36-.04,.07-.07,.12-.09,.15-.02,.03-.05,.05-.06,.05-.02,0-.04,0-.06-.03-.02-.02-.05-.06-.09-.11-.07-.11-.07-.23,.02-.38Zm-.04-3.1v-.27l.2,.07c.07,.02,.17,.08,.3,.16,.13,.08,.24,.14,.33,.16,.19,.04,.29,.1,.29,.2,0,.06-.02,.11-.07,.16-.06,.06-.11,.09-.16,.09s-.14-.02-.29-.05c-.25-.06-.41-.12-.49-.19-.07-.07-.11-.18-.11-.33Zm.23-4.61c.16-.19,.29-.22,.41-.07,.05,.06,.03,.13-.04,.22s-.17,.13-.28,.14c-.11,.01-.17,0-.19-.06-.02-.05,.01-.13,.1-.23Zm-.02,3.83s.07-.05,.09-.05c.05,0,.09,.03,.14,.09,.04,.06,.06,.12,.06,.18,0,.1-.05,.14-.14,.14l-.04-.02h-.04c-.06-.02-.1-.07-.12-.15s0-.14,.04-.19Zm.31,3.47c.06-.06,.22,0,.47,.18l-.16,.11c-.1,.06-.18,.08-.25,.05-.05-.01-.08-.06-.09-.15-.01-.09,0-.15,.04-.19Zm.14-1.55s0,.05,.02,.09c.01,.04,.02,.07,.03,.1,0,.03,0,.05-.02,.07-.02,.02-.05,.03-.08,.03-.08,0-.13-.07-.13-.2,0-.12,.03-.18,.09-.18s.09,.03,.09,.09Zm.27,.31c.04-.12,.08-.11,.13,.02,.05,.13,.04,.2-.04,.2-.11,0-.14-.07-.09-.22Zm.32-2.81c.05-.13,.08-.2,.11-.2,.01,0,.06,.07,.14,.2,.08,.13,.13,.21,.13,.23s-.02,.04-.06,.04-.09,0-.15,0c-.06,0-.11-.02-.14-.04-.06-.05-.07-.13-.02-.23Zm.32-.92c.18-.05,.29-.07,.32-.05,.03,.01,.04,.08,.03,.2-.01,.12-.05,.23-.13,.31-.07,.09-.14,.14-.2,.14-.05,0-.12-.04-.21-.13-.09-.08-.13-.15-.13-.2,0-.12,.11-.21,.32-.27Zm-.25-3.58c0-.1,.03-.18,.1-.24,.07-.07,.15-.1,.24-.1,.11,0,.2,.04,.29,.13,.13,.13,.16,.26,.09,.4-.02,.05-.1,.11-.23,.18-.13,.07-.22,.11-.27,.11-.02,0-.07-.06-.13-.19-.06-.13-.09-.22-.09-.28Zm.4,5.67c-.07-.02-.09-.06-.05-.11,.06-.07,.12-.07,.18,.02,.02,.05,.02,.08,0,.1s-.07,.02-.12,0Zm.38,4.3s-.04,.02-.07,.02c-.06,0-.12-.02-.17-.06-.05-.04-.08-.09-.08-.14,0-.06,.04-.09,.13-.09,.01,0,.03,0,.05,0,.02,0,.04,0,.05,0,.11,.01,.17,.04,.19,.1,.02,.05-.02,.1-.1,.15Zm.04-4.55s.04-.07,.09-.07c.04,0,.1,.07,.21,.2,.1,.13,.15,.22,.15,.25,0,.01,0,.02-.03,.02-.02,0-.05,0-.08-.02-.01,0-.02,0-.04,0-.01,0-.02,0-.04,0-.1-.02-.17-.07-.23-.14-.05-.07-.07-.14-.04-.22Zm.25,3.56c-.06,0-.09-.03-.09-.09s.03-.09,.09-.09,.09,.03,.09,.09-.03,.09-.09,.09Zm.52-10.26s0-.07-.02-.14c-.01-.07-.02-.13-.02-.17s.02-.06,.05-.06,.07,.03,.09,.08c.02,.05,.05,.13,.07,.22s.04,.14,.04,.15c.02,.07,0,.11-.09,.11s-.13-.06-.13-.18Zm.31,5.47c-.08,.08-.14,.06-.18-.06s0-.19,.11-.19c.05,0,.08,.03,.1,.1,.02,.07,0,.12-.03,.15Zm.03,1.14s.01-.08,.06-.12,.1-.05,.14-.05c.11,0,.16,.05,.16,.14,0,.05-.04,.09-.13,.13-.06,.01-.11,0-.16,0s-.08-.05-.08-.09Zm.67,1.34c-.06-.06-.04-.11,.05-.14,.1-.04,.16-.01,.2,.07,.01,.04,0,.07-.03,.09-.03,.02-.07,.03-.12,.03-.05,0-.08-.02-.11-.04Zm.5-2.52c.07,.13,.11,.22,.12,.26,0,.04-.02,.09-.08,.14-.05,.05-.09,.07-.13,.07-.08,0-.15-.07-.21-.2-.05-.13-.08-.26-.08-.38,0-.16,.05-.2,.16-.14,.08,.04,.16,.12,.22,.25Zm1.01,14.18c.06-.1,.14-.09,.25,.02,.06,.06,.06,.11,0,.14-.06,.02-.12,.02-.19-.03-.07-.04-.09-.09-.06-.13Zm1.22-8.91c.04-.08,.08-.11,.14-.07,.04,.02,.05,.06,.05,.11,0,.08-.02,.13-.07,.13-.13,0-.17-.05-.13-.16Zm.88-17.57c-.08,.08-.14,.07-.18-.05-.01-.12,.02-.19,.11-.22,.05,0,.08,.04,.1,.11,.02,.07,0,.13-.03,.16Zm-.04,14.08c.05-.06,.1-.09,.16-.09,.1,0,.14,.07,.14,.22,0,.1-.02,.17-.07,.23-.06,.1-.13,.11-.22,.04-.13-.12-.14-.25-.02-.4Zm.32-2.65s-.04-.09,0-.13,.08-.06,.13-.06c.04,0,.07,.03,.11,.09,.04,.06,.05,.11,.04,.14-.07,.11-.16,.1-.27-.04Zm1.04-10.4s-.01-.08,0-.09c.01-.01,.04-.01,.07,0,.08,.02,.12,.09,.11,.2-.01,.05-.04,.07-.07,.05-.05-.02-.08-.08-.11-.16Zm.47,12.73c.02-.06,.05-.09,.07-.09,.1,0,.11,.05,.05,.16-.01,.04-.03,.05-.06,.05s-.05-.01-.06-.04c-.01-.02-.01-.05,0-.09Z"/><path class="b" d="M181.6,46.77c.13-.13,.27-.11,.41,.07,.06,.07,.05,.14-.02,.22-.07,.07-.13,.11-.18,.11s-.11-.04-.2-.13l-.14-.13,.13-.14Zm2.93-13.19c.05-.07,.13-.06,.23,.04,.1,.08,.06,.14-.11,.18-.06,.02-.11,0-.14-.05s-.03-.11,.02-.16Zm.02,14.02c.04-.07,.08-.06,.13,.04,.05,.1,.04,.14-.04,.14-.05,0-.08-.02-.1-.06-.02-.04-.02-.08,0-.12Zm.38-18.76c0-.1,.04-.1,.13-.02,.09,.08,.08,.13-.03,.13-.07,0-.11-.04-.11-.11Zm2.63,16.33c0-.26,.11-.4,.34-.4l.59,.11c.3,.07,.45,.19,.45,.36,0,.06,0,.11-.02,.14-.04,.17-.16,.25-.36,.25-.04,0-.15-.01-.34-.04-.3-.05-.49-.1-.56-.14-.07-.05-.11-.14-.11-.29Zm.83-.63s.08-.05,.13-.04c.05,.01,.07,.04,.07,.09,0,.06-.03,.09-.09,.09-.05,0-.08-.02-.11-.05-.02-.04-.02-.07,0-.09Zm1.12,5.62c.05-.08,.14-.13,.27-.13,.08,0,.14,0,.15,.03,.02,.02,.01,.05,0,.1-.07,.14-.19,.2-.34,.16-.08-.02-.11-.08-.07-.16Zm.49-4.68c.08-.08,.19-.13,.32-.13,.16,0,.27,.05,.34,.16,.07,.1,.11,.17,.11,.22s-.03,.14-.09,.27c-.12,.23-.3,.34-.54,.34-.17,0-.27-.07-.31-.2-.01-.02-.02-.07-.02-.14,0-.23,.06-.4,.18-.52Zm.13-2.52c.08-.08,.14-.07,.18,.04,.04,.12,0,.18-.09,.18-.06,0-.1-.02-.12-.07-.02-.05,0-.1,.03-.14Zm.49,2.11c.06-.07,.11-.07,.14,0,.02,.05,.02,.1,0,.14-.04,.08-.08,.1-.14,.04-.05-.06-.06-.12,0-.18Zm.6-7.34s-.06-.06-.06-.14,.02-.13,.07-.13c.14,0,.18,.07,.11,.2-.04,.06-.08,.08-.12,.07Zm.42,1.24s.04-.05,.1-.04c.05,0,.1,.03,.14,.06,.05,.05,.07,.12,.07,.22,0,.07-.03,.14-.1,.2s-.12,.07-.15,.04c-.06-.1-.08-.25-.05-.47Zm.56,3.83c.1-.02,.19-.04,.29-.04,.17,0,.26,.02,.27,.05,.02,.07,.04,.12,.04,.14,0,.13-.08,.2-.23,.2-.12,0-.22-.04-.31-.13-.13-.12-.15-.2-.05-.23Zm.36-2.92c0-.1,.07-.12,.2-.07,.06,.02,.07,.06,.04,.11-.04,.04-.07,.06-.11,.07-.04,.01-.07,0-.09,0s-.04-.05-.04-.1Zm.49,1.84c.06-.12,.15-.13,.27-.04,.08,.06,.08,.13,0,.2-.11,.08-.2,.11-.26,.06-.07-.04-.07-.12,0-.22Zm.5,5.29c.1-.04,.15-.05,.16-.05s.05,.03,.13,.09c.07,.06,.11,.16,.11,.29,0,.1-.02,.17-.07,.23-.16,.19-.33,.29-.52,.29-.08,0-.13-.04-.13-.11,0-.12,.04-.27,.12-.44,.08-.17,.15-.27,.21-.3Zm.4-14.71c.13-.08,.29-.13,.49-.13,.24,0,.49,.07,.74,.2,.19,.1,.31,.17,.35,.22,.04,.05,.06,.12,.06,.22,0,.18-.03,.32-.1,.42-.07,.1-.2,.22-.39,.35-.25,.17-.49,.26-.7,.27h-.18c-.11,0-.22-.06-.34-.18-.22-.22-.32-.47-.32-.77,0-.14,.04-.27,.11-.38,.02-.02,.12-.1,.29-.22Zm.31,6.75c-.07,.07-.13,.07-.16-.02-.01-.1,.02-.16,.11-.18,.05,0,.08,.02,.09,.07s0,.09-.04,.13Zm.11,13.68c-.12-.05-.17-.14-.16-.27,.01-.07,.06-.11,.14-.11,.05,0,.12,.03,.21,.09,.09,.06,.13,.11,.13,.14,0,.05-.04,.09-.12,.13-.08,.04-.15,.04-.21,.02Zm.27-9.2c-.1,0-.12-.07-.07-.2,.04-.06,.08-.07,.14-.04,.02,.02,.03,.07,.02,.13-.01,.07-.04,.1-.09,.1Zm.47,8.24c.07-.08,.17-.08,.29,0,.06,.05,.09,.08,.09,.09s-.03,.04-.09,.09c-.12,.08-.22,.08-.29,0-.05-.06-.05-.12,0-.18Zm.11-4.55c.05-.08,.1-.07,.14,.05,.01,.05,.02,.1,.02,.16-.01,.12-.03,.19-.04,.22-.02,.02-.06,.02-.12-.02-.12-.05-.12-.19,0-.41Zm-.04,.94s.11-.07,.19-.06c.08,0,.12,.03,.13,.08,.01,.05,0,.1-.04,.14-.04,.05-.08,.07-.14,.07s-.11-.03-.14-.09c-.04-.06-.04-.11,0-.14Zm1.01-6.64s.13-.04,.23,.04c.05,.05,.07,.08,.07,.1s-.02,.06-.07,.12c-.06,.06-.12,.08-.18,.05-.06-.02-.09-.07-.1-.14,0-.07,0-.12,.04-.17Zm.11-5.44c.08-.05,.15-.04,.2,.02,.08,.1,.07,.19-.04,.29-.08,.08-.15,.07-.2-.05-.06-.12-.05-.2,.04-.25Zm.18,11.86c.02-.07,.07-.1,.13-.09,.06,.01,.09,.06,.09,.14,0,.1-.02,.16-.05,.18-.02,.01-.05,0-.08-.02-.03-.02-.05-.06-.07-.1s-.02-.08,0-.12Zm.47-11.25s0-.04,0-.06c.02-.02,.04-.02,.06,0,.02,.01,.04,.03,.06,.06,.02,.03,.02,.06,0,.08-.01,.02-.03,.04-.05,.04-.06,0-.09-.04-.09-.11Zm1.01-8.42c.05-.06,.13-.1,.24-.11,.11-.01,.2,.01,.24,.07,.05,.05,.07,.15,.07,.31,0,.12-.02,.22-.05,.29-.04,.08-.12,.13-.25,.13-.1,0-.18-.04-.25-.11-.06-.06-.09-.16-.09-.29s.03-.23,.09-.29Zm1.31,10.26c.02-.07,.06-.11,.11-.11s.08,.03,.11,.1c.02,.07,.02,.12-.02,.15-.05,.05-.1,.05-.15,0-.05-.04-.07-.09-.04-.15Zm1.8,3.83s.03-.04,.09-.05c.06,0,.13,0,.2,0,.07,.01,.11,.03,.13,.05,.02,.04,0,.09-.07,.16-.06,.06-.13,.05-.22-.02-.08-.06-.13-.11-.13-.16Zm.32-1.57c.12-.07,.22-.06,.29,.04,.05,.06,.04,.12-.03,.17-.07,.05-.13,.08-.21,.08-.06-.01-.1-.05-.12-.13-.02-.07,0-.13,.06-.16Zm1.62-4.97c-.08-.08-.07-.14,.05-.18,.08-.02,.14,0,.18,.09,.02,.06,0,.1-.06,.13-.07,.02-.12,.01-.17-.04Zm.13,3.56c.06-.05,.12-.06,.18-.04s.09,.06,.09,.12-.03,.1-.09,.11-.12,0-.18-.05c-.06-.04-.06-.08,0-.13Zm.11,1.13c.05-.08,.13-.08,.23,0,.12,.1,.12,.14,0,.14-.16-.01-.23-.06-.23-.14Z"/><path class="b" d="M375.34,34.85c.07-.08,.15-.1,.23-.06,.08,.04,.11,.12,.1,.24-.01,.11-.08,.17-.22,.18-.13,.01-.2-.03-.2-.13s.03-.17,.09-.23Zm.79,4.66c.07-.04,.13-.05,.16-.05,.08,0,.13,.04,.13,.13,0,.06-.04,.1-.11,.13-.14,.04-.23,.01-.25-.07,0-.05,.02-.09,.07-.13Zm.04,1.71c0-.18,.04-.27,.11-.27,.05,0,.07,.04,.07,.13s-.03,.16-.09,.22c-.05,.05-.07,.07-.08,.07,0,0,0-.05,0-.14Zm.13-2.92s0-.08,.02-.09c.07,0,.12,.04,.14,.13,.01,.06,0,.09-.02,.09-.07,0-.12-.04-.14-.13Zm3.35-3.33s.04-.12,.12-.24,.12-.2,.12-.23c0-.04,.03-.07,.09-.11,.08-.04,.22-.02,.41,.04,.24,.08,.36,.22,.36,.41,.01,.07,.03,.1,.05,.09,.05-.02,.12-.01,.22,.04s.23,.03,.4-.05c.18-.1,.27-.14,.27-.13,.04,.06,.07,.15,.1,.28,.03,.13,.04,.21,.03,.24-.02,.06-.02,.08,.02,.07,.05,0,.11-.04,.18-.13,.08-.1,.23-.14,.45-.14,.23,0,.36-.02,.4-.05,.06-.04,.12,0,.18,.09,.06,.08,.13,.13,.22,.13,.06,0,.15,.03,.27,.09,.12,.06,.21,.09,.27,.09,.11,0,.18-.05,.22-.16,.01-.08,.05-.17,.12-.25,.07-.08,.12-.13,.17-.13,.04,0,.04,.08,.02,.23-.01,.05-.02,.1-.02,.16,0,.1,.07,.21,.2,.34,.14,.17,.21,.31,.2,.43-.01,.11,.04,.2,.14,.27,.12,.07,.22,.23,.31,.47,.11,.29,.18,.43,.22,.43,.01,0,.02-.03,.02-.09,0-.08,.02-.13,.07-.13,.13,0,.28,.16,.43,.47,.07,.14,.1,.23,.08,.27s-.11,.05-.26,.05c-.18,0-.27-.02-.27-.05,0-.05-.05-.12-.15-.22-.1-.1-.17-.14-.21-.13-.04,.02-.04,.09-.02,.2s.07,.2,.13,.27c.05,.06,.12,.09,.22,.1,.1,0,.17-.02,.22-.06,.05-.05,.1-.05,.14,0,.04,.04,.1,.04,.18,0,.05-.02,.08-.03,.09-.03,.01,0,.01,.03,0,.08-.01,.05-.09,.1-.24,.15-.15,.05-.29,.08-.42,.08h-.09c-.13-.02-.2-.02-.2,0,0,.14,.05,.22,.16,.22,.04,0,.06,.01,.06,.04s0,.05,0,.08c-.01,.03-.01,.06,0,.08,.01,.02,.04,.03,.07,.02,.07-.02,.13-.04,.18-.04s.07-.05,.07-.14c0-.12,.04-.18,.11-.19,.07,0,.16,.04,.27,.13,.16,.16,.17,.24,.05,.25-.07,0-.13,.03-.19,.09-.05,.06-.06,.11,0,.16,.04,.04,.11,.04,.21,0,.1-.04,.17-.08,.19-.14,.07-.18,.2-.15,.38,.09,.2,.24,.23,.35,.09,.34-.01-.01-.03-.02-.05-.02-.02-.01-.07-.02-.13-.02-.19,0-.29,.1-.29,.31,0,.11,.04,.21,.13,.31,.11,.13,.16,.23,.16,.31,0,.08-.02,.13-.07,.13-.1,0-.2-.1-.32-.29-.08-.16-.14-.24-.18-.25l.02,.14s.02,.02,.02,.04c.04,.11,.05,.22,.05,.34,0,.11-.02,.18-.05,.22-.04,.07,.02,.12,.18,.14,.11,0,.17,0,.2,.03,.02,.02,.04,.07,.04,.15,0,.1-.03,.17-.09,.21-.06,.04-.09,.08-.09,.12,0,.06,.02,.14,.07,.23,.01,.02,.02,.05,.04,.08,.01,.03,.02,.05,.03,.07,0,.02,.01,.04,.02,.05,0,.02,.01,.03,.03,.05v.02h-.04s-.05,.02-.07,.03-.06,.02-.1,.03c-.04,.01-.08,.02-.12,.02-.14,.02-.23,.03-.25,.02-.02-.01-.02-.05,0-.13,.02-.11,.05-.26,.07-.47,.01-.05,.02-.11,.02-.18,0-.1-.09-.23-.27-.4-.21-.18-.31-.27-.32-.27,0,.04,.02,.1,.05,.2,.05,.11,.06,.29,.04,.56-.01,.22,.02,.38,.11,.49,.12,.14,.14,.23,.05,.25l-.07-.02c-.07-.02-.11-.02-.13,.02-.01,.04,.02,.07,.09,.09,.04,.02,.05,.05,.05,.09s-.01,.07-.04,.1c-.02,.03-.02,.06,0,.1,.02,.04,.08,.06,.18,.07,.11,.01,.2,.1,.29,.25,.07,.12,.07,.26,0,.43l-.09,.23-.16-.14c-.12-.11-.18-.22-.18-.34,0-.16-.03-.23-.09-.23s-.08,.07-.07,.2c.01,.13,0,.21-.04,.23-.05,.02-.07,.1-.07,.22,0,.07,0,.12-.03,.14-.02,.02-.05,.03-.1,.02-.08-.02-.13,.01-.13,.11s.05,.16,.14,.18c.07,.01,.22,.09,.45,.23,.22,.13,.32,.24,.32,.32,0,.06-.06,.09-.18,.09-.14,0-.27,.05-.37,.16-.1,.11-.15,.24-.15,.4,0,.12,0,.19-.02,.22-.01,.02-.05,.04-.11,.05-.07,.02-.15,0-.23-.05h-.02l-.02-.02c-.07,0-.16,.06-.26,.18-.1,.12-.15,.21-.15,.27,0,.08-.03,.2-.09,.36-.06,.19-.1,.55-.13,1.06l-.04,.79-.29,.27c-.17,.17-.32,.25-.45,.25h-.13c-.42-.04-.73-.23-.92-.59-.14-.24-.23-.64-.25-1.19,0-.2-.03-.37-.09-.49-.05,.01-.07,.06-.07,.14,0,.19-.02,.31-.07,.36-.05,.05-.11,.07-.18,.07s-.11-.02-.11-.07c0-.04,.03-.05,.09-.05,.11,0,.13-.06,.07-.18-.05-.07-.11-.13-.2-.16-.14-.05-.29-.04-.45,.04-.17,.1-.26,.16-.27,.18-.04,.06-.08,.08-.14,.06-.06-.02-.1-.06-.11-.13,0-.01,0-.03,0-.04,0-.02,0-.03,0-.05,0-.05,0-.11,.02-.19s.02-.13,.02-.17c0-.08-.02-.13-.07-.13-.04,0-.09,.02-.16,.05-.05,.02-.08,.04-.11,.04-.16,0-.23-.13-.23-.38,0-.13,0-.2,.02-.2-.01,0-.04,.03-.07,.09-.07,.1-.16,.14-.25,.14-.08,0-.14,.02-.16,.05-.06,.1-.21,.07-.45-.09-.13-.08-.19-.19-.18-.31,0-.05,0-.08,0-.1,0-.02,.02-.04,.04-.05,.02-.02,.04-.03,.07-.04,.03,0,.08,0,.15,0l.27-.04-.02-.04s-.06-.06-.1-.1c-.04-.04-.08-.08-.1-.12-.16-.16-.25-.2-.27-.13,0,.04,.02,.09,.05,.16s0,.11-.09,.11c-.07,0-.12,.02-.13,.04-.02,.03-.03,.11-.05,.24,0,.07-.02,.12-.07,.14-.02,.01-.04-.04-.05-.14,0-.04,0-.08-.02-.14-.01-.12-.02-.2-.03-.23s-.02-.06-.04-.07-.07-.02-.14-.02c-.1,0-.16,0-.19-.03s-.05-.08-.06-.19c-.04-.14-.01-.26,.07-.34,.06-.07,.08-.12,.06-.14s-.08,0-.17,.03c-.08,.04-.11,.12-.09,.25,.02,.13,0,.23-.07,.31-.07,.07-.08,.11-.04,.11,.04,0,.02,.02-.04,.05-.06,.04-.15,.04-.26,0s-.17-.08-.17-.14,.02-.09,.05-.09c.08,0,.14-.22,.18-.65,.02-.26,.02-.4-.02-.4l-.05,.02s-.07,.06-.07,.14v.18c0,.06-.02,.09-.05,.09s-.09-.02-.16-.05c-.08-.05-.13-.17-.13-.38s.05-.33,.16-.38c.12-.06,.14-.1,.07-.13-.1-.04-.2-.01-.31,.07-.07,.06-.15,.05-.23-.02-.02-.01-.1-.11-.23-.3s-.22-.28-.28-.28c-.11,0-.12-.09-.04-.27l.07-.13c.16-.2,.23-.2,.23,.02,0,.12,.04,.23,.11,.33,.07,.1,.16,.15,.27,.15l.04-.02h.04c.11-.02,.16-.05,.16-.09s-.06-.05-.18-.05c-.13,0-.2-.05-.2-.16,0-.1,.07-.18,.2-.25,.17-.1,.22-.16,.16-.18-.02-.01-.06-.01-.11,0-.17,.06-.25-.01-.25-.22,0-.08,.07-.16,.22-.22,.13-.06,.2-.1,.22-.13s-.02-.08-.11-.16c-.07-.07-.14-.34-.22-.79-.06-.44-.13-.7-.2-.77-.06-.06-.09-.13-.09-.2,0-.04,.01-.06,.04-.08s.06-.02,.1,0,.07,.04,.09,.08c.04,.07,.08,.1,.14,.07,.06-.02,.08-.08,.07-.16-.02-.11,.02-.22,.13-.34,.17-.24,.18-.38,.04-.41-.06-.01-.1,0-.11,.02-.01,.02-.02,.08-.02,.16,0,.23-.08,.24-.23,.04-.08-.1-.11-.19-.09-.29,.05-.16,.11-.23,.2-.23,.05,0,.13,.02,.23,.05,.14,.05,.23,.07,.25,.07s.06-.02,.11-.07c.05-.07,.06-.13,.04-.19-.02-.05-.08-.07-.16-.04-.11,.02-.19-.02-.23-.13s-.01-.16,.11-.16c.06,0,.09-.04,.09-.13s-.05-.13-.16-.13c-.07,0-.11-.01-.11-.04-.01-.05,.04-.07,.16-.05h.05c.12,.02,.18,0,.18-.09,0-.18,.12-.21,.36-.09,.08,.05,.14,.07,.17,.05,.03-.01,.07-.07,.12-.16,.06-.12,.18-.27,.36-.45,.18-.18,.27-.29,.27-.32s-.05-.1-.14-.2c-.1-.1-.14-.16-.14-.2,0-.05,.04-.09,.11-.13,.07-.06,.14-.04,.2,.05,.04,.05,.06,.09,.06,.13s.02,.07,.04,.08c.02,.01,.07,.02,.17,.04h.09c.28,0,.41-.08,.41-.23,0-.06,.03-.09,.09-.09,.05,0,.09-.04,.13-.13s.08-.13,.12-.13c.06,0,.09-.02,.09-.05,0-.06-.08-.09-.24-.09s-.24-.01-.24-.04Zm-3.35,8.39s.03-.03,.1-.03c.07,0,.14,.02,.22,.04,.07,.04,.05,.08-.05,.13-.18,.08-.27,.04-.27-.14Zm.36-3.89c0-.07,.01-.11,.04-.11,.07,.01,.11,.1,.13,.27,0,.07,0,.16,.02,.27s.02,.19,.02,.23c0,.13-.05,.25-.14,.34l-.18,.18-.13-.14c-.13-.17-.11-.25,.07-.25,.07,0,.11-.02,.11-.05,0-.02-.04-.03-.11-.02-.12,.02-.15-.03-.09-.16,.02-.06,.06-.13,.11-.22,.11-.16,.16-.27,.16-.34Zm-.16-2.54c.05-.08,.11-.08,.2,.02,.02,.07,.01,.13-.04,.18-.04,.02-.08,0-.13-.05-.05-.06-.06-.11-.04-.14Zm.04,3.98c0-.11,.02-.16,.05-.16s.07,.05,.1,.15c.03,.1,.03,.17,0,.19-.02,.02-.05,.03-.07,.02-.02-.01-.04-.04-.06-.07-.02-.04-.03-.08-.03-.13Zm.31-4.01c-.06-.07-.06-.14,0-.19,.05-.05,.12-.04,.19,.04,.04,.04,.04,.08,.03,.12-.02,.04-.05,.07-.09,.07-.04,0-.08,0-.12-.04Zm.31-.14c0-.13,.08-.17,.25-.11l.07,.05s-.03,.04-.08,.06c-.05,.02-.11,.03-.16,.03s-.08-.01-.08-.04Zm.07,2.88s.08,0,.13-.11c.01-.04,.01-.05,0-.05-.04,0-.07,.02-.11,.06-.04,.04-.04,.08-.02,.1Zm.67-3.53c0-.12-.09-.25-.27-.4h.22c.08,0,.14,0,.18-.03,.04-.02,.04-.05,.02-.08-.02-.06,0-.09,.05-.09s.09,.07,.09,.2c0,.14-.03,.26-.09,.36-.12,.19-.19,.2-.2,.04Zm.18,6.53c0-.1-.03-.1-.09,0l-.07,.14-.09,.2,.13-.14c.08-.08,.13-.15,.13-.2Zm-.09,2c.18-.14,.27-.13,.27,.04,0,.19-.08,.29-.25,.29-.1,0-.14-.03-.14-.1s.04-.14,.13-.23Zm-.09-8.19c0-.08,.1-.13,.31-.13,.02-.01,.04,0,.04,.04,.01,.05-.01,.1-.07,.14-.05,.04-.11,.05-.17,.04-.07-.01-.1-.04-.1-.09Zm.18,6.95c.02-.11,.01-.18-.04-.22-.05-.05-.07-.04-.07,.04l.04,.18c.02,.06,.04,.09,.04,.09s.01-.03,.03-.09Zm.18,1.71c.16-.16,.23-.16,.23,0,0,.11-.05,.17-.16,.18-.12,.01-.18,0-.19,0s.03-.07,.12-.17Zm.22-10.21s.05-.02,.09,0,.05,.06,.05,.11c0,.06-.03,.09-.09,.09-.05,0-.08-.02-.09-.07s0-.09,.04-.13Zm.34,10.39c-.01-.07-.01-.11,0-.13,.01-.01,.05,0,.13,.02,.07,.02,.11,.08,.11,.16,0,.1-.04,.13-.13,.09-.06-.04-.1-.08-.11-.14Zm.4,.47c.16-.18,.26-.16,.32,.07,.02,.1,.03,.16,0,.19-.02,.03-.09,.05-.21,.05-.11,0-.17-.03-.2-.09s0-.13,.07-.22Zm.58,.99c-.07,.07-.13,.07-.16-.02-.02-.1,0-.16,.09-.18,.05,0,.08,.02,.1,.07,.02,.05,0,.09-.03,.13Zm.05-.63c-.12,0-.14-.05-.07-.14,.07-.1,.13-.11,.18-.05l.02,.09c0,.07-.04,.11-.13,.11Zm.31,0s.02-.04,.07-.04c.07,0,.16,.02,.25,.07,.1,.05,.14,.1,.14,.14s-.07,.07-.2,.07c-.18,0-.27-.08-.27-.25Zm.58,2.92c-.07,0-.12-.04-.14-.11,0-.04,.02-.05,.05-.05h.04s.09,.04,.13,.11c.01,.02,.01,.04,0,.05-.01,.01-.04,.01-.07,0Zm.07-1.96c.13-.04,.2-.02,.2,.05,0,.06-.04,.09-.11,.09-.11,0-.16-.03-.16-.09,0-.02,.02-.04,.07-.05Zm.07,.59c.02-.06,.04-.07,.04-.02,.01,.01,.02,.04,.02,.09,.02,.11,.01,.19-.04,.23-.04,.04-.05,.02-.05-.05-.01-.07,0-.16,.04-.25Zm.31-2.32s-.05-.07-.14-.07c-.13,0-.19,.02-.18,.05s.06,.06,.14,.07c.12,.01,.18,0,.18-.05Zm-.07-10.46c-.06-.02-.09-.06-.09-.11,0-.07,.05-.16,.14-.26,.1-.1,.18-.15,.25-.15,.17,0,.16,.12-.04,.36-.11,.12-.2,.17-.27,.16Zm.38,15.7c.01,.07,0,.11-.02,.11-.06,0-.12-.05-.18-.14-.02-.06-.02-.09,.02-.09h.04c.07,.02,.12,.07,.14,.13Zm-.13-14.85s.03,.02,.09-.04l.04-.09s-.03-.02-.04,0c-.02,0-.04,.02-.05,.05-.02,.03-.03,.06-.03,.08Zm.65,12.62c-.05-.06-.07-.11-.07-.14s.02-.05,.05-.05,.08,.02,.14,.05c.05,.04,.08,.07,.08,.11,0,.02-.01,.05-.04,.07-.05,.05-.1,.04-.16-.04Zm.16-14.15c.06-.07,.1-.05,.13,.07,.01,.05,.05,.12,.11,.22,.06,.1,.09,.17,.09,.23,0,.12-.02,.18-.07,.18-.07-.01-.14-.11-.22-.31-.07-.2-.08-.34-.04-.4Zm.7-.22c.13-.04,.22-.04,.26-.03,.04,.02,.06,.07,.06,.17s-.01,.15-.04,.16c-.03,.01-.1,0-.22-.05-.1-.04-.15-.08-.16-.14-.01-.05,.02-.09,.11-.12Zm.41,1.87c0-.14-.04-.22-.11-.22-.08,0-.11,.04-.07,.11l.07,.22c.04,.13,.07,.16,.09,.07,.01-.05,.02-.11,.02-.18Zm.36-.58c-.06,0-.09-.03-.09-.09s.07-.09,.2-.09c.11,0,.16,0,.16,.02s-.02,.04-.07,.07c-.07,.06-.14,.09-.2,.09Zm.34,1.31s-.01-.04-.04-.04c-.01,0-.02,.01-.02,.04,0,.01,0,.02,.02,.02,.02,0,.04,0,.04-.02Zm.31,12.76c0,.12-.04,.14-.11,.07-.11-.08-.13-.14-.05-.18,.01-.01,.03-.02,.05-.02,.07,0,.11,.04,.11,.13Zm.18-13.41c.06-.1,0-.16-.16-.18-.1-.01-.16,0-.18,.05-.01,.02,0,.06,.05,.1s.1,.07,.15,.08c.05,.01,.1,0,.13-.05Zm-.05,11.07c0-.23,.04-.34,.11-.34,.04,0,.07,.04,.09,.11,.02,.07,.04,.14,.04,.2s0,.1-.02,.11c-.02,0-.05,0-.08,.02-.03,.01-.05,.02-.07,.03-.02,0-.03,0-.04-.02s-.02-.05-.02-.1Zm.23-10.31l-.14-.14s0,.04,0,.09,0,.09,0,.12,0,.06,.02,.1c.01,.04,.03,.06,.04,.06,.02,0,.04,0,.08,0,.05-.02,.07-.04,.08-.05,0-.01,0-.03,0-.05-.01-.02-.04-.06-.09-.11Zm-.05-1.75s.02-.05,.05-.05c.05,0,.11,.03,.19,.09,.08,.06,.12,.11,.12,.16,0,.04-.04,.05-.13,.05-.05,0-.1-.03-.15-.09-.05-.06-.08-.11-.08-.16Zm.09,10.42s-.07-.1-.07-.14c0-.1,.05-.14,.14-.14,.05,0,.1,.03,.14,.09,.05,.05,.04,.11-.02,.2-.06,.06-.13,.06-.2,0Zm.2,.81c-.1,0-.14-.05-.14-.14,0-.16,.07-.23,.2-.23,.04,0,.08,.03,.14,.09,.05,.05,.05,.11,0,.18-.05,.07-.11,.11-.2,.11Zm.22-10.08c.13-.06,.23-.01,.31,.14,.06,.12,.09,.19,.09,.22s-.04,.04-.13,.04c-.05,0-.11-.03-.17-.09-.07-.06-.11-.12-.13-.18-.02-.06,0-.1,.03-.13Zm.14,2.88s0-.04-.07-.11c-.04,0-.01,.04,.07,.11Zm.79,.36s-.12-.08-.32-.18-.33-.14-.38-.14h-.02s.11,.08,.33,.21c.22,.13,.34,.19,.37,.19,.04,0,.04-.02,.02-.07Zm-.68,3.92c.06-.1,.14-.08,.25,.04,.05,.06,.07,.09,.07,.1,0,0-.04,.02-.11,.03-.08,.01-.15,0-.19-.04-.04-.04-.05-.08-.03-.13Zm.25,1.37s.12-.06,.25-.04,.22,.05,.27,.1c.05,.05,.07,.09,.06,.13s-.05,.1-.13,.2l-.16,.22-.16-.14c-.19-.19-.23-.34-.13-.45Zm.27-2.56c-.07,.05-.13,.01-.16-.11-.02-.12,.02-.18,.13-.18,.06,0,.09,.04,.1,.12,0,.08-.01,.14-.06,.17Zm-.11,1.3c-.05-.11-.01-.18,.11-.22,.07,0,.11,.03,.13,.09,0,.06-.03,.11-.1,.14-.07,.04-.11,.03-.13-.02Zm.23,.25c0-.11,.04-.19,.12-.23,.08-.05,.16-.02,.24,.07,.02,.02,.04,.05,.04,.09,0,.08-.08,.13-.23,.13-.11,0-.16-.02-.16-.05Zm.11-1.84s.03-.04,.09-.04c.16,0,.32,.05,.49,.14,.05,.02,.08,.05,.11,.09,.02,.04,.02,.06,0,.08-.02,.02-.06,.03-.11,.03-.06,0-.09,.03-.09,.09s-.03,.1-.09,.12c-.06,.02-.11,0-.16-.04-.05-.04-.1-.11-.15-.22-.05-.11-.08-.19-.08-.25Zm.07,2.11c.06-.08,.13-.11,.22-.08,.09,.03,.14,.1,.14,.21,0,.06,0,.1-.03,.11-.02,.01-.07,0-.15-.02-.12-.04-.19-.07-.22-.1-.02-.03-.01-.07,.04-.12Zm.02,2.07c-.06-.02-.07-.06-.04-.11,.06-.05,.11-.04,.16,.02,.02,.05,.02,.08,0,.1s-.07,.01-.12,0Zm0-1.53c.06-.14,.13-.13,.22,.05,.06,.16,.09,.26,.09,.31s-.02,.07-.05,.07c-.05,0-.11-.05-.17-.14-.07-.09-.1-.17-.1-.24l.02-.02v-.04Zm.04-6.86c0-.07,.02-.11,.07-.11,.06,0,.09,.04,.09,.11s-.03,.11-.09,.11c-.05,0-.07-.04-.07-.11Zm.34,8.95c-.07-.02-.09-.06-.05-.11,.06-.1,.12-.09,.18,.02,.02,.05,.02,.08,0,.1-.03,.02-.07,.02-.12,0Zm.22-5.58c-.07,0-.11-.03-.11-.09,0-.12,.05-.18,.14-.18,.05,0,.07,.05,.07,.14,0,.08-.04,.13-.11,.13Zm.25-.11s.1-.06,.15-.03c.05,.03,.08,.09,.08,.17,0,.1-.04,.14-.13,.14-.07,0-.12-.03-.14-.1-.02-.07-.01-.13,.04-.19Zm.13,6.89s-.08,.03-.11,.02c-.05-.02-.04-.07,.04-.13,.06-.06,.11-.05,.14,.02,.02,.04,0,.07-.07,.09Zm.05-5c-.11-.01-.16-.04-.16-.07,0-.05,.06-.07,.18-.07,.08,0,.14,.02,.18,.07,.05,.06,.03,.09-.05,.09-.04,0-.08,0-.14-.02Zm0,2.25c-.11-.04-.14-.08-.11-.14,.05-.07,.1-.07,.16,0l.04,.09s.01,.06,0,.06c-.01,0-.04,0-.09,0Zm.54,.86c0,.11-.04,.12-.13,.04s-.08-.13,.03-.13c.07,0,.11,.03,.11,.09Zm.81-6.48s.07-.04,.13-.03c.06,.02,.09,.04,.09,.08,0,.05-.02,.08-.05,.09-.05,.02-.09,.02-.13-.02-.04-.04-.05-.08-.03-.13Z"/><path class="b" d="M0,52.1s.01-.06,.04-.04c.02,.02,.02,.05,0,.07-.01,.01-.02,.01-.03,0,0,0,0-.02,0-.04Zm.05-7.79c-.04-.12-.04-.18,0-.18s.22,.05,.55,.15,.54,.17,.64,.21c.11,.05,.16,.14,.16,.27,0,.14-.03,.25-.09,.31-.05,.06-.09,.08-.12,.07-.03-.01-.1-.07-.22-.18-.18-.16-.35-.25-.52-.29-.16-.04-.25-.07-.29-.11-.04-.04-.07-.12-.11-.25Zm1.03,4.79c.16-.05,.27-.02,.34,.09,.1,.12,.07,.19-.07,.2-.06,.01-.12,0-.18-.04-.22-.13-.25-.22-.09-.25Zm.11-15.52c.05-.08,.1-.08,.16,.02,.06,.11,.05,.16-.04,.16-.06,0-.1-.02-.13-.05-.02-.04-.02-.08,0-.13Zm.32,20.18c.12,.01,.18,.09,.18,.23,0,.1-.03,.14-.09,.14-.05,0-.11-.04-.18-.11s-.11-.14-.11-.2,.04-.09,.11-.09l.04,.02h.05Zm.76-21.13c.17-.08,.26-.05,.27,.09,.01,.08-.03,.14-.13,.18-.02,.01-.06,.02-.11,.02-.12,0-.18-.04-.18-.13,0-.05,.05-.1,.14-.16Zm1.4,14.47s.1-.11,.29-.18c.19-.07,.35-.11,.47-.11,.22,0,.32,.16,.32,.47,0,.17-.05,.26-.14,.29-.04,.01-.08,.02-.14,.02-.25,0-.46-.08-.63-.25-.11-.11-.16-.19-.16-.23Zm1.57-6.8c-.08,.08-.14,.06-.16-.06-.02-.13,.01-.19,.11-.19,.05,0,.08,.03,.09,.1,.01,.07,0,.12-.04,.15Zm0,9.72c.11-.14,.22-.13,.32,.05,.05,.07,.07,.12,.07,.14s-.02,.07-.07,.14c-.08,.11-.13,.16-.14,.16-.02,0-.07-.07-.14-.22-.07-.14-.08-.24-.04-.29Zm.25-18.92c-.07,.07-.13,.07-.16-.02-.02-.1,0-.16,.09-.18,.05,0,.08,.02,.1,.07s0,.09-.03,.13Zm.18,21.92c.05-.07,.11-.05,.18,.07,.06,.1,.05,.16-.02,.2-.04,.02-.07,.02-.11,0-.04-.03-.06-.07-.07-.13-.01-.05,0-.1,.02-.14Zm.25-4.57c.06-.04,.12-.02,.18,.04s.07,.12,.02,.18c-.05,.07-.1,.11-.14,.11-.07,0-.11-.06-.11-.18,0-.06,.02-.11,.05-.14Zm.05,5.15c0-.11,.06-.12,.18-.04,.07,.04,.08,.08,.02,.13-.08,.07-.14,.07-.18-.02-.01-.02-.02-.05-.02-.07Zm.76-6.98s-.05-.07-.05-.09c0-.1,.08-.14,.25-.14,.07,0,.11,.02,.11,.05s-.03,.08-.09,.14c-.07,.07-.14,.08-.22,.04Zm.05-2.77c.02-.06,.07-.09,.13-.09s.12,.03,.17,.08,.08,.11,.08,.17c0,.04-.01,.06-.04,.07-.06,.04-.11,.05-.16,.05-.13,0-.2-.07-.2-.2,0-.04,0-.07,.02-.09Zm.05-5.29c.04-.06,.1-.05,.2,.02,.18,.13,.17,.21-.02,.23-.07,.01-.13,0-.16-.05s-.04-.11-.02-.2Zm0,1.76c.01-.06,.05-.09,.11-.09s.1,.03,.11,.09c0,.06-.02,.11-.05,.16-.04,.07-.08,.07-.14,0-.04-.05-.04-.1-.02-.16Zm.36-5.29s-.01-.08,0-.09,.04-.01,.09,0c.04,0,.07,.02,.09,.05,.02,.04,.03,.07,0,.1-.02,.03-.05,.04-.08,.04-.05,0-.08-.04-.11-.11Zm.13,10.12c-.01-.06,0-.09,.04-.09,.08,0,.14,.04,.16,.11,0,.04-.02,.06-.04,.08-.03,.02-.06,.02-.1,0-.04-.02-.05-.05-.05-.09Zm.07-8.03c-.08-.05-.09-.1-.02-.14,.07-.05,.14-.04,.2,.02,.01,.01,0,.04,0,.07-.02,.04-.04,.06-.07,.07-.03,.01-.06,0-.1-.02Zm.14,9.92c.1-.1,.17-.08,.23,.05,.02,.06,0,.12-.05,.19-.06,.07-.11,.09-.16,.06-.04-.02-.06-.08-.06-.15,0-.08,0-.13,.04-.15Zm6.19-11.66c.07-.25,.21-.38,.41-.38,.04,0,.12,.14,.25,.43,.08,.18,.15,.29,.19,.33s.09,.05,.15,.03c.07-.04,.14-.05,.22-.05,.14,0,.29,.05,.45,.16,.26,.2,.61,.31,1.04,.31,.06,0,.13-.01,.2-.04,.1-.02,.17-.04,.23-.04,.18,0,.29,.03,.32,.09s0,.16-.11,.31-.16,.24-.16,.29c0,.06,.06,.11,.18,.14,.25,.11,.64,.38,1.15,.83l.27,.23c-.12,.11-.29,.27-.5,.49h.29c.2,0,.31,.04,.31,.13s-.08,.21-.23,.38l-.25,.29c.19,.14,.34,.26,.43,.34l-.13,.27c-.07,.17-.16,.32-.27,.45-.08,.08-.13,.16-.13,.22s.04,.18,.11,.36l.11,.27-.18,.22c-.12,.14-.25,.22-.38,.22-.08,0-.13,0-.14,.03-.01,.02-.02,.08-.04,.19v.23c0,.23,.04,.37,.13,.43,.08,.07,.14,.19,.16,.36,.01,.06,.02,.13,.02,.2,0,.1-.03,.14-.09,.14-.05,0-.11-.02-.18-.05-.07-.04-.13-.05-.18-.05-.12,0-.2,.13-.23,.38-.01,.12-.04,.21-.07,.27s-.1,.12-.19,.17c-.09,.05-.17,.11-.23,.17-.13,.13-.25,.2-.34,.2-.07,0-.14,0-.2-.02-.05-.01-.11-.02-.18-.02-.2,0-.33,.14-.38,.41-.06,.25-.17,.38-.34,.38-.11,0-.23-.02-.36-.07-.16-.05-.33-.03-.52,.05-.26,.12-.5,.19-.72,.2-.2,.02-.34,.05-.4,.07-.06,.02-.16,.11-.31,.27-.14,.16-.25,.25-.31,.28-.06,.03-.18,.04-.36,.04-.66,0-1-.34-1.01-1.03,0-.22-.03-.35-.09-.41-.06-.06-.19-.09-.4-.09-.13,0-.21,0-.24-.03-.03-.02-.04-.06-.04-.13,0-.12-.11-.29-.32-.5l-.32-.34-.29,.41c-.19,.28-.31,.41-.34,.41-.06,0-.21-.14-.44-.41-.23-.28-.35-.44-.35-.5,0-.1,.02-.23,.07-.41,.05-.17,.08-.26,.11-.26s.08-.04,.18-.11c.1-.07,.11-.16,.05-.27-.02-.07-.04-.11-.04-.13,0-.05,.09-.16,.27-.34,.14-.14,.22-.24,.22-.29s-.11-.08-.34-.09c-.12-.01-.2-.03-.23-.06-.03-.03-.07-.12-.12-.26l-.11-.31-.34,.02h-.13c-.14,0-.22-.03-.22-.09,0-.01,.01-.07,.04-.16,.02-.06,.05-.09,.09-.09,.06,0,.25,.08,.58,.23,.36,.16,.55,.23,.58,.23,.05,0,.07-.03,.07-.09,0-.12-.06-.26-.18-.41-.14-.19-.27-.47-.38-.83l-.2-.61,.13-.18c.08-.13,.13-.22,.13-.27,0-.17-.19-.26-.58-.29-.24-.01-.39-.08-.45-.2-.05-.1-.07-.15-.07-.16,0-.05,.07-.07,.2-.07,.02,0,.29,.01,.79,.04h.27l.11-.31c.08-.19,.16-.32,.23-.4,.07-.06,.11-.17,.11-.32,0-.28,.08-.26,.23,.05,.1,.22,.13,.32,.11,.32s-.07,0-.13-.02c-.1-.02-.14-.02-.14,0v.04s.02,.07,.05,.16,.07,.17,.09,.23c.05,.13,.08,.22,.11,.25,.02,.04,.06,.04,.11,.02,.16-.08,.23-.19,.23-.31,0-.07-.02-.18-.05-.32l-.11-.38,.16-.32c.11-.23,.22-.35,.32-.36,.11-.02,.18-.06,.22-.11,.02-.05,.06-.07,.11-.07,.06,.02,.05,.08-.04,.16l-.13,.11,.14,.16c.11,.11,.19,.16,.23,.16,.06,0,.11-.08,.14-.23,.02-.12,.05-.19,.07-.22,.02-.02,.1-.05,.22-.07,.17-.02,.31,.02,.41,.13,.11,.11,.23,.16,.36,.16,.17,0,.37-.06,.61-.18,.06-.02,.13-.05,.23-.09,.09-.04,.16-.07,.22-.1,.06-.03,.11-.04,.14-.04,.26-.06,.44-.25,.54-.56Zm-5.87,4.09c-.08,.08-.14,.07-.18-.05-.01-.12,.02-.19,.11-.22,.05,0,.08,.04,.1,.11,.02,.07,0,.13-.03,.16Zm.04,4.57c-.08-.08-.07-.15,.05-.2,.1-.02,.14,0,.14,.07,0,.06-.02,.1-.07,.14-.05,.03-.09,.03-.13,0Zm0,9.04s.06-.02,.12,0c.05,.02,.08,.05,.08,.09s-.04,.05-.13,.05c-.05,0-.08-.02-.1-.04-.02-.03,0-.06,.03-.1Zm.2-15.79s.04-.04,.13-.04c.06,0,.1,.04,.12,.11,.02,.07,0,.13-.04,.16-.02,.01-.06-.01-.12-.07-.05-.06-.08-.11-.08-.16Zm1.51-3.04c.04-.06,.09-.09,.16-.09,.13,0,.2,.07,.2,.22,0,.1-.04,.14-.13,.14-.04,0-.1-.03-.2-.09-.07-.06-.08-.12-.04-.18Zm.94,15.05c.02-.07,.06-.11,.11-.11s.08,.02,.1,.07c.02,.05,.02,.1,0,.14-.04,.06-.08,.07-.14,.04-.06-.04-.08-.08-.05-.14Zm1.84-14.27c.12-.05,.23-.07,.34-.07,.17,0,.33,.05,.49,.14,.19,.12,.29,.2,.29,.25s-.04,.1-.11,.14c-.13,.1-.26,.14-.4,.14-.19,0-.38-.08-.58-.25-.19-.16-.2-.28-.04-.36Zm1.39,11.11c0,.11-.05,.12-.14,.04-.04-.07-.02-.11,.04-.13,.07,0,.11,.03,.11,.09Zm.59-12.1c-.06-.06-.04-.11,.05-.14,.1-.04,.16-.01,.2,.07,.01,.04,0,.07-.03,.09s-.07,.03-.12,.03c-.05,0-.08-.02-.11-.04Zm1.82,10.51c.11-.17,.22-.17,.34,0,.08,.11,.09,.21,.02,.31-.06,.1-.11,.14-.14,.14s-.1-.05-.18-.14c-.08-.1-.1-.2-.04-.31Zm.52-9.25s.11-.04,.18-.04c.05,0,.08,.02,.09,.05,.01,.03,0,.07-.02,.12-.02,.05-.04,.08-.05,.1s-.03,.04-.05,.08c-.04,.05-.12,.1-.24,.16s-.22,.09-.28,.09l-.02-.02s.05-.13,.16-.29c.11-.16,.19-.24,.23-.25Zm1.17,6.59s.07-.05,.14-.05c.1,0,.25,.04,.47,.11-.1,.02-.23,.04-.41,.04-.14,0-.22-.02-.22-.05,0-.01,0-.02,0-.02,0,0,0,0,0-.02Zm.14-6.89c.08-.06,.14-.04,.18,.07,.02,.08-.01,.13-.11,.13-.06,0-.1-.02-.12-.06s0-.09,.04-.13Zm.2,7.42c0-.08,.03-.1,.09-.05,.08,.05,.1,.09,.05,.13-.01,.01-.03,.02-.05,.02-.06,0-.09-.03-.09-.09Zm.43-1.4c-.06-.14-.05-.22,.02-.22,.06,.01,.11,.05,.14,.13,.06,.17,.06,.26,0,.27-.05,0-.1-.05-.14-.14-.01-.01-.02-.02-.02-.04Zm.32-1.53s.16-.04,.44-.07c.28-.04,.43-.05,.46-.05,.05-.01,.11,0,.18,.05,.07,.05,.11,.1,.11,.14s-.05,.13-.14,.25l-.14,.18-.22-.11c-.17-.07-.28-.11-.34-.11-.05,0-.1-.02-.17-.06-.07-.04-.12-.09-.15-.13-.04-.05-.04-.08-.02-.09Zm.31-1.94s-.08,.02-.13,.02-.07-.01-.07-.04,.03-.06,.08-.12c.05-.05,.11-.1,.17-.14l.09-.05s.02,.1,.02,.14c0,.11-.05,.17-.16,.18Zm2.03,7.61c0-.11,.06-.12,.18-.04,.1,.06,.11,.12,.05,.18-.02,.02-.07,.02-.13-.02-.07-.04-.1-.08-.1-.13Zm.45-2.23c.07-.04,.13-.05,.16-.05,.06,0,.09,.05,.09,.14,0,.02,0,.05,0,.09,0,.04-.02,.08-.03,.12-.01,.04-.02,.08-.02,.1l-.14-.16c-.1-.12-.11-.2-.05-.23Zm3.4-13.41l.04-.07s.02,.06,0,.11l-.02,.04s-.02-.04-.02-.07Z"/></g></svg>