<?xml version="1.0" encoding="UTF-8"?><svg id="a" xmlns="http://www.w3.org/2000/svg" viewBox="0 0 299.13 120.5"><defs><style>.b{fill:#010101;}</style></defs><g><g><path class="b" d="M40.13,14.22V0h41.76V14.22h-12.6v50.04h-16.74V14.22h-12.42Z"/><path class="b" d="M93.5,15.57v7.74h.18c.9-2.94,2.34-5.17,4.32-6.71,1.98-1.53,4.17-2.29,6.57-2.29h2.61v15.12c-.72-.12-1.41-.21-2.07-.27-.66-.06-1.32-.09-1.98-.09-2.88,0-5.12,.63-6.71,1.89-1.59,1.26-2.38,3.51-2.38,6.75v26.55h-16.2V15.57h15.66Z"/><path class="b" d="M133,61.65c-.12-.9-.24-1.86-.36-2.88h-.18c-.9,2.16-2.33,3.78-4.28,4.86-1.95,1.08-4.19,1.62-6.71,1.62s-4.54-.32-6.25-.95-3.1-1.58-4.19-2.83c-1.08-1.26-1.86-2.76-2.34-4.5-.48-1.74-.72-3.66-.72-5.76,0-2.28,.23-4.26,.68-5.94,.45-1.68,1.18-3.13,2.21-4.37,1.02-1.23,2.4-2.28,4.14-3.15,1.74-.87,3.9-1.6,6.48-2.21l6.39-1.53c1.74-.42,2.97-1.04,3.69-1.84,.72-.81,1.08-1.96,1.08-3.46,0-3-1.38-4.5-4.14-4.5-1.56,0-2.7,.44-3.42,1.3-.72,.87-1.11,2.6-1.17,5.17h-14.04c0-3.54,.63-6.37,1.89-8.5,1.26-2.13,2.82-3.78,4.68-4.95,1.86-1.17,3.87-1.95,6.03-2.34,2.16-.39,4.17-.58,6.03-.58,2.82,0,5.41,.23,7.79,.67,2.37,.45,4.41,1.26,6.12,2.43s3.03,2.76,3.96,4.77c.93,2.01,1.4,4.61,1.4,7.79v23.76c0,2.28,.09,4.29,.27,6.03,.18,1.74,.6,3.24,1.26,4.5h-15.66c-.3-.84-.51-1.71-.63-2.61Zm-1.53-9c.78-1.32,1.17-3.33,1.17-6.03v-5.85h-.18c-.48,.66-1.22,1.07-2.21,1.21-.99,.15-2.09,.5-3.29,1.04-1.26,.6-2.13,1.4-2.61,2.38-.48,.99-.72,2.3-.72,3.92s.36,2.91,1.08,3.87c.72,.96,1.68,1.44,2.88,1.44,1.8,0,3.09-.66,3.87-1.98Z"/><path class="b" d="M171.44,0V12.06h-16.2V0h16.2Zm0,15.57v48.69h-16.2V15.57h16.2Z"/><path class="b" d="M193.84,15.57v5.94h.18c2.1-4.8,6.03-7.2,11.79-7.2,1.8,0,3.46,.2,5,.58,1.53,.39,2.86,1.1,4,2.12,1.14,1.02,2.04,2.37,2.7,4.05,.66,1.68,.99,3.84,.99,6.48v36.72h-16.2V32.13c0-2.04-.3-3.51-.9-4.41-.6-.9-1.62-1.35-3.06-1.35s-2.46,.45-3.06,1.35c-.6,.9-.9,2.37-.9,4.41v32.13h-16.2V15.57h15.66Z"/></g><g><path class="b" d="M34.85,56.06v10.94H17.79v8.78h15.98v10.51h-15.98v10.22h17.71v10.94H4.4V56.06h30.46Z"/><path class="b" d="M52.35,68.52v4.75h.14c1.68-3.84,4.82-5.76,9.43-5.76,1.44,0,2.77,.16,4,.47,1.22,.31,2.29,.88,3.2,1.69,.91,.82,1.63,1.9,2.16,3.24,.53,1.34,.79,3.07,.79,5.18v29.38h-12.96v-25.7c0-1.63-.24-2.81-.72-3.53-.48-.72-1.3-1.08-2.45-1.08s-1.97,.36-2.45,1.08c-.48,.72-.72,1.9-.72,3.53v25.7h-12.96v-38.95h12.53Z"/><path class="b" d="M109.3,68.52v38.3c0,2.54-.42,4.7-1.26,6.48-.84,1.78-1.99,3.19-3.46,4.25-1.46,1.05-3.18,1.81-5.15,2.27-1.97,.46-4.1,.68-6.41,.68-2.06,0-4.01-.16-5.83-.47-1.82-.31-3.42-.88-4.79-1.69-1.37-.82-2.45-1.93-3.24-3.35-.79-1.42-1.21-3.23-1.26-5.44h11.66c0,.96,.29,1.7,.86,2.23,.58,.53,1.37,.79,2.38,.79,.48,0,.96-.05,1.44-.14,.48-.1,.9-.31,1.26-.65,.36-.34,.66-.82,.9-1.44,.24-.62,.36-1.49,.36-2.59v-7.2h-.14c-.82,2.26-2.04,3.79-3.67,4.61-1.63,.82-3.34,1.22-5.11,1.22-1.3,0-2.62-.24-3.96-.72-1.34-.48-2.57-1.42-3.67-2.81-1.1-1.39-2-3.35-2.7-5.87-.7-2.52-1.04-5.8-1.04-9.83,0-3.74,.28-6.88,.83-9.4,.55-2.52,1.34-4.54,2.38-6.05,1.03-1.51,2.29-2.59,3.78-3.24,1.49-.65,3.17-.97,5.04-.97s3.53,.48,5.11,1.44,2.74,2.62,3.46,4.97h.14v-5.4h12.1Zm-19.62,23.44c.17,1.27,.41,2.27,.72,2.99,.31,.72,.7,1.2,1.15,1.44,.46,.24,1,.36,1.62,.36,.58,0,1.09-.12,1.55-.36,.46-.24,.84-.72,1.15-1.44,.31-.72,.54-1.71,.68-2.99,.14-1.27,.22-2.94,.22-5s-.07-3.66-.22-4.93c-.14-1.27-.37-2.27-.68-2.99-.31-.72-.7-1.21-1.15-1.48-.46-.26-.97-.4-1.55-.4-.62,0-1.16,.13-1.62,.4-.46,.26-.84,.76-1.15,1.48-.31,.72-.55,1.72-.72,2.99-.17,1.27-.25,2.92-.25,4.93s.08,3.73,.25,5Z"/><path class="b" d="M127.87,68.52v38.95h-12.96v-38.95h12.96Z"/><path class="b" d="M145.8,68.52v4.75h.14c1.68-3.84,4.82-5.76,9.43-5.76,1.44,0,2.77,.16,4,.47,1.22,.31,2.29,.88,3.2,1.69,.91,.82,1.63,1.9,2.16,3.24,.53,1.34,.79,3.07,.79,5.18v29.38h-12.96v-25.7c0-1.63-.24-2.81-.72-3.53-.48-.72-1.3-1.08-2.45-1.08s-1.97,.36-2.45,1.08c-.48,.72-.72,1.9-.72,3.53v25.7h-12.96v-38.95h12.53Z"/><path class="b" d="M182.52,95.3c0,2.11,.36,3.52,1.08,4.21,.72,.7,1.54,1.04,2.45,1.04,1.15,0,2.05-.47,2.7-1.4,.65-.94,.97-2.72,.97-5.36h11.66c-.1,4.8-1.32,8.41-3.67,10.84s-6.22,3.64-11.59,3.64c-3.12,0-5.74-.35-7.85-1.04-2.11-.7-3.82-1.85-5.11-3.46-1.3-1.61-2.22-3.71-2.77-6.3-.55-2.59-.83-5.74-.83-9.43s.31-6.91,.94-9.5c.62-2.59,1.61-4.7,2.95-6.34,1.34-1.63,3.06-2.82,5.15-3.56s4.6-1.12,7.52-1.12c2.59,0,4.86,.31,6.8,.94,1.94,.62,3.58,1.67,4.9,3.13,1.32,1.46,2.3,3.38,2.95,5.76,.65,2.38,.97,5.34,.97,8.89v3.96h-19.22v5.11Zm6.37-18.43c-.5-.96-1.45-1.44-2.84-1.44s-2.27,.48-2.77,1.44-.76,2.47-.76,4.54v1.73h7.13v-1.73c0-2.06-.25-3.58-.76-4.54Z"/><path class="b" d="M217.15,95.3c0,2.11,.36,3.52,1.08,4.21,.72,.7,1.54,1.04,2.45,1.04,1.15,0,2.05-.47,2.7-1.4,.65-.94,.97-2.72,.97-5.36h11.66c-.1,4.8-1.32,8.41-3.67,10.84-2.35,2.42-6.22,3.64-11.59,3.64-3.12,0-5.74-.35-7.85-1.04s-3.82-1.85-5.11-3.46c-1.3-1.61-2.22-3.71-2.77-6.3s-.83-5.74-.83-9.43,.31-6.91,.94-9.5c.62-2.59,1.61-4.7,2.95-6.34,1.34-1.63,3.06-2.82,5.15-3.56s4.6-1.12,7.52-1.12c2.59,0,4.86,.31,6.8,.94,1.94,.62,3.58,1.67,4.9,3.13,1.32,1.46,2.3,3.38,2.95,5.76,.65,2.38,.97,5.34,.97,8.89v3.96h-19.22v5.11Zm6.37-18.43c-.5-.96-1.45-1.44-2.84-1.44s-2.27,.48-2.77,1.44c-.5,.96-.76,2.47-.76,4.54v1.73h7.13v-1.73c0-2.06-.25-3.58-.76-4.54Z"/><path class="b" d="M252.14,68.52v6.19h.14c.72-2.35,1.87-4.14,3.46-5.36s3.34-1.84,5.26-1.84h2.09v12.1c-.58-.1-1.13-.17-1.66-.22-.53-.05-1.06-.07-1.58-.07-2.3,0-4.09,.5-5.36,1.51-1.27,1.01-1.91,2.81-1.91,5.4v21.24h-12.96v-38.95h12.53Z"/><path class="b" d="M275.54,97.53c.14,.67,.38,1.22,.72,1.66,.62,.91,1.54,1.37,2.74,1.37,1.01,0,1.88-.29,2.63-.86,.74-.58,1.12-1.39,1.12-2.45,0-1.15-.47-2.04-1.4-2.66-.94-.62-2.1-1.18-3.49-1.66-1.39-.48-2.89-.98-4.5-1.51-1.61-.53-3.11-1.25-4.5-2.16-1.39-.91-2.56-2.12-3.49-3.64-.94-1.51-1.4-3.49-1.4-5.94,0-1.73,.31-3.32,.94-4.79,.62-1.46,1.57-2.75,2.84-3.85,1.27-1.1,2.88-1.97,4.82-2.59,1.94-.62,4.24-.94,6.88-.94,9.74,0,14.62,4.08,14.62,12.24h-11.23c0-1.68-.3-2.82-.9-3.42-.6-.6-1.45-.9-2.56-.9-.96,0-1.75,.26-2.38,.79-.62,.53-.94,1.27-.94,2.23,0,1.1,.47,1.93,1.4,2.48,.94,.55,2.1,1.04,3.49,1.48,1.39,.43,2.89,.89,4.5,1.37,1.61,.48,3.11,1.17,4.5,2.05,1.39,.89,2.56,2.09,3.49,3.6,.94,1.51,1.4,3.52,1.4,6.01,0,1.92-.36,3.67-1.08,5.26s-1.74,2.95-3.06,4.1c-1.32,1.15-2.95,2.02-4.9,2.59s-4.14,.86-6.59,.86c-5.42,0-9.32-1.08-11.7-3.24s-3.56-5.38-3.56-9.65h11.38c0,.77,.07,1.49,.22,2.16Z"/></g><g><path class="b" d="M0,25.84v-5.06H14.85v5.06h-4.48v17.79H4.42V25.84H0Z"/><path class="b" d="M21.7,20.78v7.46h.06c.49-.92,1.1-1.54,1.84-1.87s1.46-.5,2.16-.5c.6,0,1.17,.08,1.71,.22,.54,.15,1.02,.41,1.44,.77,.42,.36,.75,.85,.99,1.46,.25,.61,.37,1.36,.37,2.26v13.06h-5.76v-11.42c0-.73-.11-1.25-.32-1.57-.21-.32-.58-.48-1.09-.48s-.88,.16-1.09,.48c-.21,.32-.32,.84-.32,1.57v11.42h-5.76V20.78h5.76Z"/><path class="b" d="M37.82,38.22c0,.94,.16,1.56,.48,1.87,.32,.31,.68,.46,1.09,.46,.51,0,.91-.21,1.2-.62s.43-1.21,.43-2.38h5.18c-.04,2.13-.59,3.74-1.63,4.82-1.05,1.08-2.76,1.62-5.15,1.62-1.39,0-2.55-.15-3.49-.46-.94-.31-1.7-.82-2.27-1.54-.58-.71-.99-1.65-1.23-2.8-.25-1.15-.37-2.55-.37-4.19s.14-3.07,.42-4.22c.28-1.15,.71-2.09,1.31-2.82,.6-.73,1.36-1.25,2.29-1.58,.93-.33,2.04-.5,3.34-.5,1.15,0,2.16,.14,3.02,.42,.86,.28,1.59,.74,2.18,1.39,.59,.65,1.02,1.5,1.31,2.56,.29,1.06,.43,2.37,.43,3.95v1.76h-8.54v2.27Zm2.83-8.19c-.22-.43-.65-.64-1.26-.64s-1.01,.21-1.23,.64c-.22,.43-.34,1.1-.34,2.02v.77h3.17v-.77c0-.92-.11-1.59-.34-2.02Z"/></g></g><g><rect class="b" x="228.99" y="56.5" width="60.66" height="3.87"/><rect class="b" x="228.97" y="49.33" width="60.68" height="3.83"/><rect class="b" x="228.97" y="13.05" width=".72" height="47.29"/><ellipse class="b" cx="234.07" cy="11.6" rx="5.27" ry="3.54" transform="translate(10.15 80.76) rotate(-20)"/><rect class="b" x="243.36" y="25.61" width=".72" height="34.76"/><ellipse class="b" cx="248.46" cy="24.15" rx="5.27" ry="3.54" transform="translate(6.72 86.44) rotate(-20)"/><rect class="b" x="273.73" y="25.61" width=".72" height="34.76"/><ellipse class="b" cx="278.83" cy="24.15" rx="5.27" ry="3.54" transform="translate(8.55 96.82) rotate(-20)"/><rect class="b" x="288.93" y="31.65" width=".72" height="28.72"/><ellipse class="b" cx="294.03" cy="30.19" rx="5.27" ry="3.54" transform="translate(7.41 102.38) rotate(-20)"/><rect class="b" x="259.32" y="17.74" width=".72" height="42.62"/><ellipse class="b" cx="264.42" cy="16.29" rx="5.27" ry="3.54" transform="translate(10.38 91.42) rotate(-20)"/></g></svg>