<?xml version="1.0" encoding="UTF-8"?><svg id="a" xmlns="http://www.w3.org/2000/svg" viewBox="0 0 328.11 65.57"><defs><style>.b{fill:#231f20;}</style></defs><path class="b" d="M16.91,2.11c10.59,0,17.86,1.68,21.8,5.04,3.94,3.36,5.91,8.95,5.91,16.75,0,8.65-2.03,15.18-6.1,19.58-4.07,4.41-10.96,6.61-20.69,6.61l-17.19,.04c-.42-1.03-.63-2.03-.63-2.99,0-.63,.18-1.1,.53-1.39,.35-.29,.87-.44,1.55-.44h2.57c.14-3.02,.21-10.89,.21-23.59,0-6.87-.07-11.8-.21-14.8H.63c-.42-1.03-.63-2.02-.63-2.95,0-.66,.18-1.13,.53-1.42,.35-.29,.87-.44,1.55-.44h14.84Zm-1.02,7.1c-.12,3.28-.18,10.89-.18,22.82,0,5.55,.34,8.83,1.02,9.83,.68,1,2.45,1.49,5.31,1.49,3.4,0,5.99-1.11,7.77-3.34,1.78-2.23,2.67-6.7,2.67-13.43s-1.05-11.24-3.15-13.83c-2.1-2.59-5.12-3.88-9.05-3.88-1.69,0-3.15,.12-4.39,.35Z"/><path class="b" d="M50.37,15.4c.62-.26,4.49-.49,11.62-.7,.12,.98,.12,2.34,0,4.08,2.95-1.73,5.62-2.91,8.02-3.52,2.39-.61,4.5-.91,6.33-.91,.84,0,1.41,.1,1.69,.3,.28,.2,.42,.66,.42,1.39,0,1.29-.19,2.63-.58,4.03-.39,1.39-.87,2.29-1.44,2.69-.57,.4-1.48,.69-2.72,.88-1.24,.19-1.96,.23-2.16,.14-.2-.09-.86-.88-1.99-2.36-1.73,0-3.06,.63-3.99,1.88-.93,1.25-1.39,4.48-1.39,9.69,0,4.76,.06,8.86,.18,12.3h5.52c.42,.77,.63,1.64,.63,2.6,0,.82-.17,1.39-.51,1.72-.34,.33-1,.49-1.99,.49h-17.93c-.42-.98-.63-1.91-.63-2.78,0-.73,.16-1.25,.49-1.56,.33-.32,.86-.47,1.58-.47h2.57c.12-3.45,.18-7.44,.18-11.99,0-6.56-.31-10.44-.93-11.64-.62-1.2-1.71-1.79-3.25-1.79-.42-.94-.63-1.88-.63-2.81,0-.84,.31-1.39,.93-1.65Z"/><path class="b" d="M134.69,2.11c1.5,0,2.57,.23,3.22,.69,.64,.46,.97,1.4,.97,2.83,0,1.73-.57,3.52-1.72,5.34-4.92-1.99-11.23-2.99-18.91-2.99h-1.69c-.14,2.3-.21,6.97-.21,14.03h17.72c.4,1.24,.6,2.53,.6,3.87,0,.8-.14,1.33-.42,1.6-.28,.27-.82,.4-1.62,.4h-16.28c.02,9.02,.09,14.47,.21,16.35h2.92c7.9,0,14.16-.93,18.77-2.78,1.03,1.55,1.55,3.22,1.55,5.03,0,1.29-.48,2.21-1.44,2.78-.96,.56-2.91,.84-5.84,.84l-31.25,.04c-.42-1.03-.63-2.03-.63-2.99,0-.63,.18-1.1,.53-1.39,.35-.29,.87-.44,1.55-.44h2.57c.14-3.02,.21-10.89,.21-23.59,0-6.87-.07-11.8-.21-14.8h-4.01c-.42-1.03-.63-2.02-.63-2.95,0-.66,.18-1.13,.53-1.42,.35-.29,.87-.44,1.55-.44h31.99Z"/><path class="b" d="M171.58,17.63c2.2,2.21,3.3,5.71,3.3,10.49,0,2.37-.47,4.06-1.41,5.06-.94,1.01-2.99,1.51-6.15,1.51h-13.08c.07,3.07,.76,5.48,2.07,7.22,1.31,1.75,3.62,2.62,6.93,2.62s6.56-.94,9.98-2.81c1.22,1.2,1.83,2.48,1.83,3.87,0,1.88-1.38,3.18-4.13,3.92-2.75,.74-5.98,1.11-9.69,1.11-6.38,0-11-1.29-13.89-3.87-2.88-2.58-4.32-6.83-4.32-12.76s1.62-10.99,4.87-14.47c3.25-3.48,7.6-5.22,13.06-5.22,4.87,0,8.41,1.11,10.62,3.32Zm-16,4.87c-.91,1.41-1.38,3.86-1.41,7.35h1.86c2.6,0,4.59-.08,5.96-.23,1.37-.15,2.17-.41,2.41-.77,.23-.36,.35-.97,.35-1.81,0-2.11-.46-3.74-1.37-4.9s-2.19-1.74-3.83-1.74c-1.73,0-3.06,.7-3.97,2.11Z"/><path class="b" d="M189.44,17.61c1.99-.96,3.97-1.75,5.92-2.37,1.96-.62,4.08-.93,6.38-.93,4.52,0,7.86,1.25,10,3.74s3.22,6.44,3.22,11.83c0,7.24-1.6,12.54-4.8,15.89-3.2,3.35-7.47,5.03-12.81,5.03-1.34,0-2.41-.05-3.22-.14-.81-.09-1.42-.19-1.85-.28,0,3.47,.06,6.93,.18,10.37h4.89c.4,.77,.6,1.64,.6,2.6,0,.82-.17,1.39-.51,1.72-.34,.33-1,.49-1.99,.49h-17.26c-.42-.98-.63-1.91-.63-2.78,0-.73,.16-1.25,.49-1.56s.86-.47,1.58-.47h2.57c.12-3.45,.18-8.04,.18-13.78v-13.68c0-6.56-.31-10.44-.93-11.64s-1.71-1.79-3.25-1.79c-.42-.94-.63-1.88-.63-2.81,0-.84,.31-1.39,.93-1.65,.62-.26,4.27-.49,10.95-.7,.12,.89,.12,1.86,0,2.92Zm2.85,25.56c.75,.45,1.53,.81,2.34,1.11,.81,.29,1.82,.44,3.04,.44,2.04,0,3.58-.7,4.62-2.09,1.04-1.39,1.56-4.4,1.56-9.02,0-5.48-.53-9.06-1.6-10.72-1.07-1.66-2.55-2.5-4.45-2.5-1.1,0-2.11,.29-3.02,.86-.91,.57-1.56,1.51-1.93,2.79-.38,1.29-.56,3.07-.56,5.34v13.78Z"/><path class="b" d="M221.78,14.55c0-.91-.04-2.06-.12-3.45-.08-1.38-.25-2.57-.51-3.57-.26-1-.71-1.64-1.35-1.93-.64-.29-1.49-.44-2.55-.44-.4-.96-.6-1.92-.6-2.88s.36-1.61,1.09-1.88c.73-.27,3.09-.4,7.1-.4,2.48,0,4.18,.1,5.08,.3,.9,.2,1.42,.57,1.56,1.11,.14,.54,.21,1.3,.21,2.29v13.92c1.48-.84,3.24-1.6,5.29-2.27s4.11-1,6.17-1c3.07,0,5.41,.73,7.01,2.18,1.61,1.45,2.41,4.38,2.41,8.79,0,11.53,.21,17.75,.63,18.65,.42,.9,1.34,1.34,2.74,1.32,.35,.84,.53,1.72,.53,2.64,0,.84-.28,1.42-.83,1.72-.55,.3-1.6,.46-3.15,.46-3.8,0-6.2-.06-7.21-.18-1.01-.12-1.7-.5-2.07-1.14-.38-.64-.56-1.73-.56-3.25v-12.41c0-4.78-.44-7.99-1.32-9.62-.88-1.63-2.3-2.44-4.27-2.44-1.66,0-2.98,.49-3.94,1.46-.96,.97-1.44,3.01-1.44,6.1v7.07c0,2.95,.06,6.15,.18,9.6h4.18c.4,.77,.6,1.64,.6,2.6,0,.82-.17,1.39-.51,1.72-.34,.33-1,.49-1.99,.49h-16.56c-.42-.98-.63-1.91-.63-2.78,0-.73,.16-1.25,.49-1.56s.86-.47,1.58-.47h2.57c.12-3.87,.18-7.5,.18-10.9V14.55Z"/><path class="b" d="M291.99,34.56c0,4.66,.17,7.55,.51,8.67,.34,1.11,1.2,1.61,2.58,1.49,.33,.77,.49,1.51,.49,2.21,0,1.15-.86,2.02-2.57,2.62s-3.28,.9-4.71,.9c-1.1,0-1.88-.17-2.32-.51s-1.14-1.19-2.07-2.55c-2.18,1.1-4.27,1.95-6.28,2.53s-4.14,.88-6.42,.88c-3,0-5.36-.79-7.07-2.37s-2.57-4.8-2.57-9.65c0-7.24-.04-11.71-.12-13.41-.08-1.7-.26-2.94-.54-3.73-.28-.79-.66-1.28-1.12-1.48-.47-.2-1.15-.3-2.04-.3-.42-.66-.63-1.42-.63-2.29,0-1.08,.66-1.83,1.97-2.25s3.39-.63,6.22-.63c2.04,0,3.48,.12,4.32,.37s1.37,.62,1.56,1.11,.3,2.14,.3,4.96v12.52c0,4.57,.43,7.56,1.3,8.96s2.1,2.11,3.69,2.11c1.2,0,2.3-.26,3.3-.79s1.64-1.22,1.9-2.07c.26-.86,.39-2.4,.39-4.62,0-6.21-.01-10.16-.04-11.85s-.15-2.93-.39-3.73c-.23-.8-.53-1.29-.9-1.49-.36-.2-.99-.3-1.88-.3-.42-.66-.63-1.42-.63-2.29,0-1.08,.66-1.83,1.99-2.25s3.18-.63,5.57-.63c2.04,0,3.48,.12,4.32,.37s1.37,.67,1.56,1.27,.3,2.31,.3,5.15v13.08Z"/><path class="b" d="M324.45,15.31c1.92,.67,2.88,1.79,2.88,3.36,0,1.66-.67,3.35-2,5.06-5.06-2.23-8.94-3.34-11.64-3.34-1.43,0-2.49,.27-3.18,.81-.69,.54-1.04,1.31-1.04,2.32s.46,1.97,1.39,2.74c.93,.77,3.06,1.76,6.42,2.95,3.91,1.34,6.7,2.8,8.35,4.39,1.65,1.59,2.48,3.69,2.48,6.29,0,3.52-1.44,6.21-4.31,8.09-2.87,1.88-6.76,2.81-11.65,2.81-4.52,0-7.75-.31-9.67-.93s-2.89-1.9-2.92-3.85c0-1.45,.57-2.88,1.72-4.29,4.66,1.99,8.8,2.99,12.41,2.99,1.48,0,2.62-.25,3.45-.74s1.23-1.31,1.23-2.46c0-1.34-.72-2.4-2.16-3.2-1.44-.8-3.76-1.8-6.94-3.02-3.42-1.31-5.87-2.72-7.33-4.24s-2.2-3.45-2.2-5.82c0-3.33,1.46-5.98,4.38-7.96,2.92-1.98,6.97-2.97,12.15-2.97,3.54,0,6.27,.33,8.19,1Z"/></svg>