<?xml version="1.0" encoding="utf-8"?>
<!-- Generator: Adobe Illustrator 26.5.0, SVG Export Plug-In . SVG Version: 6.00 Build 0)  -->
<svg version="1.1" id="Layer_1" xmlns="http://www.w3.org/2000/svg" xmlns:xlink="http://www.w3.org/1999/xlink" x="0px" y="0px"
	 viewBox="0 0 792 612" style="enable-background:new 0 0 792 612;" xml:space="preserve">
<g>
	<path d="M248.91,236.01c10.59,0,17.86,1.68,21.8,5.04c3.94,3.36,5.91,8.95,5.91,16.75c0,8.65-2.03,15.18-6.1,19.58
		c-4.07,4.41-10.96,6.61-20.69,6.61l-17.19,0.04C232.21,283,232,282,232,281.04c0-0.63,0.18-1.1,0.53-1.39
		c0.35-0.29,0.87-0.44,1.55-0.44h2.57c0.14-3.02,0.21-10.89,0.21-23.59c0-6.87-0.07-11.8-0.21-14.8h-4.01
		c-0.42-1.03-0.63-2.02-0.63-2.95c0-0.66,0.18-1.13,0.53-1.42c0.35-0.29,0.87-0.44,1.55-0.44H248.91z M247.89,243.11
		c-0.12,3.28-0.18,10.89-0.18,22.82c0,5.55,0.34,8.83,1.02,9.83c0.68,1,2.45,1.49,5.31,1.49c3.4,0,5.99-1.11,7.77-3.34
		c1.78-2.23,2.67-6.7,2.67-13.43c0-6.63-1.05-11.24-3.15-13.83c-2.1-2.59-5.12-3.88-9.05-3.88
		C250.6,242.76,249.13,242.87,247.89,243.11z"/>
	<path d="M282.37,249.3c0.62-0.26,4.49-0.49,11.62-0.7c0.12,0.98,0.12,2.34,0,4.08c2.95-1.73,5.62-2.91,8.02-3.52
		c2.39-0.61,4.5-0.91,6.33-0.91c0.84,0,1.41,0.1,1.69,0.3c0.28,0.2,0.42,0.66,0.42,1.39c0,1.29-0.19,2.63-0.58,4.03
		c-0.39,1.39-0.87,2.29-1.44,2.69c-0.57,0.4-1.48,0.69-2.72,0.88c-1.24,0.19-1.96,0.23-2.16,0.14c-0.2-0.09-0.86-0.88-1.99-2.36
		c-1.73,0-3.06,0.63-3.99,1.88c-0.93,1.25-1.39,4.48-1.39,9.69c0,4.76,0.06,8.86,0.18,12.3h5.52c0.42,0.77,0.63,1.64,0.63,2.6
		c0,0.82-0.17,1.39-0.51,1.72c-0.34,0.33-1,0.49-1.99,0.49h-17.93c-0.42-0.98-0.63-1.91-0.63-2.78c0-0.73,0.16-1.25,0.49-1.56
		c0.33-0.32,0.86-0.47,1.58-0.47h2.57c0.12-3.45,0.18-7.44,0.18-11.99c0-6.56-0.31-10.44-0.93-11.64c-0.62-1.2-1.71-1.79-3.25-1.79
		c-0.42-0.94-0.63-1.88-0.63-2.81C281.43,250.1,281.75,249.55,282.37,249.3z"/>
	<path d="M366.69,236.01c1.5,0,2.57,0.23,3.22,0.69c0.64,0.46,0.97,1.4,0.97,2.83c0,1.73-0.57,3.52-1.72,5.34
		c-4.92-1.99-11.23-2.99-18.91-2.99h-1.69c-0.14,2.3-0.21,6.97-0.21,14.03h17.72c0.4,1.24,0.6,2.53,0.6,3.87
		c0,0.8-0.14,1.33-0.42,1.6c-0.28,0.27-0.82,0.4-1.62,0.4h-16.28c0.02,9.02,0.09,14.47,0.21,16.35h2.92c7.9,0,14.16-0.93,18.77-2.78
		c1.03,1.55,1.55,3.22,1.55,5.03c0,1.29-0.48,2.21-1.44,2.78c-0.96,0.56-2.91,0.84-5.84,0.84l-31.25,0.04
		c-0.42-1.03-0.63-2.03-0.63-2.99c0-0.63,0.18-1.1,0.53-1.39c0.35-0.29,0.87-0.44,1.55-0.44h2.57c0.14-3.02,0.21-10.89,0.21-23.59
		c0-6.87-0.07-11.8-0.21-14.8h-4.01c-0.42-1.03-0.63-2.02-0.63-2.95c0-0.66,0.18-1.13,0.53-1.42c0.35-0.29,0.87-0.44,1.55-0.44
		H366.69z"/>
	<path d="M403.58,251.53c2.2,2.21,3.3,5.71,3.3,10.49c0,2.37-0.47,4.06-1.41,5.06c-0.94,1.01-2.99,1.51-6.15,1.51h-13.08
		c0.07,3.07,0.76,5.48,2.07,7.22c1.31,1.75,3.62,2.62,6.93,2.62c3.23,0,6.56-0.94,9.98-2.81c1.22,1.2,1.83,2.48,1.83,3.87
		c0,1.88-1.38,3.18-4.13,3.92c-2.75,0.74-5.98,1.11-9.69,1.11c-6.38,0-11-1.29-13.89-3.87c-2.88-2.58-4.32-6.83-4.32-12.76
		c0-6.16,1.62-10.99,4.87-14.47c3.25-3.48,7.6-5.22,13.06-5.22C397.83,248.21,401.38,249.31,403.58,251.53z M387.58,256.4
		c-0.91,1.41-1.38,3.86-1.41,7.35h1.86c2.6,0,4.59-0.08,5.96-0.23c1.37-0.15,2.17-0.41,2.41-0.77c0.23-0.36,0.35-0.97,0.35-1.81
		c0-2.11-0.46-3.74-1.37-4.9s-2.19-1.74-3.83-1.74C389.82,254.29,388.5,254.99,387.58,256.4z"/>
	<path d="M421.43,251.51c1.99-0.96,3.97-1.75,5.92-2.37c1.96-0.62,4.08-0.93,6.38-0.93c4.52,0,7.86,1.25,10,3.74
		s3.22,6.44,3.22,11.83c0,7.24-1.6,12.54-4.8,15.89c-3.2,3.35-7.47,5.03-12.81,5.03c-1.34,0-2.41-0.05-3.22-0.14
		c-0.81-0.09-1.42-0.19-1.85-0.28c0,3.47,0.06,6.93,0.18,10.37h4.89c0.4,0.77,0.6,1.64,0.6,2.6c0,0.82-0.17,1.39-0.51,1.72
		c-0.34,0.33-1,0.49-1.99,0.49h-17.26c-0.42-0.98-0.63-1.91-0.63-2.78c0-0.73,0.16-1.25,0.49-1.56s0.86-0.47,1.58-0.47h2.57
		c0.12-3.45,0.18-8.04,0.18-13.78v-13.68c0-6.56-0.31-10.44-0.93-11.64s-1.71-1.79-3.25-1.79c-0.42-0.94-0.63-1.88-0.63-2.81
		c0-0.84,0.31-1.39,0.93-1.65c0.62-0.26,4.27-0.49,10.95-0.7C421.55,249.48,421.55,250.46,421.43,251.51z M424.28,277.07
		c0.75,0.45,1.53,0.81,2.34,1.11c0.81,0.29,1.82,0.44,3.04,0.44c2.04,0,3.58-0.7,4.62-2.09c1.04-1.39,1.56-4.4,1.56-9.02
		c0-5.48-0.53-9.06-1.6-10.72c-1.07-1.66-2.55-2.5-4.45-2.5c-1.1,0-2.11,0.29-3.02,0.86c-0.91,0.57-1.56,1.51-1.93,2.79
		c-0.38,1.29-0.56,3.07-0.56,5.34V277.07z"/>
	<path d="M453.78,248.45c0-0.91-0.04-2.06-0.12-3.45c-0.08-1.38-0.25-2.57-0.51-3.57c-0.26-1-0.71-1.64-1.35-1.93
		c-0.64-0.29-1.49-0.44-2.55-0.44c-0.4-0.96-0.6-1.92-0.6-2.88c0-0.98,0.36-1.61,1.09-1.88c0.73-0.27,3.09-0.4,7.1-0.4
		c2.48,0,4.18,0.1,5.08,0.3c0.9,0.2,1.42,0.57,1.56,1.11c0.14,0.54,0.21,1.3,0.21,2.29v13.92c1.48-0.84,3.24-1.6,5.29-2.27
		s4.11-1,6.17-1c3.07,0,5.41,0.73,7.01,2.18c1.61,1.45,2.41,4.38,2.41,8.79c0,11.53,0.21,17.75,0.63,18.65
		c0.42,0.9,1.34,1.34,2.74,1.32c0.35,0.84,0.53,1.72,0.53,2.64c0,0.84-0.28,1.42-0.83,1.72c-0.55,0.3-1.6,0.46-3.15,0.46
		c-3.8,0-6.2-0.06-7.21-0.18c-1.01-0.12-1.7-0.5-2.07-1.14c-0.38-0.64-0.56-1.73-0.56-3.25v-12.41c0-4.78-0.44-7.99-1.32-9.62
		c-0.88-1.63-2.3-2.44-4.27-2.44c-1.66,0-2.98,0.49-3.94,1.46c-0.96,0.97-1.44,3.01-1.44,6.1v7.07c0,2.95,0.06,6.15,0.18,9.6h4.18
		c0.4,0.77,0.6,1.64,0.6,2.6c0,0.82-0.17,1.39-0.51,1.72c-0.34,0.33-1,0.49-1.99,0.49H449.6c-0.42-0.98-0.63-1.91-0.63-2.78
		c0-0.73,0.16-1.25,0.49-1.56s0.86-0.47,1.58-0.47h2.57c0.12-3.87,0.18-7.5,0.18-10.9V248.45z"/>
	<path d="M523.98,268.46c0,4.66,0.17,7.55,0.51,8.67c0.34,1.11,1.2,1.61,2.58,1.49c0.33,0.77,0.49,1.51,0.49,2.21
		c0,1.15-0.86,2.02-2.57,2.62s-3.28,0.9-4.71,0.9c-1.1,0-1.88-0.17-2.32-0.51s-1.14-1.19-2.07-2.55c-2.18,1.1-4.27,1.95-6.28,2.53
		s-4.14,0.88-6.42,0.88c-3,0-5.36-0.79-7.07-2.37s-2.57-4.8-2.57-9.65c0-7.24-0.04-11.71-0.12-13.41c-0.08-1.7-0.26-2.94-0.54-3.73
		c-0.28-0.79-0.66-1.28-1.12-1.48c-0.47-0.2-1.15-0.3-2.04-0.3c-0.42-0.66-0.63-1.42-0.63-2.29c0-1.08,0.66-1.83,1.97-2.25
		s3.39-0.63,6.22-0.63c2.04,0,3.48,0.12,4.32,0.37s1.37,0.62,1.56,1.11s0.3,2.14,0.3,4.96v12.52c0,4.57,0.43,7.56,1.3,8.96
		s2.1,2.11,3.69,2.11c1.2,0,2.3-0.26,3.3-0.79s1.64-1.22,1.9-2.07c0.26-0.86,0.39-2.4,0.39-4.62c0-6.21-0.01-10.16-0.04-11.85
		s-0.15-2.93-0.39-3.73c-0.23-0.8-0.53-1.29-0.9-1.49c-0.36-0.2-0.99-0.3-1.88-0.3c-0.42-0.66-0.63-1.42-0.63-2.29
		c0-1.08,0.66-1.83,1.99-2.25s3.18-0.63,5.57-0.63c2.04,0,3.48,0.12,4.32,0.37s1.37,0.67,1.56,1.27s0.3,2.31,0.3,5.15V268.46z"/>
	<path d="M556.45,249.21c1.92,0.67,2.88,1.79,2.88,3.36c0,1.66-0.67,3.35-2,5.06c-5.06-2.23-8.94-3.34-11.64-3.34
		c-1.43,0-2.49,0.27-3.18,0.81c-0.69,0.54-1.04,1.31-1.04,2.32c0,1.05,0.46,1.97,1.39,2.74s3.06,1.76,6.42,2.95
		c3.91,1.34,6.7,2.8,8.35,4.39c1.65,1.59,2.48,3.69,2.48,6.29c0,3.52-1.44,6.21-4.31,8.09c-2.87,1.88-6.76,2.81-11.65,2.81
		c-4.52,0-7.75-0.31-9.67-0.93s-2.89-1.9-2.92-3.85c0-1.45,0.57-2.88,1.72-4.29c4.66,1.99,8.8,2.99,12.41,2.99
		c1.48,0,2.62-0.25,3.45-0.74s1.23-1.31,1.23-2.46c0-1.34-0.72-2.4-2.16-3.2c-1.44-0.8-3.76-1.8-6.94-3.02
		c-3.42-1.31-5.87-2.72-7.33-4.24s-2.2-3.45-2.2-5.82c0-3.33,1.46-5.98,4.38-7.96c2.92-1.98,6.97-2.97,12.15-2.97
		C551.8,248.21,554.53,248.54,556.45,249.21z"/>
</g>
</svg>
