<?xml version="1.0" encoding="UTF-8"?><svg id="b" xmlns="http://www.w3.org/2000/svg" viewBox="0 0 193.51 38.25"><g id="c"><g><path d="M9.86,1.23c6.18,0,10.42,.98,12.71,2.94s3.45,5.22,3.45,9.77c0,5.04-1.19,8.85-3.56,11.42s-6.4,3.86-12.07,3.86l-10.03,.02c-.25-.6-.37-1.18-.37-1.74,0-.37,.1-.64,.31-.81s.51-.26,.9-.26h1.5c.08-1.76,.12-6.35,.12-13.76,0-4.01-.04-6.88-.12-8.63H.37c-.25-.6-.37-1.18-.37-1.72,0-.38,.1-.66,.31-.83s.51-.26,.9-.26H9.86Zm-.59,4.14c-.07,1.91-.1,6.35-.1,13.31,0,3.24,.2,5.15,.59,5.73s1.43,.87,3.1,.87c1.98,0,3.49-.65,4.53-1.95s1.56-3.91,1.56-7.83-.61-6.56-1.84-8.07-2.98-2.27-5.28-2.27c-.98,0-1.84,.07-2.56,.21Z" style="fill:#231f20;"/><path d="M29.76,8.98c.36-.15,2.62-.29,6.78-.41,.07,.57,.07,1.37,0,2.38,1.72-1.01,3.28-1.7,4.68-2.05s2.62-.53,3.69-.53c.49,0,.82,.06,.98,.17s.25,.39,.25,.81c0,.75-.11,1.53-.34,2.35s-.51,1.34-.84,1.57-.86,.4-1.59,.51-1.15,.14-1.26,.08-.5-.51-1.16-1.37c-1.01,0-1.79,.37-2.33,1.1s-.81,2.61-.81,5.65c0,2.78,.03,5.17,.1,7.18h3.22c.25,.45,.37,.96,.37,1.52,0,.48-.1,.81-.3,1s-.58,.29-1.16,.29h-10.46c-.25-.57-.37-1.11-.37-1.62,0-.42,.1-.73,.29-.91s.5-.28,.92-.28h1.5c.07-2.01,.1-4.34,.1-6.99,0-3.83-.18-6.09-.54-6.79s-.99-1.05-1.9-1.05c-.25-.55-.37-1.09-.37-1.64,0-.49,.18-.81,.54-.96Z" style="fill:#231f20;"/><path d="M78.94,1.23c.88,0,1.5,.13,1.88,.4s.56,.82,.56,1.65c0,1.01-.33,2.05-1,3.12-2.87-1.16-6.55-1.74-11.03-1.74h-.98c-.08,1.34-.12,4.07-.12,8.18h10.34c.23,.72,.35,1.48,.35,2.26,0,.46-.08,.78-.25,.93s-.48,.24-.94,.24h-9.5c.01,5.26,.05,8.44,.12,9.54h1.7c4.61,0,8.26-.54,10.95-1.62,.6,.9,.9,1.88,.9,2.93,0,.75-.28,1.29-.84,1.62s-1.7,.49-3.4,.49l-18.23,.02c-.25-.6-.37-1.18-.37-1.74,0-.37,.1-.64,.31-.81s.51-.26,.9-.26h1.5c.08-1.76,.12-6.35,.12-13.76,0-4.01-.04-6.88-.12-8.63h-2.34c-.25-.6-.37-1.18-.37-1.72,0-.38,.1-.66,.31-.83s.51-.26,.9-.26h18.66Z" style="fill:#231f20;"/><path d="M100.83,10.28c1.29,1.29,1.93,3.33,1.93,6.12,0,1.38-.27,2.37-.82,2.95s-1.74,.88-3.59,.88h-7.63c.04,1.79,.44,3.2,1.21,4.21s2.11,1.53,4.04,1.53,3.83-.55,5.82-1.64c.71,.7,1.07,1.45,1.07,2.26,0,1.09-.8,1.86-2.41,2.29s-3.49,.65-5.65,.65c-3.72,0-6.42-.75-8.1-2.26s-2.52-3.99-2.52-7.44,.95-6.41,2.84-8.44,4.43-3.05,7.62-3.05c2.84,0,4.91,.65,6.19,1.94Zm-9.33,2.84c-.53,.82-.81,2.25-.82,4.29h1.09c1.52,0,2.68-.04,3.48-.13s1.27-.24,1.4-.45,.21-.56,.21-1.06c0-1.23-.27-2.18-.8-2.86s-1.28-1.02-2.24-1.02c-1.01,0-1.78,.41-2.32,1.23Z" style="fill:#231f20;"/><path d="M111.59,10.27c1.16-.56,2.31-1.02,3.46-1.38s2.38-.54,3.72-.54c2.64,0,4.58,.73,5.83,2.18,1.25,1.46,1.88,3.76,1.88,6.9,0,4.22-.93,7.31-2.8,9.27-1.87,1.96-4.36,2.93-7.48,2.93-.78,0-1.41-.03-1.88-.08-.47-.05-.83-.11-1.08-.16,0,2.02,.03,4.04,.1,6.05h2.85c.23,.45,.35,.96,.35,1.52,0,.48-.1,.81-.3,1-.2,.19-.58,.29-1.16,.29h-10.07c-.25-.57-.37-1.11-.37-1.62,0-.42,.1-.73,.29-.91s.5-.28,.92-.28h1.5c.07-2.01,.1-4.69,.1-8.04v-7.98c0-3.83-.18-6.09-.54-6.79s-1-1.05-1.9-1.05c-.25-.55-.37-1.09-.37-1.64,0-.49,.18-.81,.54-.96s2.49-.29,6.39-.41c.07,.52,.07,1.09,0,1.7Zm1.66,14.91c.44,.26,.89,.48,1.36,.65,.47,.17,1.06,.26,1.77,.26,1.19,0,2.09-.41,2.7-1.22,.61-.81,.91-2.57,.91-5.26,0-3.2-.31-5.28-.93-6.25s-1.49-1.46-2.59-1.46c-.64,0-1.23,.17-1.76,.5s-.91,.88-1.13,1.63-.33,1.79-.33,3.12v8.04Z" style="fill:#231f20;"/><path d="M130.8,8.49c0-.53-.02-1.2-.07-2.01s-.15-1.5-.3-2.08-.41-.96-.79-1.13c-.38-.17-.87-.26-1.49-.26-.23-.56-.35-1.12-.35-1.68s.21-.94,.64-1.1,1.8-.24,4.14-.24c1.45,0,2.44,.06,2.96,.17,.53,.12,.83,.33,.91,.65s.12,.76,.12,1.33V10.27c.86-.49,1.89-.93,3.09-1.32s2.4-.58,3.6-.58c1.79,0,3.15,.42,4.09,1.27,.94,.85,1.4,2.56,1.4,5.13,0,6.73,.12,10.35,.37,10.88s.78,.78,1.6,.77c.21,.49,.31,1,.31,1.54,0,.49-.16,.83-.48,1-.32,.18-.93,.27-1.84,.27-2.21,0-3.62-.03-4.2-.1s-.99-.29-1.21-.67-.33-1.01-.33-1.9v-7.24c0-2.79-.26-4.66-.77-5.61-.51-.95-1.34-1.43-2.49-1.43-.97,0-1.74,.28-2.3,.85s-.84,1.75-.84,3.56v4.12c0,1.72,.03,3.59,.1,5.6h2.44c.23,.45,.35,.96,.35,1.52,0,.48-.1,.81-.3,1s-.58,.29-1.16,.29h-9.66c-.25-.57-.37-1.11-.37-1.62,0-.42,.1-.73,.29-.91s.5-.28,.92-.28h1.5c.07-2.26,.1-4.38,.1-6.36V8.49Z" style="fill:#231f20;"/><path d="M172.1,20.16c0,2.72,.1,4.41,.3,5.06s.7,.94,1.51,.87c.19,.45,.29,.88,.29,1.29,0,.67-.5,1.18-1.5,1.53s-1.91,.52-2.75,.52c-.64,0-1.09-.1-1.35-.3s-.66-.69-1.21-1.49c-1.27,.64-2.49,1.13-3.66,1.48-1.17,.34-2.42,.51-3.74,.51-1.75,0-3.12-.46-4.12-1.38s-1.5-2.8-1.5-5.63c0-4.22-.02-6.83-.07-7.82-.05-.99-.15-1.72-.32-2.17s-.38-.75-.66-.86-.67-.17-1.19-.17c-.25-.38-.37-.83-.37-1.33,0-.63,.38-1.07,1.15-1.31s1.98-.37,3.63-.37c1.19,0,2.03,.07,2.52,.22s.8,.36,.91,.65,.17,1.25,.17,2.89v7.3c0,2.67,.25,4.41,.76,5.23s1.22,1.23,2.15,1.23c.7,0,1.34-.15,1.93-.46s.96-.71,1.11-1.21,.23-1.4,.23-2.7c0-3.62,0-5.93-.02-6.91s-.09-1.71-.23-2.17-.31-.76-.52-.87-.58-.17-1.1-.17c-.25-.38-.37-.83-.37-1.33,0-.63,.39-1.07,1.16-1.31,.77-.25,1.86-.37,3.25-.37,1.19,0,2.03,.07,2.52,.22s.8,.39,.91,.74c.12,.35,.17,1.35,.17,3v7.63Z" style="fill:#231f20;"/><path d="M191.37,8.93c1.12,.39,1.68,1.04,1.68,1.96,0,.97-.39,1.96-1.17,2.95-2.95-1.3-5.22-1.95-6.79-1.95-.83,0-1.45,.16-1.86,.47s-.6,.77-.6,1.35,.27,1.15,.81,1.6,1.79,1.03,3.74,1.72c2.28,.78,3.91,1.63,4.87,2.56,.96,.93,1.45,2.15,1.45,3.67,0,2.05-.84,3.62-2.51,4.72s-3.94,1.64-6.8,1.64c-2.64,0-4.52-.18-5.64-.54s-1.69-1.11-1.7-2.25c0-.85,.33-1.68,1-2.5,2.72,1.16,5.13,1.74,7.24,1.74,.86,0,1.53-.14,2.01-.43s.72-.77,.72-1.44c0-.78-.42-1.4-1.26-1.87-.84-.46-2.19-1.05-4.05-1.76-2-.77-3.42-1.59-4.28-2.47s-1.28-2.01-1.28-3.39c0-1.94,.85-3.49,2.55-4.65,1.7-1.16,4.06-1.73,7.09-1.73,2.06,0,3.66,.19,4.78,.58Z" style="fill:#231f20;"/></g></g></svg>